<?xml version="1.0" standalone="no"?>
<!DOCTYPE svg PUBLIC "-//W3C//DTD SVG 1.1//EN" "http://www.w3.org/Graphics/SVG/1.1/DTD/svg11.dtd" >
<svg xmlns="http://www.w3.org/2000/svg" xmlns:xlink="http://www.w3.org/1999/xlink" version="1.1">
<metadata>
Created by FontForge 20170731 at Tue Mar 27 11:14:13 2018
 By Aleksey,,,
Copyright (c) 2018 Monotype Imaging Inc. All rights reserved.
</metadata>
<defs>
<font id="NeuePlakText-Italic" horiz-adv-x="0" >
  <font-face 
    font-family="Neue Plak Text"
    font-weight="400"
    font-style="italic"
    font-stretch="normal"
    units-per-em="1000"
    panose-1="2 11 5 4 3 2 2 9 2 4"
    ascent="800"
    descent="-200"
    x-height="487"
    cap-height="706"
    bbox="-776 -248 1050 1156"
    underline-thickness="50"
    underline-position="-200"
    slope="-11"
    unicode-range="U+000D-FEFF"
  />
<missing-glyph horiz-adv-x="659" 
d="M27 0l141 706h508l-141 -706h-508zM138 82h319l109 542h-320z" />
    <glyph glyph-name=".notdef" horiz-adv-x="659" 
d="M27 0l141 706h508l-141 -706h-508zM138 82h319l109 542h-320z" />
    <glyph glyph-name=".null" 
 />
    <glyph glyph-name="nonmarkingreturn" horiz-adv-x="333" 
 />
    <glyph glyph-name="NULL" 
 />
    <glyph glyph-name="NULL" 
 />
    <glyph glyph-name="CR" unicode="&#xd;" horiz-adv-x="182" 
 />
    <glyph glyph-name="space" unicode=" " horiz-adv-x="182" 
 />
    <glyph glyph-name="exclam" unicode="!" horiz-adv-x="278" 
d="M93 193l91 513h96l-114 -513h-73zM100 -14q-28 0 -45 17t-17 43q0 28 17 45t45 17q27 0 44.5 -17.5t17.5 -44.5q0 -26 -18 -43t-44 -17z" />
    <glyph glyph-name="quotedbl" unicode="&#x22;" horiz-adv-x="425" 
d="M130 425l45 281h88l-66 -281h-67zM301 425l46 281h88l-66 -281h-68z" />
    <glyph glyph-name="numbersign" unicode="#" horiz-adv-x="665" 
d="M676 439h-119l-62 -172h119l-29 -77h-117l-74 -206h-84l73 206h-171l-73 -206h-84l73 206h-117l29 77h116l61 172h-115l29 76h113l74 207h84l-74 -207h171l74 207h85l-74 -207h121zM411 267l61 172h-171l-61 -172h171z" />
    <glyph glyph-name="dollar" unicode="$" horiz-adv-x="604" 
d="M584 488h-96q4 19 4 40q0 97 -90 116l-48 -243q7 -2 23 -8q91 -33 134 -75t43 -117q0 -100 -77.5 -158.5t-200.5 -58.5h-1l-17 -84h-50l18 87q-97 11 -143.5 65t-46.5 139q0 19 3 38h100q-3 -13 -3 -38q0 -112 107 -129l53 268q-1 0 -5 1.5t-6 2.5q-83 29 -126.5 71
t-43.5 114q0 90 71 146.5t180 56.5h3l17 84h50l-18 -87q84 -12 126.5 -62t42.5 -127q0 -21 -3 -42zM209 528q0 -41 25 -65t77 -45l46 230q-67 -1 -107.5 -34t-40.5 -86zM453 192q0 45 -27.5 71.5t-86.5 50.5l-51 -255q76 1 120.5 37.5t44.5 95.5z" />
    <glyph glyph-name="percent" unicode="%" horiz-adv-x="750" 
d="M228 403q-62 0 -91 35.5t-29 95.5q0 78 41.5 128.5t114.5 50.5q61 0 90 -35.5t29 -95.5q0 -77 -41.5 -128t-113.5 -51zM50 0l616 706h78l-616 -706h-78zM231 459q46 0 68 35t22 87q0 77 -62 77q-45 0 -67.5 -35.5t-22.5 -88.5q0 -75 62 -75zM531 -7q-61 0 -90 35.5
t-29 95.5q0 78 41.5 128.5t113.5 50.5q119 0 119 -131q0 -77 -41 -128t-114 -51zM535 49q45 0 67.5 35t22.5 87q0 77 -62 77q-45 0 -67.5 -35.5t-22.5 -88.5q0 -75 62 -75z" />
    <glyph glyph-name="ampersand" unicode="&#x26;" horiz-adv-x="635" 
d="M596 299q-72 -127 -124 -186q40 -36 99 -39l-16 -74q-89 0 -144 52q-84 -65 -190 -65q-97 0 -148 45t-51 120q0 76 52.5 131.5t144.5 106.5q-35 86 -35 149q0 87 54.5 135t147.5 48q78 0 121.5 -33t43.5 -93q0 -26 -8 -50t-27.5 -46t-35.5 -37.5t-49 -36t-51 -31
t-57 -31.5q3 -7 11 -21l88 -164q2 -4 4 -6q38 47 106 160zM265 539q0 -45 27 -109q43 23 68.5 38t54 36.5t41.5 43.5t13 46q0 30 -22 47.5t-65 17.5q-54 0 -85.5 -31.5t-31.5 -88.5zM116 157q0 -46 30 -71.5t84 -25.5q75 0 135 51l-10 18l-97 180q-1 2 -3.5 6.5t-3.5 7.5
q-64 -39 -99.5 -78t-35.5 -88z" />
    <glyph glyph-name="quotesingle" unicode="'" horiz-adv-x="254" 
d="M130 425l45 281h88l-66 -281h-67z" />
    <glyph glyph-name="parenleft" unicode="(" horiz-adv-x="392" 
d="M176 -201q-54 176 -54 340q0 350 247 670h89q-258 -316 -258 -676q0 -170 52 -334h-76z" />
    <glyph glyph-name="parenright" unicode=")" horiz-adv-x="393" 
d="M242 809q53 -178 53 -340q0 -352 -247 -670h-89q258 315 258 676q0 170 -52 334h77z" />
    <glyph glyph-name="asterisk" unicode="*" horiz-adv-x="361" 
d="M154 431l-43 46l96 74l-111 51l32 55l100 -68l14 120l61 -12l-33 -116l119 24l7 -63l-121 -5l59 -105l-57 -26l-41 114z" />
    <glyph glyph-name="plus" unicode="+" horiz-adv-x="577" 
d="M538 320l-15 -72h-197l-40 -199h-75l40 199h-197l15 72h197l40 201h75l-40 -201h197z" />
    <glyph glyph-name="comma" unicode="," horiz-adv-x="281" 
d="M-29 -171l127 328h88l-145 -328h-70z" />
    <glyph glyph-name="hyphen" unicode="-" horiz-adv-x="387" 
d="M54 245l16 78h279l-16 -78h-279z" />
    <glyph glyph-name="period" unicode="." horiz-adv-x="278" 
d="M100 -14q-28 0 -45 17t-17 43q0 28 17 45t45 17q27 0 44.5 -17.5t17.5 -44.5q0 -26 -18 -43t-44 -17z" />
    <glyph glyph-name="slash" unicode="/" horiz-adv-x="454" 
d="M-24 -50l443 772h96l-444 -772h-95z" />
    <glyph glyph-name="zero" unicode="0" horiz-adv-x="600" 
d="M264 -16q-108 0 -159 67t-51 182q0 69 15 147q31 153 109.5 247.5t201.5 94.5q108 0 158.5 -67.5t50.5 -181.5q0 -77 -15 -147q-32 -154 -109.5 -248t-200.5 -94zM267 66q83 0 136.5 74t75.5 190q15 77 15 142q0 168 -117 168q-82 0 -135.5 -73.5t-76.5 -190.5
q-15 -77 -15 -142q0 -168 117 -168z" />
    <glyph glyph-name="one" unicode="1" horiz-adv-x="600" 
d="M236 0l125 622h-166l34 84h239l-141 -706h-91z" />
    <glyph glyph-name="two" unicode="2" horiz-adv-x="600" 
d="M-3 0l1 3l345 306q52 46 78 72.5t47 65.5t21 80q0 53 -29.5 83.5t-92.5 30.5q-140 0 -172 -175h-89q22 119 88 187.5t180 68.5q106 0 158 -51t52 -138q0 -71 -34.5 -125.5t-104.5 -115.5q-100 -87 -247 -211h307l-16 -81h-492z" />
    <glyph glyph-name="three" unicode="3" horiz-adv-x="600" 
d="M589 549q0 -73 -43 -119t-119 -61q111 -35 111 -156q0 -105 -74 -167t-193 -62q-118 0 -170.5 50.5t-52.5 146.5q0 31 8 69h86q-6 -40 -6 -59q0 -129 139 -129q79 0 125 42.5t46 112.5q0 121 -163 121h-10l14 68h26q88 0 136 35t48 101q0 50 -31 78.5t-94 28.5
q-142 0 -170 -161h-89q21 111 88.5 172.5t179.5 61.5q103 0 155.5 -47t52.5 -126z" />
    <glyph glyph-name="four" unicode="4" horiz-adv-x="600" 
d="M577 254l-17 -78h-97l-35 -176h-90l35 176h-376l1 4l405 526h166l-90 -452h98zM149 254h240l83 417h-1z" />
    <glyph glyph-name="five" unicode="5" horiz-adv-x="600" 
d="M567 626h-281l-64 -174q43 10 88 10q114 0 170.5 -58.5t56.5 -158.5q0 -115 -76.5 -188t-197.5 -73q-218 0 -218 192q0 26 6 55h87q-4 -21 -4 -46q0 -123 131 -123q82 0 129.5 49t47.5 126q0 154 -183 154q-79 0 -154 -24l123 339h371z" />
    <glyph glyph-name="six" unicode="6" horiz-adv-x="600" 
d="M354 458q98 0 152 -57.5t54 -148.5q0 -113 -79 -190.5t-196 -77.5q-230 0 -230 264q0 126 38.5 232t118 174t187.5 68q100 0 154.5 -55t54.5 -151h-89q1 63 -32 97.5t-92 34.5q-96 0 -158 -81t-82 -204q70 95 199 95zM285 61q80 0 131 55.5t51 134.5q0 61 -35 98.5
t-100 37.5q-81 0 -130.5 -53.5t-49.5 -131.5q0 -62 34 -101.5t99 -39.5z" />
    <glyph glyph-name="seven" unicode="7" horiz-adv-x="600" 
d="M100 0l398 622h-358l16 84h499l-444 -706h-111z" />
    <glyph glyph-name="eight" unicode="8" horiz-adv-x="600" 
d="M437 373q113 -36 113 -162q0 -105 -77.5 -166t-196.5 -61q-123 0 -184.5 51.5t-61.5 140.5q0 81 52.5 137.5t137.5 68.5q-102 35 -102 152q0 87 71.5 137.5t177.5 50.5q113 0 173 -45t60 -124q0 -71 -45 -120t-118 -60zM365 655q-71 0 -113.5 -35.5t-42.5 -95.5
q0 -55 34.5 -85.5t98.5 -30.5q72 0 118.5 37.5t46.5 96.5q0 53 -35.5 83t-106.5 30zM279 57q78 0 127 42t49 110q0 58 -37.5 93t-109.5 35q-81 0 -132 -43.5t-51 -110.5q0 -58 39 -92t115 -34z" />
    <glyph glyph-name="nine" unicode="9" horiz-adv-x="600" 
d="M359 722q229 0 229 -264q0 -126 -38.5 -232t-118 -174t-187.5 -68q-99 0 -154 55t-55 151h89q-1 -63 32 -97.5t92 -34.5q96 0 158.5 81t82.5 204q-70 -95 -199 -95q-98 0 -152 57.5t-54 148.5q0 113 79 190.5t196 77.5zM312 319q81 0 130.5 53.5t49.5 131.5
q0 62 -34 101.5t-100 39.5q-80 0 -130.5 -55.5t-50.5 -134.5q0 -61 35 -98.5t100 -37.5z" />
    <glyph glyph-name="colon" unicode=":" horiz-adv-x="278" 
d="M171 341q-28 0 -45 17t-17 44t17 44.5t45 17.5q26 0 44 -17.5t18 -44.5t-17.5 -44t-44.5 -17zM100 -14q-28 0 -45 17t-17 43q0 28 17 45t45 17q27 0 44.5 -17.5t17.5 -44.5q0 -26 -18 -43t-44 -17z" />
    <glyph glyph-name="semicolon" unicode=";" horiz-adv-x="308" 
d="M200 341q-27 0 -44.5 17t-17.5 44t17.5 44.5t44.5 17.5t44.5 -17.5t17.5 -44.5t-17.5 -44t-44.5 -17zM-29 -171l127 328h88l-145 -328h-70z" />
    <glyph glyph-name="less" unicode="&#x3c;" horiz-adv-x="577" 
d="M572 486l-15 -74l-431 -128l380 -128l-15 -74l-438 152l14 70l6 29z" />
    <glyph glyph-name="equal" unicode="=" horiz-adv-x="577" 
d="M75 347l14 72h469l-15 -72h-468zM35 150l15 72h469l-15 -72h-469z" />
    <glyph glyph-name="greater" unicode="&#x3e;" horiz-adv-x="577" 
d="M103 486l438 -152l-14 -70h-1l-6 -29l-498 -153l14 74l432 128l-380 128z" />
    <glyph glyph-name="question" unicode="?" horiz-adv-x="494" 
d="M176 193q148 168 189 227q58 83 58 139q0 41 -25.5 66t-80.5 25q-66 0 -96 -34.5t-44 -101.5h-87q19 101 74 154.5t158 53.5q95 0 144.5 -44t49.5 -119q0 -47 -31 -106t-63 -99t-121 -143q-3 -4 -5 -6t-5 -5.5t-5 -6.5h-110zM200 -14q-28 0 -45 17t-17 43q0 28 17 45
t45 17q27 0 44.5 -17.5t17.5 -44.5q0 -26 -18 -43t-44 -17z" />
    <glyph glyph-name="at" unicode="@" horiz-adv-x="833" 
d="M476 679q159 0 241.5 -84.5t82.5 -223.5q0 -133 -73.5 -219.5t-202.5 -86.5h-44l11 52q-55 -60 -144 -60q-65 0 -96.5 31t-31.5 84q0 144 208 144h100q6 34 6 50q0 39 -19 56.5t-67 17.5q-47 0 -70.5 -20.5t-31.5 -61.5h-77q24 142 185 142q84 0 118.5 -33.5t34.5 -100.5
q0 -27 -8 -69l-36 -181q89 10 138 82.5t48 172.5q-1 121 -70 191.5t-204 70.5q-171 0 -267 -115.5t-96 -294.5q0 -134 70.5 -211t217.5 -77q34 0 61 3l-11 -48q-21 -3 -52 -3q-174 0 -256.5 91.5t-82.5 245.5q0 198 113 326.5t305 128.5zM383 117q59 0 89 34.5t46 115.5h-88
q-63 0 -96.5 -19.5t-33.5 -67.5q0 -63 83 -63z" />
    <glyph glyph-name="A" unicode="A" horiz-adv-x="630" 
d="M481 0l-23 177h-305l-94 -177h-99l378 706h139l96 -706h-92zM193 252h256l-50 386h-2z" />
    <glyph glyph-name="B" unicode="B" horiz-adv-x="600" 
d="M437 367q109 -35 109 -156q0 -101 -72 -156t-194 -55h-238l141 706h203q98 0 147.5 -44t49.5 -120q0 -65 -39 -111.5t-107 -63.5zM261 636l-47 -237h107q75 0 119.5 36t44.5 96q0 105 -135 105h-89zM263 70q89 0 137.5 36.5t48.5 108.5q0 113 -148 113h-101l-52 -258h115
z" />
    <glyph glyph-name="C" unicode="C" horiz-adv-x="700" 
d="M334 -16q-137 0 -201.5 78.5t-64.5 213.5q0 89 25.5 169.5t72 142t117.5 98t156 36.5q119 0 187 -66.5t68 -178.5q0 -4 -2 -26h-92q1 9 1 20q0 79 -45.5 124.5t-124.5 45.5q-84 0 -146.5 -53.5t-92 -135t-29.5 -175.5q0 -100 43 -156t133 -56q85 0 140.5 47t77.5 129h97
q-25 -120 -112 -188.5t-208 -68.5z" />
    <glyph glyph-name="D" unicode="D" horiz-adv-x="690" 
d="M42 0l141 706h181q300 0 300 -287q0 -185 -103 -302t-281 -117h-238zM150 78h120q145 0 221.5 93.5t76.5 244.5q0 102 -48.5 157t-159.5 55h-100z" />
    <glyph glyph-name="E" unicode="E" horiz-adv-x="544" 
d="M42 0l141 706h402l-15 -78h-310l-46 -229h307l-16 -78h-307l-48 -243h310l-16 -78h-402z" />
    <glyph glyph-name="F" unicode="F" horiz-adv-x="525" 
d="M42 0l141 706h391l-15 -78h-299l-46 -229h297l-16 -78h-297l-64 -321h-92z" />
    <glyph glyph-name="G" unicode="G" horiz-adv-x="707" 
d="M439 641q-133 0 -204.5 -108t-71.5 -268q0 -92 43.5 -146t129.5 -54q194 0 238 222v2h-184l16 80h275l-15 -78q-27 -137 -109.5 -222t-223.5 -85q-133 0 -199.5 78.5t-66.5 208.5q-1 192 101.5 321.5t275.5 129.5q125 0 187.5 -65t61.5 -187h-90q-2 171 -164 171z" />
    <glyph glyph-name="H" unicode="H" horiz-adv-x="687" 
d="M42 0l141 706h92l-61 -306h322l61 306h92l-141 -706h-92l64 320h-322l-64 -320h-92z" />
    <glyph glyph-name="I" unicode="I" horiz-adv-x="273" 
d="M42 0l141 706h92l-141 -706h-92z" />
    <glyph glyph-name="J" unicode="J" horiz-adv-x="355" 
d="M37 -3q-38 0 -67 5l17 85q23 -5 47 -5q68 0 102.5 32t49.5 109l97 483h93l-102 -510q-20 -103 -77 -151t-160 -48z" />
    <glyph glyph-name="K" unicode="K" horiz-adv-x="599" 
d="M638 706l-346 -332l247 -374h-107l-228 350l-70 -350h-92l141 706h92l-59 -294l305 294h117z" />
    <glyph glyph-name="L" unicode="L" horiz-adv-x="473" 
d="M42 0l141 706h92l-125 -624h272l-16 -82h-364z" />
    <glyph glyph-name="M" unicode="M" horiz-adv-x="855" 
d="M42 0l141 706h108l114 -560l335 560h117l-141 -706h-88l112 558l-338 -558h-46l-114 560l-113 -560h-87z" />
    <glyph glyph-name="N" unicode="N" horiz-adv-x="712" 
d="M42 0l141 706h95l232 -573l115 573h89l-141 -706h-96l-231 573l-115 -573h-89z" />
    <glyph glyph-name="O" unicode="O" horiz-adv-x="726" 
d="M336 -16q-138 0 -203 77.5t-65 208.5q0 122 42 223.5t126.5 165t196.5 63.5q138 0 203.5 -78t65.5 -207q0 -123 -42 -225t-126.5 -165t-197.5 -63zM343 65q122 0 193 111t71 262q0 93 -43.5 148t-137.5 55q-82 0 -143.5 -54.5t-91 -137.5t-29.5 -180q0 -93 44 -148.5
t137 -55.5z" />
    <glyph glyph-name="P" unicode="P" horiz-adv-x="574" 
d="M42 0l141 706h199q220 0 220 -175q0 -101 -65.5 -159t-177.5 -58h-162l-63 -314h-92zM212 389h131q78 0 121 35t43 100q0 108 -138 108h-108z" />
    <glyph glyph-name="Q" unicode="Q" horiz-adv-x="726" 
d="M702 437q0 -149 -63 -266.5t-176 -162.5l58 -129l-76 -32l-58 140q-25 -3 -51 -3q-138 0 -203 77.5t-65 208.5q0 122 42 223.5t126.5 165t196.5 63.5q138 0 203.5 -78t65.5 -207zM430 83q84 36 130.5 135.5t46.5 219.5q0 93 -43.5 148t-137.5 55q-82 0 -143.5 -54.5
t-91 -137.5t-29.5 -180q0 -93 44 -148.5t137 -55.5h12l-35 84l67 29z" />
    <glyph glyph-name="R" unicode="R" horiz-adv-x="617" 
d="M617 528q0 -94 -61.5 -150t-166.5 -61l170 -317h-100l-168 316h-93l-64 -316h-92l141 706h215q219 0 219 -178zM354 387q81 0 124.5 35.5t43.5 102.5q0 107 -139 107h-122l-49 -245h142z" />
    <glyph glyph-name="S" unicode="S" horiz-adv-x="595" 
d="M274 -16q-123 0 -182 55.5t-59 151.5q0 25 2 38h98q-3 -20 -3 -37q0 -63 37.5 -98t114.5 -35q78 0 122.5 35t44.5 95q0 23 -8.5 42t-19.5 31.5t-35.5 26t-41 20.5t-51.5 20q-9 3 -13 5q-84 32 -125.5 72.5t-41.5 111.5q0 93 69 148.5t181 55.5q107 0 163.5 -52t56.5 -139
q0 -15 -4 -43h-93q4 28 4 42q0 54 -35 86t-99 32q-68 0 -108.5 -33.5t-40.5 -86.5q0 -17 3.5 -31t14 -25.5t18.5 -19t27.5 -17t29 -14t36 -14.5t36.5 -14q92 -36 133.5 -76.5t41.5 -114.5q0 -102 -74 -160t-199 -58z" />
    <glyph glyph-name="T" unicode="T" horiz-adv-x="544" 
d="M177 0l126 628h-208l16 78h507l-15 -78h-207l-126 -628h-93z" />
    <glyph glyph-name="U" unicode="U" horiz-adv-x="643" 
d="M286 -16q-221 0 -221 185q0 42 8 79l91 458h93l-94 -471q-6 -31 -6 -57q0 -58 31.5 -85.5t100.5 -27.5q82 0 126 39t60 121l96 481h93l-101 -502q-22 -111 -89.5 -165.5t-187.5 -54.5z" />
    <glyph glyph-name="V" unicode="V" horiz-adv-x="620" 
d="M605 706h99l-395 -706h-94l-114 706h94l88 -595z" />
    <glyph glyph-name="W" unicode="W" horiz-adv-x="896" 
d="M886 706h94l-333 -706h-100l-36 579l-258 -579h-96l-56 706h87l42 -574l253 574h100l38 -572z" />
    <glyph glyph-name="X" unicode="X" horiz-adv-x="652" 
d="M-37 0l330 379l-169 327h100l133 -262l223 262h117l-295 -336l190 -370h-100l-154 301l-257 -301h-118z" />
    <glyph glyph-name="Y" unicode="Y" horiz-adv-x="563" 
d="M188 0l61 304l-148 402h93l115 -311l230 311h108l-306 -402l-61 -304h-92z" />
    <glyph glyph-name="Z" unicode="Z" horiz-adv-x="571" 
d="M-26 0l482 626h-340l16 80h492l-480 -626h367l-16 -80h-521z" />
    <glyph glyph-name="bracketleft" unicode="[" horiz-adv-x="378" 
d="M65 -201l202 1010h200l-14 -69h-123l-175 -872h123l-13 -69h-200z" />
    <glyph glyph-name="backslash" unicode="\" horiz-adv-x="454" 
d="M361 -50h-83l-148 772h83z" />
    <glyph glyph-name="bracketright" unicode="]" horiz-adv-x="378" 
d="M337 809l-202 -1010h-199l14 69h123l174 872h-123l14 69h199z" />
    <glyph glyph-name="asciicircum" unicode="^" horiz-adv-x="454" 
d="M447 374h-82l-53 267l-159 -267h-93l202 332h115z" />
    <glyph glyph-name="underscore" unicode="_" horiz-adv-x="385" 
d="M-82 -166l15 77h386l-15 -77h-386z" />
    <glyph glyph-name="grave" unicode="`" horiz-adv-x="282" 
d="M298 572h-76l-75 154h84z" />
    <glyph glyph-name="a" unicode="a" horiz-adv-x="540" 
d="M294 499q99 0 142.5 -42.5t43.5 -122.5q0 -32 -10 -82l-51 -252h-87l13 64q-65 -76 -175 -76q-75 0 -113 35.5t-38 96.5q0 166 245 166h125q6 30 6 51q0 47 -24 70.5t-79 23.5q-109 0 -125 -96h-90q14 77 70 120.5t147 43.5zM204 58q73 0 114.5 40t58.5 126h-109
q-155 0 -155 -92q0 -74 91 -74z" />
    <glyph glyph-name="b" unicode="b" horiz-adv-x="574" 
d="M358 499q91 0 133.5 -56.5t42.5 -152.5q0 -123 -70 -212t-181 -89q-123 0 -153 101l-18 -90h-85l141 706h86l-56 -280q64 73 160 73zM269 64q80 0 127 65.5t47 157.5q0 136 -113 136q-62 0 -105 -40t-57 -110q-13 -62 -13 -86q0 -59 29.5 -91t84.5 -32z" />
    <glyph glyph-name="c" unicode="c" horiz-adv-x="528" 
d="M238 -11q-100 0 -149 57t-49 152q0 126 74.5 213.5t192.5 87.5q88 0 139.5 -44.5t51.5 -124.5q0 -14 -1 -21h-91q1 5 1 13q0 48 -28 74.5t-77 26.5q-79 0 -125 -67t-46 -158q0 -134 113 -134q51 0 87.5 31t46.5 80h95q-18 -87 -82 -136.5t-153 -49.5z" />
    <glyph glyph-name="d" unicode="d" horiz-adv-x="574" 
d="M504 706h86l-141 -706h-85l13 63q-65 -75 -162 -75q-90 0 -133 57t-43 151q0 123 70.5 212.5t181.5 89.5q121 0 152 -98zM244 64q62 0 105.5 39.5t56.5 109.5q12 64 12 87q0 59 -29 90.5t-84 31.5q-80 0 -127.5 -65.5t-47.5 -156.5q0 -136 114 -136z" />
    <glyph glyph-name="e" unicode="e" horiz-adv-x="547" 
d="M502 226h-373q-1 -10 -1 -31q0 -135 126 -135q106 0 141 92h92q-25 -77 -89 -120t-147 -43q-107 0 -159 56t-52 151q0 129 73.5 216t194.5 87q93 0 146.5 -54t53.5 -152q0 -36 -6 -67zM304 429q-62 0 -103.5 -37.5t-59.5 -100.5h281v6q0 132 -118 132z" />
    <glyph glyph-name="f" unicode="f" horiz-adv-x="331" 
d="M47 0l83 415h-75l15 72h74l18 91q15 72 57.5 105.5t117.5 33.5q33 0 66 -7l-15 -72q-24 6 -43 6q-82 0 -101 -87l-14 -70h126l-15 -72h-125l-83 -415h-86z" />
    <glyph glyph-name="g" unicode="g" horiz-adv-x="573" 
d="M461 487h85l-100 -499q-39 -201 -246 -201q-100 0 -152.5 41.5t-42.5 121.5h88q-5 -45 25 -69t86 -24q129 0 157 143l12 62q-63 -70 -157 -70q-90 0 -133 55.5t-43 144.5q0 128 69.5 217t180.5 89q123 0 153 -101zM244 68q62 0 105.5 39t56.5 108q12 58 12 85
q0 59 -29.5 90.5t-84.5 31.5q-80 0 -127 -64t-47 -154q0 -62 27.5 -99t86.5 -37z" />
    <glyph glyph-name="h" unicode="h" horiz-adv-x="559" 
d="M351 499q150 0 150 -156q0 -37 -8 -72l-54 -271h-86l53 267q7 31 7 60q0 96 -95 96q-120 0 -147 -135l-58 -288h-86l141 706h86l-55 -277q58 70 152 70z" />
    <glyph glyph-name="i" unicode="i" horiz-adv-x="237" 
d="M201 593q-25 0 -41 16t-16 40q0 25 16 41t41 16q24 0 40.5 -16t16.5 -41q0 -24 -16.5 -40t-40.5 -16zM27 0l97 487h87l-98 -487h-86z" />
    <glyph glyph-name="j" unicode="j" horiz-adv-x="237" 
d="M200 593q-25 0 -41 16t-16 40q0 25 16 41t41 16q24 0 41 -16.5t17 -40.5t-17 -40t-41 -16zM-56 -204q-29 0 -53 4l15 76q12 -2 29 -2q36 0 55 17t26 56l108 540h87l-113 -564q-13 -67 -50 -97t-104 -30z" />
    <glyph glyph-name="k" unicode="k" horiz-adv-x="474" 
d="M500 487l-255 -227l185 -260h-103l-167 237l-47 -237h-86l141 706h86l-82 -411l208 192h120z" />
    <glyph glyph-name="l" unicode="l" horiz-adv-x="237" 
d="M27 0l141 706h86l-141 -706h-86z" />
    <glyph glyph-name="m" unicode="m" horiz-adv-x="858" 
d="M657 499q144 0 144 -149q0 -38 -9 -79l-54 -271h-86l53 267q6 34 6 62q0 49 -21 71.5t-65 22.5q-115 0 -141 -135l-58 -288h-87l54 267q7 39 7 58q0 98 -88 98q-114 0 -141 -135l-58 -288h-86l97 487h87l-12 -57q56 69 146 69q116 0 139 -104q62 104 173 104z" />
    <glyph glyph-name="n" unicode="n" horiz-adv-x="559" 
d="M352 499q74 0 111.5 -39t37.5 -109q0 -44 -8 -80l-54 -271h-86l53 266q7 33 7 63q0 94 -98 94q-56 0 -93.5 -34.5t-50.5 -100.5l-58 -288h-86l97 487h87l-12 -57q59 69 153 69z" />
    <glyph glyph-name="o" unicode="o" horiz-adv-x="549" 
d="M241 -12q-102 0 -151.5 58.5t-49.5 152.5q0 128 73.5 214t193.5 86q103 0 152.5 -59.5t49.5 -153.5q0 -128 -72.5 -213t-195.5 -85zM247 64q83 0 127.5 65.5t44.5 156.5q0 137 -117 137q-81 0 -126.5 -67.5t-45.5 -154.5q0 -137 117 -137z" />
    <glyph glyph-name="p" unicode="p" horiz-adv-x="574" 
d="M358 499q91 0 133.5 -57t42.5 -152q0 -123 -70 -212t-181 -89q-122 0 -153 99l-57 -289h-86l137 688h85l-13 -64q64 76 162 76zM269 64q80 0 127 65.5t47 157.5q0 136 -113 136q-62 0 -105 -40t-57 -110q-13 -62 -13 -86q0 -59 29.5 -91t84.5 -32z" />
    <glyph glyph-name="q" unicode="q" horiz-adv-x="574" 
d="M462 487h85l-138 -688h-86l52 262q-63 -73 -160 -73q-90 0 -133 57t-43 151q0 124 70.5 213t181.5 89q122 0 153 -100zM244 64q62 0 105.5 39.5t56.5 109.5q12 64 12 87q0 59 -29 90.5t-84 31.5q-80 0 -127.5 -65.5t-47.5 -156.5q0 -136 114 -136z" />
    <glyph glyph-name="r" unicode="r" horiz-adv-x="348" 
d="M333 493q23 0 49 -6l-16 -78q-20 5 -44 5q-62 0 -101.5 -38.5t-53.5 -108.5l-54 -267h-86l97 487h83l-12 -61q51 67 138 67z" />
    <glyph glyph-name="s" unicode="s" horiz-adv-x="467" 
d="M198 -12q-91 0 -135 36.5t-44 100.5q0 17 3 37h86q-3 -15 -3 -29q0 -79 99 -79q51 0 80.5 21.5t29.5 56.5q0 18 -7.5 32t-24 24.5t-31 17t-40.5 15.5q-63 22 -96 52t-33 83q0 66 51 104.5t134 38.5q80 0 121.5 -33.5t41.5 -92.5q0 -10 -2 -30h-84q3 12 3 25q0 69 -85 69
q-43 0 -69 -19.5t-26 -50.5q0 -30 25.5 -48t81.5 -38q66 -24 98.5 -55t32.5 -83q0 -73 -57.5 -114t-149.5 -41z" />
    <glyph glyph-name="t" unicode="t" horiz-adv-x="356" 
d="M203 -8q-67 0 -98.5 26.5t-31.5 83.5q0 30 7 61l50 252h-76l15 72h76l23 118h87l-24 -118h139l-14 -72h-139l-50 -252q-4 -17 -4 -36q0 -61 68 -61q23 0 54 7l-15 -74q-38 -7 -67 -7z" />
    <glyph glyph-name="u" unicode="u" horiz-adv-x="560" 
d="M446 487h86l-97 -487h-87l12 57q-59 -69 -153 -69q-74 0 -111.5 39t-37.5 109q0 44 8 80l54 271h86l-53 -266q-7 -33 -7 -63q0 -94 98 -94q56 0 93.5 34.5t50.5 100.5z" />
    <glyph glyph-name="v" unicode="v" horiz-adv-x="499" 
d="M151 0l-85 487h89l61 -386l215 386h100l-280 -487h-100z" />
    <glyph glyph-name="w" unicode="w" horiz-adv-x="752" 
d="M686 487h98l-265 -487h-87l-35 370l-177 -370h-85l-69 487h88l41 -375l184 375h78l38 -374z" />
    <glyph glyph-name="x" unicode="x" horiz-adv-x="522" 
d="M-28 0l240 252l-139 235h96l102 -177l162 177h110l-235 -243l147 -244h-97l-105 185l-168 -185h-113z" />
    <glyph glyph-name="y" unicode="y" horiz-adv-x="510" 
d="M443 487h99l-422 -688h-95l124 202l-83 486h88l61 -388z" />
    <glyph glyph-name="z" unicode="z" horiz-adv-x="458" 
d="M485 487l-352 -415h266l-15 -72h-415l357 415h-249l14 72h394z" />
    <glyph glyph-name="braceleft" unicode="{" horiz-adv-x="355" 
d="M384 809h60l-13 -66h-22q-52 0 -77 -22t-35 -68l-49 -247q-11 -54 -34 -77t-71 -27q64 -11 64 -83q0 -16 -7 -53l-43 -212q-3 -16 -3 -30q0 -60 79 -60h22l-13 -65h-37q-62 0 -93 30.5t-31 84.5q0 18 5 43l42 213q6 27 6 46q0 28 -18.5 39.5t-63.5 11.5l15 75
q59 0 81.5 20.5t33.5 77.5l49 243q12 57 51 91.5t102 34.5z" />
    <glyph glyph-name="bar" unicode="|" horiz-adv-x="415" 
d="M74 -201l191 957h89l-191 -957h-89z" />
    <glyph glyph-name="braceright" unicode="}" horiz-adv-x="356" 
d="M246 392q0 -29 18.5 -40.5t63.5 -11.5l-15 -74q-59 0 -81.5 -20.5t-33.5 -77.5l-49 -244q-12 -57 -51 -91t-102 -34h-60l13 66h22q52 0 77 22t35 68l49 247q11 54 33.5 77t70.5 27q-63 11 -63 83q0 16 7 53l43 211q3 18 3 31q0 60 -79 60h-22l13 65h37q63 0 93.5 -30.5
t30.5 -85.5q0 -17 -5 -42l-42 -213q-6 -27 -6 -46z" />
    <glyph glyph-name="asciitilde" unicode="~" horiz-adv-x="577" 
d="M380 188q-24 0 -44 10.5t-30.5 21t-25.5 30.5q-18 26 -32.5 38t-35.5 12q-32 0 -52.5 -28.5t-35.5 -80.5h-70q49 188 161 188q24 0 44.5 -10.5t30 -21t24.5 -29.5q14 -19 21.5 -27.5t20 -16t27.5 -7.5q32 0 52 27.5t36 80.5h70q-50 -187 -161 -187z" />
    <glyph glyph-name="uni00A0" unicode="&#xa0;" horiz-adv-x="182" 
 />
    <glyph glyph-name="exclamdown" unicode="&#xa1;" horiz-adv-x="278" 
d="M182 519q28 0 45 -16.5t17 -43.5q0 -28 -17 -45t-45 -17q-27 0 -44.5 17.5t-17.5 44.5t17.5 43.5t44.5 16.5zM189 312l-91 -513h-96l114 513h73z" />
    <glyph glyph-name="cent" unicode="&#xa2;" horiz-adv-x="527" 
d="M519 419h-89q1 5 1 13q0 87 -80 101l-73 -360q49 4 82 35t42 78h92q-19 -87 -81 -136.5t-149 -50.5l-19 -99h-50l20 103q-78 12 -115.5 67t-37.5 138q0 123 70.5 209.5t183.5 91.5l20 97h50l-20 -99q72 -9 113 -52.5t41 -114.5q0 -13 -1 -21zM150 308q0 -113 81 -131
l72 357q-71 -10 -112 -75.5t-41 -150.5z" />
    <glyph glyph-name="sterling" unicode="&#xa3;" horiz-adv-x="615" 
d="M613 468h-86q5 33 5 56q0 61 -25.5 92t-87.5 31q-74 0 -109 -42.5t-52 -126.5l-20 -97h193l-11 -55h-193l-51 -255h102q96 0 143 45t66 137h85q-14 -66 -33.5 -111t-51.5 -78t-80 -48.5t-116 -15.5h-300l15 71h78l51 255h-78l10 55h79l21 107q22 116 80.5 175t174.5 59
q106 0 151.5 -47t45.5 -138q0 -31 -6 -69z" />
    <glyph glyph-name="currency" unicode="&#xa4;" horiz-adv-x="550" 
d="M514 378q0 -115 -84 -186l61 -95h-78l-39 60q-50 -21 -104 -21q-69 0 -116 33l-76 -72h-76l113 111q-36 48 -36 120q0 116 85 187l-61 94h78l38 -59q50 21 104 21q68 0 117 -34l74 72h78l-114 -111q36 -49 36 -120zM277 204q73 0 118.5 50.5t45.5 120.5q0 57 -33 92.5
t-92 35.5q-73 0 -118.5 -50t-45.5 -121q0 -57 33 -92.5t92 -35.5z" />
    <glyph glyph-name="yen" unicode="&#xa5;" horiz-adv-x="558" 
d="M646 706l-295 -364h175l-11 -52h-179l-16 -80h179l-10 -53h-179l-31 -157h-94l31 157h-181l11 53h180l16 80h-180l10 52h176l-150 364h91l117 -292l232 292h108z" />
    <glyph glyph-name="brokenbar" unicode="&#xa6;" horiz-adv-x="415" 
d="M200 428l65 328h89l-65 -328h-89zM74 -201l66 329h89l-66 -329h-89z" />
    <glyph glyph-name="section" unicode="&#xa7;" horiz-adv-x="491" 
d="M497 559h-84q1 6 1 19q0 80 -94 80q-51 0 -81.5 -24.5t-30.5 -65.5q0 -21 6.5 -37t24 -30.5t28.5 -21t38 -21.5q7 -4 11 -6q68 -36 100 -73.5t32 -95.5q0 -75 -48 -122.5t-128 -57.5q51 -28 78.5 -61t27.5 -88q0 -77 -57.5 -122t-149.5 -45q-177 0 -177 143q0 18 1 28h86
q-1 -9 -1 -25q0 -81 93 -81q57 0 86.5 27t29.5 74q0 42 -25 65t-79 50q-68 33 -102 70.5t-34 98.5q0 74 52.5 119.5t137.5 50.5q-37 22 -58 39t-39 48t-18 70q0 73 55 115.5t142 42.5q88 0 132.5 -37.5t44.5 -104.5q0 -13 -1 -21zM238 154q58 0 93 32t35 82q0 43 -27 66
t-79 23q-59 0 -94.5 -30t-35.5 -80q0 -43 28 -68t80 -25z" />
    <glyph glyph-name="dieresis" unicode="&#xa8;" horiz-adv-x="402" 
d="M186 586q-24 0 -40 15.5t-16 38.5q0 24 16 40t40 16q23 0 39.5 -16t16.5 -40q0 -23 -16.5 -38.5t-39.5 -15.5zM376 586q-25 0 -40.5 15.5t-15.5 38.5q0 24 15.5 40t40.5 16q23 0 39.5 -16t16.5 -40q0 -23 -16.5 -38.5t-39.5 -15.5z" />
    <glyph glyph-name="copyright" unicode="&#xa9;" horiz-adv-x="812" 
d="M392 -16q-152 0 -236.5 88t-84.5 233q0 173 113 295t281 122q151 0 235.5 -87t84.5 -231q0 -175 -112 -297.5t-281 -122.5zM394 32q149 0 244.5 108.5t95.5 263.5q0 123 -71 196t-199 73q-149 0 -245.5 -107.5t-96.5 -260.5q0 -124 71.5 -198.5t200.5 -74.5zM398 108
q-85 0 -134 55t-49 154q0 118 65 200t176 82q86 0 135.5 -48.5t45.5 -136.5h-77q2 56 -27 87t-81 31q-77 0 -119 -65t-42 -153q0 -136 109 -136q52 0 88 30.5t48 82.5h78q-18 -86 -76 -134.5t-140 -48.5z" />
    <glyph glyph-name="ordfeminine" unicode="&#xaa;" horiz-adv-x="385" 
d="M264 716q138 0 138 -114q0 -24 -6 -54l-37 -182h-70l9 42q-47 -50 -118 -50q-54 0 -81 25.5t-27 70.5q0 62 47 90.5t125 28.5h85q4 16 4 31q0 30 -16.5 45t-55.5 15q-65 0 -76 -63h-72q21 115 151 115zM210 413q46 0 72.5 27t38.5 85h-74q-99 0 -99 -62q0 -50 62 -50z
" />
    <glyph glyph-name="guillemotleft" unicode="&#xab;" horiz-adv-x="491" 
d="M148 119l-119 164l181 159h101l-188 -166l114 -157h-89zM351 119l-119 164l181 159h101l-188 -166l114 -157h-89z" />
    <glyph glyph-name="logicalnot" unicode="&#xac;" horiz-adv-x="577" 
d="M410 48l62 307h-396l15 71h468l-76 -378h-73z" />
    <glyph glyph-name="uni00AD" unicode="&#xad;" horiz-adv-x="387" 
d="M54 245l16 78h279l-16 -78h-279z" />
    <glyph glyph-name="registered" unicode="&#xae;" horiz-adv-x="492" 
d="M320 720q90 0 136.5 -51t46.5 -134q0 -99 -61.5 -165t-161.5 -66q-90 0 -137 52t-47 135q0 97 63 163t161 66zM280 339q87 0 136.5 56t49.5 141q0 70 -36.5 109.5t-109.5 39.5q-85 0 -136 -55.5t-51 -137.5q0 -70 37.5 -111.5t109.5 -41.5zM324 636q90 0 90 -67
q0 -55 -54 -68q26 -12 26 -46q0 -9 -2 -23l-9 -45h-47l9 46q3 12 3 20q0 17 -10 24.5t-33 7.5h-48l-20 -98h-48l51 249h92zM313 522q53 0 53 40q0 36 -46 36h-48l-15 -76h56z" />
    <glyph glyph-name="macron" unicode="&#xaf;" horiz-adv-x="383" 
d="M123 609l12 61h283l-12 -61h-283z" />
    <glyph glyph-name="degree" unicode="&#xb0;" horiz-adv-x="317" 
d="M227 459q-61 0 -99 37t-38 94q0 59 38 95.5t99 36.5q62 0 100.5 -37t38.5 -95q0 -57 -39 -94t-100 -37zM228 520q32 0 51 19t19 51q0 33 -19 53t-51 20t-51 -20t-19 -53q0 -32 19 -51t51 -19z" />
    <glyph glyph-name="plusminus" unicode="&#xb1;" horiz-adv-x="577" 
d="M353 380h197l-15 -73h-196l-33 -164h-75l33 164h-197l15 73h196l32 161h75zM11 28l15 72h468l-14 -72h-469z" />
    <glyph glyph-name="uni00B2" unicode="&#xb2;" horiz-adv-x="353" 
d="M60 438l1 4l204 172q43 37 61 59.5t18 51.5q0 53 -65 53q-71 0 -88 -80h-69q12 64 52 101t107 37q66 0 99.5 -28t33.5 -79q0 -39 -19.5 -68t-58.5 -61l-120 -97h156l-13 -65h-299z" />
    <glyph glyph-name="uni00B3" unicode="&#xb3;" horiz-adv-x="370" 
d="M423 735q0 -72 -84 -97q57 -19 57 -82q0 -60 -45 -94t-117 -34q-141 0 -141 117q0 16 3 34h65q-3 -13 -3 -25q0 -69 77 -69q42 0 66.5 20t24.5 54q0 56 -79 56h-14l10 50h21q88 0 88 62q0 52 -66 52q-76 0 -92 -75h-65q11 60 54.5 96t113.5 36q61 0 93.5 -27.5
t32.5 -73.5z" />
    <glyph glyph-name="acute" unicode="&#xb4;" horiz-adv-x="283" 
d="M116 572l119 154h95l-127 -154h-87z" />
    <glyph glyph-name="uni00B5" unicode="&#xb5;" horiz-adv-x="563" 
d="M451 487h85l-97 -487h-84l12 63q-60 -75 -154 -75q-72 0 -101 43q-6 -59 -18 -118l-22 -114h-85l137 688h85l-56 -282q-6 -24 -6 -55q0 -45 22.5 -66t69.5 -21q126 0 156 140z" />
    <glyph glyph-name="paragraph" unicode="&#xb6;" horiz-adv-x="651" 
d="M208 -201l101 505h-35q-196 0 -196 181q0 105 59.5 163t169.5 58h418l-15 -74h-67l-167 -833h-80l167 833h-109l-166 -833h-80z" />
    <glyph glyph-name="periodcentered" unicode="&#xb7;" horiz-adv-x="278" 
d="M148 228q-28 0 -45 17t-17 44t17 44t45 17q27 0 44.5 -17t17.5 -44t-17.5 -44t-44.5 -17z" />
    <glyph glyph-name="cedilla" unicode="&#xb8;" horiz-adv-x="302" 
d="M86 -49q43 -3 66.5 -24.5t23.5 -55.5q0 -45 -35.5 -68t-93.5 -23q-53 0 -87 17l20 49q31 -13 65 -13q30 0 47.5 11t17.5 30q0 36 -74 36h-34l45 95h66z" />
    <glyph glyph-name="uni00B9" unicode="&#xb9;" horiz-adv-x="264" 
d="M143 438l65 323h-78l24 65h140l-78 -388h-73z" />
    <glyph glyph-name="ordmasculine" unicode="&#xba;" horiz-adv-x="390" 
d="M233 359q-74 0 -110 41t-36 110q0 87 52 146.5t135 59.5q74 0 110 -41t36 -110q0 -86 -52.5 -146t-134.5 -60zM236 420q52 0 81.5 43t29.5 102q0 90 -76 90q-52 0 -81.5 -43t-29.5 -102q0 -90 76 -90z" />
    <glyph glyph-name="guillemotright" unicode="&#xbb;" horiz-adv-x="491" 
d="M154 442l119 -163l-181 -160h-100l188 166l-115 157h89zM357 442l119 -163l-181 -160h-100l188 166l-115 157h89z" />
    <glyph glyph-name="onequarter" unicode="&#xbc;" horiz-adv-x="790" 
d="M72 0l553 706h71l-551 -706h-73zM119 318l65 323h-78l24 65h140l-78 -388h-73zM599 0l19 92h-231v2l230 294h130l-48 -235h58l-12 -61h-58l-18 -92h-70zM508 153h122l42 211z" />
    <glyph glyph-name="onehalf" unicode="&#xbd;" horiz-adv-x="806" 
d="M72 0l553 706h71l-551 -706h-73zM119 318l65 323h-78l24 65h140l-78 -388h-73zM425 0l1 4l204 172q43 37 61 59.5t18 51.5q0 53 -65 53q-71 0 -88 -80h-69q12 64 52 101t107 37q66 0 99.5 -28t33.5 -79q0 -39 -19.5 -68t-58.5 -61l-120 -97h156l-13 -65h-299z" />
    <glyph glyph-name="threequarters" unicode="&#xbe;" horiz-adv-x="892" 
d="M372 436q0 -60 -45 -94t-117 -34q-141 0 -141 117q0 16 3 34h65q-3 -13 -3 -25q0 -69 77 -69q42 0 66.5 20t24.5 54q0 56 -79 56h-14l10 50h21q88 0 88 62q0 52 -66 52q-76 0 -92 -75h-65q11 60 54.5 96t113.5 36q61 0 93.5 -27.5t32.5 -73.5q0 -72 -84 -97
q57 -19 57 -82zM727 706h71l-551 -706h-73zM801 153h58l-12 -61h-58l-18 -92h-70l19 92h-231v2l230 294h130zM732 153l42 211l-164 -211h122z" />
    <glyph glyph-name="questiondown" unicode="&#xbf;" horiz-adv-x="494" 
d="M299 524q28 0 45 -17t17 -43q0 -28 -17 -45t-45 -17q-27 0 -44.5 17.5t-17.5 44.5q0 26 18 43t44 17zM323 317q-148 -168 -189 -227q-58 -83 -58 -139q0 -41 25 -66t81 -25q66 0 96 34.5t44 101.5h87q-19 -101 -74 -154.5t-158 -53.5q-95 0 -144.5 44t-49.5 119
q0 47 31 106t63 99t121 143l15 18h110z" />
    <glyph glyph-name="Agrave" unicode="&#xc0;" horiz-adv-x="630" 
d="M497 777h-84l-104 128h92zM481 0l-23 177h-305l-94 -177h-99l378 706h139l96 -706h-92zM193 252h256l-50 386h-2z" />
    <glyph glyph-name="Aacute" unicode="&#xc1;" horiz-adv-x="630" 
d="M580 905l-141 -128h-97l133 128h105zM338 706h139l96 -706h-92l-23 177h-305l-94 -177h-99zM193 252h256l-50 386h-2z" />
    <glyph glyph-name="Acircumflex" unicode="&#xc2;" horiz-adv-x="630" 
d="M442 863l-98 -86h-95l143 128h106l92 -128h-83zM338 706h139l96 -706h-92l-23 177h-305l-94 -177h-99zM193 252h256l-50 386h-2z" />
    <glyph glyph-name="Atilde" unicode="&#xc3;" horiz-adv-x="630" 
d="M570 906h58q-33 -133 -127 -133q-45 0 -80 39q-2 2 -6.5 7t-7 7t-6.5 5.5t-6.5 5.5t-7 4.5t-8 3.5t-8.5 2t-10 1q-46 0 -67 -73h-58q31 133 128 133q44 0 82 -40q25 -28 40 -33q7 -2 15 -2q46 0 69 73zM338 706h139l96 -706h-92l-23 177h-305l-94 -177h-99zM193 252h256
l-50 386h-2z" />
    <glyph glyph-name="Adieresis" unicode="&#xc4;" horiz-adv-x="630" 
d="M327 797q-24 0 -39.5 15t-15.5 38t15.5 38.5t39.5 15.5q23 0 39 -15.5t16 -38.5t-16 -38t-39 -15zM535 904q23 0 39.5 -15.5t16.5 -38.5t-16 -38t-40 -15t-39.5 15t-15.5 38t15.5 38.5t39.5 15.5zM338 706h139l96 -706h-92l-23 177h-305l-94 -177h-99zM193 252h256
l-50 386h-2z" />
    <glyph glyph-name="Aring" unicode="&#xc5;" horiz-adv-x="630" 
d="M423 744q-51 0 -81.5 29t-30.5 78q0 47 30.5 76.5t81.5 29.5t82.5 -29.5t31.5 -76.5q0 -48 -31 -77.5t-83 -29.5zM423 908q-26 0 -42 -15.5t-16 -41.5t16 -42t42 -16q27 0 43 16t16 42q0 25 -16.5 41t-42.5 16zM481 0l-23 177h-305l-94 -177h-99l378 706h139l96 -706h-92
zM193 252h256l-50 386h-2z" />
    <glyph glyph-name="AE" unicode="&#xc6;" horiz-adv-x="787" 
d="M813 628h-291l-18 -229h260l-16 -78h-250l-19 -243h224l-16 -78h-308l15 179h-227l-104 -179h-103l418 706h450zM401 254l32 379h-2l-220 -379h190z" />
    <glyph glyph-name="Ccedilla" unicode="&#xc7;" horiz-adv-x="700" 
d="M692 451h-92q1 9 1 20q0 79 -45.5 124.5t-124.5 45.5q-84 0 -146.5 -53.5t-92 -135t-29.5 -175.5q0 -100 43 -156t133 -56q85 0 140.5 47t77.5 129h97q-24 -116 -106 -184t-198 -73l-17 -33q43 -3 66.5 -24.5t23.5 -55.5q0 -45 -35.5 -68t-93.5 -23q-53 0 -87 17l20 49
q31 -13 65 -13q30 0 47.5 11t17.5 30q0 36 -74 36h-34l36 77q-111 14 -164 90t-53 199q0 89 25.5 169.5t72 142t117.5 98t156 36.5q119 0 187 -66.5t68 -178.5q0 -4 -2 -26z" />
    <glyph glyph-name="Egrave" unicode="&#xc8;" horiz-adv-x="544" 
d="M469 777h-84l-104 128h92zM42 0l141 706h402l-15 -78h-310l-46 -229h307l-16 -78h-307l-48 -243h310l-16 -78h-402z" />
    <glyph glyph-name="Eacute" unicode="&#xc9;" horiz-adv-x="544" 
d="M314 777l133 128h105l-141 -128h-97zM42 0l141 706h402l-15 -78h-310l-46 -229h307l-16 -78h-307l-48 -243h310l-16 -78h-402z" />
    <glyph glyph-name="Ecircumflex" unicode="&#xca;" horiz-adv-x="544" 
d="M220 777l143 128h106l92 -128h-83l-65 86l-98 -86h-95zM42 0l141 706h402l-15 -78h-310l-46 -229h307l-16 -78h-307l-48 -243h310l-16 -78h-402z" />
    <glyph glyph-name="Edieresis" unicode="&#xcb;" horiz-adv-x="544" 
d="M299 797q-24 0 -39.5 15t-15.5 38t15.5 38.5t39.5 15.5q23 0 39 -15.5t16 -38.5t-16 -38t-39 -15zM507 797q-24 0 -39.5 15t-15.5 38t15.5 38.5t39.5 15.5q23 0 39.5 -15.5t16.5 -38.5t-16 -38t-40 -15zM42 0l141 706h402l-15 -78h-310l-46 -229h307l-16 -78h-307
l-48 -243h310l-16 -78h-402z" />
    <glyph glyph-name="Igrave" unicode="&#xcc;" horiz-adv-x="273" 
d="M321 777h-84l-104 128h92zM42 0l141 706h92l-141 -706h-92z" />
    <glyph glyph-name="Iacute" unicode="&#xcd;" horiz-adv-x="273" 
d="M166 777l133 128h105l-141 -128h-97zM42 0l141 706h92l-141 -706h-92z" />
    <glyph glyph-name="Icircumflex" unicode="&#xce;" horiz-adv-x="273" 
d="M107 777l108 128h99l60 -128h-75l-38 85l-72 -85h-82zM42 0l141 706h92l-141 -706h-92z" />
    <glyph glyph-name="Idieresis" unicode="&#xcf;" horiz-adv-x="273" 
d="M178 790q-22 0 -36.5 14t-14.5 35q0 22 14.5 37t36.5 15q21 0 35.5 -15t14.5 -37q0 -21 -14.5 -35t-35.5 -14zM322 789q-22 0 -36.5 14t-14.5 35q0 23 14.5 37.5t36.5 14.5q21 0 35.5 -15t14.5 -37q0 -21 -14.5 -35t-35.5 -14zM42 0l141 706h92l-141 -706h-92z" />
    <glyph glyph-name="Eth" unicode="&#xd0;" horiz-adv-x="690" 
d="M364 706q300 0 300 -287q0 -185 -103 -302t-281 -117h-238l65 326h-58l13 67h58l63 313h181zM270 78q145 0 221.5 93.5t76.5 244.5q0 102 -48.5 157t-159.5 55h-100l-47 -235h170l-13 -67h-170l-50 -248h120z" />
    <glyph glyph-name="Ntilde" unicode="&#xd1;" horiz-adv-x="712" 
d="M541 773q-45 0 -80 39q-2 2 -6.5 7t-7 7t-6.5 5.5t-6.5 5.5t-7 4.5t-8 3.5t-8.5 2t-10 1q-46 0 -67 -73h-58q31 133 128 133q44 0 82 -40q25 -28 40 -33q7 -2 15 -2q46 0 69 73h58q-33 -133 -127 -133zM42 0l141 706h95l232 -573l115 573h89l-141 -706h-96l-231 573
l-115 -573h-89z" />
    <glyph glyph-name="Ograve" unicode="&#xd2;" horiz-adv-x="726" 
d="M543 777h-84l-104 128h92zM336 -16q-138 0 -203 77.5t-65 208.5q0 122 42 223.5t126.5 165t196.5 63.5q138 0 203.5 -78t65.5 -207q0 -123 -42 -225t-126.5 -165t-197.5 -63zM343 65q122 0 193 111t71 262q0 93 -43.5 148t-137.5 55q-82 0 -143.5 -54.5t-91 -137.5
t-29.5 -180q0 -93 44 -148.5t137 -55.5z" />
    <glyph glyph-name="Oacute" unicode="&#xd3;" horiz-adv-x="726" 
d="M388 777l133 128h105l-141 -128h-97zM336 -16q-138 0 -203 77.5t-65 208.5q0 122 42 223.5t126.5 165t196.5 63.5q138 0 203.5 -78t65.5 -207q0 -123 -42 -225t-126.5 -165t-197.5 -63zM343 65q122 0 193 111t71 262q0 93 -43.5 148t-137.5 55q-82 0 -143.5 -54.5
t-91 -137.5t-29.5 -180q0 -93 44 -148.5t137 -55.5z" />
    <glyph glyph-name="Ocircumflex" unicode="&#xd4;" horiz-adv-x="726" 
d="M295 777l143 128h106l92 -128h-83l-65 86l-98 -86h-95zM336 -16q-138 0 -203 77.5t-65 208.5q0 122 42 223.5t126.5 165t196.5 63.5q138 0 203.5 -78t65.5 -207q0 -123 -42 -225t-126.5 -165t-197.5 -63zM343 65q122 0 193 111t71 262q0 93 -43.5 148t-137.5 55
q-82 0 -143.5 -54.5t-91 -137.5t-29.5 -180q0 -93 44 -148.5t137 -55.5z" />
    <glyph glyph-name="Otilde" unicode="&#xd5;" horiz-adv-x="726" 
d="M547 773q-45 0 -80 39q-2 2 -6.5 7t-7 7t-6.5 5.5t-6.5 5.5t-7 4.5t-8 3.5t-8.5 2t-10 1q-46 0 -67 -73h-58q31 133 128 133q44 0 82 -40q25 -28 40 -33q7 -2 15 -2q46 0 69 73h58q-33 -133 -127 -133zM336 -16q-138 0 -203 77.5t-65 208.5q0 122 42 223.5t126.5 165
t196.5 63.5q138 0 203.5 -78t65.5 -207q0 -123 -42 -225t-126.5 -165t-197.5 -63zM343 65q122 0 193 111t71 262q0 93 -43.5 148t-137.5 55q-82 0 -143.5 -54.5t-91 -137.5t-29.5 -180q0 -93 44 -148.5t137 -55.5z" />
    <glyph glyph-name="Odieresis" unicode="&#xd6;" horiz-adv-x="726" 
d="M373 797q-24 0 -39.5 15t-15.5 38t15.5 38.5t39.5 15.5q23 0 39 -15.5t16 -38.5t-16 -38t-39 -15zM581 797q-24 0 -39.5 15t-15.5 38t15.5 38.5t39.5 15.5q23 0 39.5 -15.5t16.5 -38.5t-16 -38t-40 -15zM336 -16q-138 0 -203 77.5t-65 208.5q0 122 42 223.5t126.5 165
t196.5 63.5q138 0 203.5 -78t65.5 -207q0 -123 -42 -225t-126.5 -165t-197.5 -63zM343 65q122 0 193 111t71 262q0 93 -43.5 148t-137.5 55q-82 0 -143.5 -54.5t-91 -137.5t-29.5 -180q0 -93 44 -148.5t137 -55.5z" />
    <glyph glyph-name="multiply" unicode="&#xd7;" horiz-adv-x="577" 
d="M545 444l-198 -165l128 -160l-56 -46l-127 160l-198 -165l-46 57l198 165l-127 161l55 45l127 -160l198 165z" />
    <glyph glyph-name="Oslash" unicode="&#xd8;" horiz-adv-x="726" 
d="M795 706l-124 -115q31 -65 31 -154q0 -123 -42 -225t-126.5 -165t-197.5 -63q-144 0 -212 89l-77 -73h-80l130 119q-29 62 -29 151q0 122 42 223.5t126.5 165t196.5 63.5q142 0 210 -86l72 70h80zM426 641q-82 0 -143.5 -54.5t-91 -137.5t-29.5 -180q0 -46 10 -82
l400 388q-45 66 -146 66zM343 65q122 0 193 111t71 262q0 45 -11 86l-402 -387q45 -72 149 -72z" />
    <glyph glyph-name="Ugrave" unicode="&#xd9;" horiz-adv-x="643" 
d="M505 777h-84l-104 128h92zM286 -16q-221 0 -221 185q0 42 8 79l91 458h93l-94 -471q-6 -31 -6 -57q0 -58 31.5 -85.5t100.5 -27.5q82 0 126 39t60 121l96 481h93l-101 -502q-22 -111 -89.5 -165.5t-187.5 -54.5z" />
    <glyph glyph-name="Uacute" unicode="&#xda;" horiz-adv-x="643" 
d="M350 777l133 128h105l-141 -128h-97zM286 -16q-221 0 -221 185q0 42 8 79l91 458h93l-94 -471q-6 -31 -6 -57q0 -58 31.5 -85.5t100.5 -27.5q82 0 126 39t60 121l96 481h93l-101 -502q-22 -111 -89.5 -165.5t-187.5 -54.5z" />
    <glyph glyph-name="Ucircumflex" unicode="&#xdb;" horiz-adv-x="643" 
d="M257 777l143 128h106l92 -128h-83l-65 86l-98 -86h-95zM286 -16q-221 0 -221 185q0 42 8 79l91 458h93l-94 -471q-6 -31 -6 -57q0 -58 31.5 -85.5t100.5 -27.5q82 0 126 39t60 121l96 481h93l-101 -502q-22 -111 -89.5 -165.5t-187.5 -54.5z" />
    <glyph glyph-name="Udieresis" unicode="&#xdc;" horiz-adv-x="643" 
d="M335 797q-24 0 -39.5 15t-15.5 38t15.5 38.5t39.5 15.5q23 0 39 -15.5t16 -38.5t-16 -38t-39 -15zM543 797q-24 0 -39.5 15t-15.5 38t15.5 38.5t39.5 15.5q23 0 39.5 -15.5t16.5 -38.5t-16 -38t-40 -15zM286 -16q-221 0 -221 185q0 42 8 79l91 458h93l-94 -471
q-6 -31 -6 -57q0 -58 31.5 -85.5t100.5 -27.5q82 0 126 39t60 121l96 481h93l-101 -502q-22 -111 -89.5 -165.5t-187.5 -54.5z" />
    <glyph glyph-name="Yacute" unicode="&#xdd;" horiz-adv-x="563" 
d="M302 777l133 128h105l-141 -128h-97zM188 0l61 304l-148 402h93l115 -311l230 311h108l-306 -402l-61 -304h-92z" />
    <glyph glyph-name="Thorn" unicode="&#xde;" horiz-adv-x="574" 
d="M42 0l141 706h92l-24 -121h89q232 0 232 -200q0 -119 -72 -187t-195 -68h-144l-27 -130h-92zM176 207h114q89 0 138 44.5t49 126.5q0 130 -151 130h-90z" />
    <glyph glyph-name="germandbls" unicode="&#xdf;" horiz-adv-x="566" 
d="M412 392q103 -38 103 -165q0 -108 -75.5 -168t-207.5 -60q-26 0 -54 2l14 71q4 0 17 -0.5t21 -0.5q93 0 144 41.5t51 117.5q0 60 -35.5 94t-108.5 34h-30l13 68h43q72 0 116.5 34.5t44.5 93.5q0 47 -26 73.5t-80 26.5q-67 0 -100.5 -40t-47.5 -111l-101 -503h-86l102 514
q43 208 238 208q94 0 140.5 -45t46.5 -121q0 -64 -38 -107.5t-104 -56.5z" />
    <glyph glyph-name="agrave" unicode="&#xe0;" horiz-adv-x="540" 
d="M396 572h-76l-75 154h84zM294 499q99 0 142.5 -42.5t43.5 -122.5q0 -32 -10 -82l-51 -252h-87l13 64q-65 -76 -175 -76q-75 0 -113 35.5t-38 96.5q0 166 245 166h125q6 30 6 51q0 47 -24 70.5t-79 23.5q-109 0 -125 -96h-90q14 77 70 120.5t147 43.5zM204 58
q73 0 114.5 40t58.5 126h-109q-155 0 -155 -92q0 -74 91 -74z" />
    <glyph glyph-name="aacute" unicode="&#xe1;" horiz-adv-x="540" 
d="M475 726l-127 -154h-87l119 154h95zM294 499q99 0 142.5 -42.5t43.5 -122.5q0 -32 -10 -82l-51 -252h-87l13 64q-65 -76 -175 -76q-75 0 -113 35.5t-38 96.5q0 166 245 166h125q6 30 6 51q0 47 -24 70.5t-79 23.5q-109 0 -125 -96h-90q14 77 70 120.5t147 43.5zM204 58
q73 0 114.5 40t58.5 126h-109q-155 0 -155 -92q0 -74 91 -74z" />
    <glyph glyph-name="acircumflex" unicode="&#xe2;" horiz-adv-x="540" 
d="M353 684l-96 -113h-85l135 156h104l72 -156h-79zM294 499q99 0 142.5 -42.5t43.5 -122.5q0 -32 -10 -82l-51 -252h-87l13 64q-65 -76 -175 -76q-75 0 -113 35.5t-38 96.5q0 166 245 166h125q6 30 6 51q0 47 -24 70.5t-79 23.5q-109 0 -125 -96h-90q14 77 70 120.5
t147 43.5zM204 58q73 0 114.5 40t58.5 126h-109q-155 0 -155 -92q0 -74 91 -74z" />
    <glyph glyph-name="atilde" unicode="&#xe3;" horiz-adv-x="540" 
d="M280 666q-21 0 -34.5 -22.5t-26.5 -71.5h-59q18 82 47 119.5t76 37.5q45 0 74 -50l7 -10.5t6.5 -10t6 -8.5t7 -8t7 -5t9 -4t9.5 -1q21 0 33.5 22t25.5 73h59q-18 -83 -45.5 -120.5t-77.5 -37.5q-48 0 -74 48q-1 2 -4.5 7.5t-4.5 7.5t-4 7t-4.5 6.5t-4 5.5t-4.5 5.5t-5 4
t-6 3t-6 1.5t-7 1zM294 499q99 0 142.5 -42.5t43.5 -122.5q0 -32 -10 -82l-51 -252h-87l13 64q-65 -76 -175 -76q-75 0 -113 35.5t-38 96.5q0 166 245 166h125q6 30 6 51q0 47 -24 70.5t-79 23.5q-109 0 -125 -96h-90q14 77 70 120.5t147 43.5zM204 58q73 0 114.5 40
t58.5 126h-109q-155 0 -155 -92q0 -74 91 -74z" />
    <glyph glyph-name="adieresis" unicode="&#xe4;" horiz-adv-x="540" 
d="M248 586q-24 0 -40 15.5t-16 38.5q0 24 16 40t40 16q23 0 39.5 -16t16.5 -40q0 -23 -16.5 -38.5t-39.5 -15.5zM438 586q-25 0 -40.5 15.5t-15.5 38.5q0 24 15.5 40t40.5 16q23 0 39.5 -16t16.5 -40q0 -23 -16.5 -38.5t-39.5 -15.5zM294 499q99 0 142.5 -42.5t43.5 -122.5
q0 -32 -10 -82l-51 -252h-87l13 64q-65 -76 -175 -76q-75 0 -113 35.5t-38 96.5q0 166 245 166h125q6 30 6 51q0 47 -24 70.5t-79 23.5q-109 0 -125 -96h-90q14 77 70 120.5t147 43.5zM204 58q73 0 114.5 40t58.5 126h-109q-155 0 -155 -92q0 -74 91 -74z" />
    <glyph glyph-name="aring" unicode="&#xe5;" horiz-adv-x="540" 
d="M339 554q-51 0 -81.5 29.5t-30.5 77.5t30.5 77t81.5 29q52 0 83 -29.5t31 -76.5q0 -48 -31 -77.5t-83 -29.5zM339 718q-26 0 -41.5 -15.5t-15.5 -41.5t15.5 -42t41.5 -16q27 0 43 16t16 42q0 25 -16.5 41t-42.5 16zM294 499q99 0 142.5 -42.5t43.5 -122.5q0 -32 -10 -82
l-51 -252h-87l13 64q-65 -76 -175 -76q-75 0 -113 35.5t-38 96.5q0 166 245 166h125q6 30 6 51q0 47 -24 70.5t-79 23.5q-109 0 -125 -96h-90q14 77 70 120.5t147 43.5zM204 58q73 0 114.5 40t58.5 126h-109q-155 0 -155 -92q0 -74 91 -74z" />
    <glyph glyph-name="ae" unicode="&#xe6;" horiz-adv-x="860" 
d="M815 225h-351q-1 -10 -1 -30q0 -135 113 -135q99 0 131 92h92q-24 -78 -84.5 -120.5t-141.5 -42.5q-140 0 -179 118q-69 -119 -214 -119q-80 0 -120.5 35.5t-40.5 97.5q0 166 245 166h125q7 29 7 50q0 47 -24.5 70.5t-79.5 23.5q-108 0 -126 -96h-89q14 77 70 120.5
t147 43.5q126 0 164 -77q67 77 172 77q87 0 138.5 -54t51.5 -152q0 -35 -5 -68zM627 429q-59 0 -97.5 -39t-55.5 -103h260v10q0 132 -107 132zM204 58q73 0 114.5 40.5t59.5 126.5h-109q-156 0 -156 -93q0 -74 91 -74z" />
    <glyph glyph-name="ccedilla" unicode="&#xe7;" horiz-adv-x="528" 
d="M497 309h-91q1 5 1 13q0 48 -28 74.5t-77 26.5q-79 0 -125 -67t-46 -158q0 -134 113 -134q51 0 87.5 31t46.5 80h95q-18 -83 -76 -131.5t-141 -53.5l-19 -39q43 -3 66.5 -24.5t23.5 -55.5q0 -45 -35.5 -68t-93.5 -23q-53 0 -87 17l20 49q31 -13 65 -13q30 0 47.5 11
t17.5 30q0 36 -74 36h-34l39 83q-77 13 -114.5 67.5t-37.5 137.5q0 126 74.5 213.5t192.5 87.5q88 0 139.5 -44.5t51.5 -124.5q0 -14 -1 -21z" />
    <glyph glyph-name="egrave" unicode="&#xe8;" horiz-adv-x="547" 
d="M405 572h-76l-75 154h84zM502 226h-373q-1 -10 -1 -31q0 -135 126 -135q106 0 141 92h92q-25 -77 -89 -120t-147 -43q-107 0 -159 56t-52 151q0 129 73.5 216t194.5 87q93 0 146.5 -54t53.5 -152q0 -36 -6 -67zM304 429q-62 0 -103.5 -37.5t-59.5 -100.5h281v6
q0 132 -118 132z" />
    <glyph glyph-name="eacute" unicode="&#xe9;" horiz-adv-x="547" 
d="M484 726l-127 -154h-87l119 154h95zM502 226h-373q-1 -10 -1 -31q0 -135 126 -135q106 0 141 92h92q-25 -77 -89 -120t-147 -43q-107 0 -159 56t-52 151q0 129 73.5 216t194.5 87q93 0 146.5 -54t53.5 -152q0 -36 -6 -67zM304 429q-62 0 -103.5 -37.5t-59.5 -100.5h281v6
q0 132 -118 132z" />
    <glyph glyph-name="ecircumflex" unicode="&#xea;" horiz-adv-x="547" 
d="M362 684l-96 -113h-85l135 156h104l72 -156h-79zM502 226h-373q-1 -10 -1 -31q0 -135 126 -135q106 0 141 92h92q-25 -77 -89 -120t-147 -43q-107 0 -159 56t-52 151q0 129 73.5 216t194.5 87q93 0 146.5 -54t53.5 -152q0 -36 -6 -67zM304 429q-62 0 -103.5 -37.5
t-59.5 -100.5h281v6q0 132 -118 132z" />
    <glyph glyph-name="edieresis" unicode="&#xeb;" horiz-adv-x="547" 
d="M257 586q-24 0 -40 15.5t-16 38.5q0 24 16 40t40 16q23 0 39.5 -16t16.5 -40q0 -23 -16.5 -38.5t-39.5 -15.5zM447 586q-25 0 -40.5 15.5t-15.5 38.5q0 24 15.5 40t40.5 16q23 0 39.5 -16t16.5 -40q0 -23 -16.5 -38.5t-39.5 -15.5zM502 226h-373q-1 -10 -1 -31
q0 -135 126 -135q106 0 141 92h92q-25 -77 -89 -120t-147 -43q-107 0 -159 56t-52 151q0 129 73.5 216t194.5 87q93 0 146.5 -54t53.5 -152q0 -36 -6 -67zM304 429q-62 0 -103.5 -37.5t-59.5 -100.5h281v6q0 132 -118 132z" />
    <glyph glyph-name="igrave" unicode="&#xec;" horiz-adv-x="237" 
d="M240 572h-73l-60 154h82zM27 0l97 487h87l-98 -487h-86z" />
    <glyph glyph-name="iacute" unicode="&#xed;" horiz-adv-x="237" 
d="M131 572l102 154h93l-111 -154h-84zM27 0l97 487h87l-98 -487h-86z" />
    <glyph glyph-name="icircumflex" unicode="&#xee;" horiz-adv-x="237" 
d="M51 571l117 156h90l54 -156h-68l-37 109l-83 -109h-73zM27 0l97 487h87l-98 -487h-86z" />
    <glyph glyph-name="idieresis" unicode="&#xef;" horiz-adv-x="237" 
d="M128 589q-22 0 -35 13.5t-13 35.5q0 23 14 37t36 14q21 0 34 -13t13 -35q0 -23 -14 -37.5t-35 -14.5zM262 589q-21 0 -34 13.5t-13 35.5q0 23 14 37t36 14q21 0 34 -13.5t13 -34.5q0 -23 -14 -37.5t-36 -14.5zM27 0l97 487h87l-98 -487h-86z" />
    <glyph glyph-name="eth" unicode="&#xf0;" horiz-adv-x="552" 
d="M547 696l-11 -62l-94 -31q71 -150 71 -293q0 -145 -70.5 -233t-199.5 -88q-104 0 -154 55.5t-50 150.5q0 116 70 198.5t180 82.5q93 0 136 -63q-16 75 -60 164l-214 -71l12 62l176 59q-14 25 -46 77v2h93q16 -27 30 -54zM247 63q80 0 125.5 60.5t45.5 148.5
q0 134 -117 134q-79 0 -125 -61t-46 -149q0 -133 117 -133z" />
    <glyph glyph-name="ntilde" unicode="&#xf1;" horiz-adv-x="559" 
d="M308 666q-21 0 -34.5 -22.5t-26.5 -71.5h-59q18 82 47 119.5t76 37.5q45 0 74 -50l7 -10.5t6.5 -10t6 -8.5t7 -8t7 -5t9 -4t9.5 -1q21 0 33.5 22t25.5 73h59q-18 -83 -45.5 -120.5t-77.5 -37.5q-48 0 -74 48q-1 2 -4.5 7.5t-4.5 7.5t-4 7t-4.5 6.5t-4 5.5t-4.5 5.5t-5 4
t-6 3t-6 1.5t-7 1zM352 499q74 0 111.5 -39t37.5 -109q0 -44 -8 -80l-54 -271h-86l53 266q7 33 7 63q0 94 -98 94q-56 0 -93.5 -34.5t-50.5 -100.5l-58 -288h-86l97 487h87l-12 -57q59 69 153 69z" />
    <glyph glyph-name="ograve" unicode="&#xf2;" horiz-adv-x="549" 
d="M408 572h-76l-75 154h84zM241 -12q-102 0 -151.5 58.5t-49.5 152.5q0 128 73.5 214t193.5 86q103 0 152.5 -59.5t49.5 -153.5q0 -128 -72.5 -213t-195.5 -85zM247 64q83 0 127.5 65.5t44.5 156.5q0 137 -117 137q-81 0 -126.5 -67.5t-45.5 -154.5q0 -137 117 -137z" />
    <glyph glyph-name="oacute" unicode="&#xf3;" horiz-adv-x="549" 
d="M273 572l119 154h95l-127 -154h-87zM241 -12q-102 0 -151.5 58.5t-49.5 152.5q0 128 73.5 214t193.5 86q103 0 152.5 -59.5t49.5 -153.5q0 -128 -72.5 -213t-195.5 -85zM247 64q83 0 127.5 65.5t44.5 156.5q0 137 -117 137q-81 0 -126.5 -67.5t-45.5 -154.5
q0 -137 117 -137z" />
    <glyph glyph-name="ocircumflex" unicode="&#xf4;" horiz-adv-x="549" 
d="M184 571l135 156h104l72 -156h-79l-51 113l-96 -113h-85zM241 -12q-102 0 -151.5 58.5t-49.5 152.5q0 128 73.5 214t193.5 86q103 0 152.5 -59.5t49.5 -153.5q0 -128 -72.5 -213t-195.5 -85zM247 64q83 0 127.5 65.5t44.5 156.5q0 137 -117 137q-81 0 -126.5 -67.5
t-45.5 -154.5q0 -137 117 -137z" />
    <glyph glyph-name="otilde" unicode="&#xf5;" horiz-adv-x="549" 
d="M416 569q-48 0 -74 48q-1 2 -4.5 7.5t-4.5 7.5t-4 7t-4.5 6.5t-4 5.5t-4.5 5.5t-5 4t-6 3t-6 1.5t-7 1q-21 0 -34.5 -22.5t-26.5 -71.5h-59q18 82 47 119.5t76 37.5q45 0 74 -50l7 -10.5t6.5 -10t6 -8.5t7 -8t7 -5t9 -4t9.5 -1q21 0 33.5 22t25.5 73h59
q-18 -83 -45.5 -120.5t-77.5 -37.5zM241 -12q-102 0 -151.5 58.5t-49.5 152.5q0 128 73.5 214t193.5 86q103 0 152.5 -59.5t49.5 -153.5q0 -128 -72.5 -213t-195.5 -85zM247 64q83 0 127.5 65.5t44.5 156.5q0 137 -117 137q-81 0 -126.5 -67.5t-45.5 -154.5q0 -137 117 -137
z" />
    <glyph glyph-name="odieresis" unicode="&#xf6;" horiz-adv-x="549" 
d="M260 586q-24 0 -40 15.5t-16 38.5q0 24 16 40t40 16q23 0 39.5 -16t16.5 -40q0 -23 -16.5 -38.5t-39.5 -15.5zM450 586q-25 0 -40.5 15.5t-15.5 38.5q0 24 15.5 40t40.5 16q23 0 39.5 -16t16.5 -40q0 -23 -16.5 -38.5t-39.5 -15.5zM241 -12q-102 0 -151.5 58.5
t-49.5 152.5q0 128 73.5 214t193.5 86q103 0 152.5 -59.5t49.5 -153.5q0 -128 -72.5 -213t-195.5 -85zM247 64q83 0 127.5 65.5t44.5 156.5q0 137 -117 137q-81 0 -126.5 -67.5t-45.5 -154.5q0 -137 117 -137z" />
    <glyph glyph-name="divide" unicode="&#xf7;" horiz-adv-x="577" 
d="M337 436q-23 0 -37 13.5t-14 36.5t14 36.5t37 13.5q22 0 36 -13.5t14 -36.5q0 -22 -14.5 -36t-35.5 -14zM55 248l14 72h469l-15 -72h-468zM257 32q-23 0 -37.5 14t-14.5 36q0 24 14 37t38 13q21 0 35.5 -13.5t14.5 -36.5q0 -21 -14.5 -35.5t-35.5 -14.5z" />
    <glyph glyph-name="oslash" unicode="&#xf8;" horiz-adv-x="549" 
d="M558 487l-79 -75q30 -50 30 -126q0 -128 -72.5 -213t-195.5 -85q-91 0 -144 51l-40 -39h-69l81 76q-29 51 -29 123q0 128 73.5 214t193.5 86q90 0 143 -50l39 38h69zM302 423q-81 0 -126.5 -67.5t-45.5 -154.5q0 -37 8 -60l250 249q-28 33 -86 33zM247 64
q83 0 127.5 65.5t44.5 156.5q0 33 -8 63l-252 -249q30 -36 88 -36z" />
    <glyph glyph-name="ugrave" unicode="&#xf9;" horiz-adv-x="560" 
d="M402 572h-76l-75 154h84zM446 487h86l-97 -487h-87l12 57q-59 -69 -153 -69q-74 0 -111.5 39t-37.5 109q0 44 8 80l54 271h86l-53 -266q-7 -33 -7 -63q0 -94 98 -94q56 0 93.5 34.5t50.5 100.5z" />
    <glyph glyph-name="uacute" unicode="&#xfa;" horiz-adv-x="560" 
d="M481 726l-127 -154h-87l119 154h95zM446 487h86l-97 -487h-87l12 57q-59 -69 -153 -69q-74 0 -111.5 39t-37.5 109q0 44 8 80l54 271h86l-53 -266q-7 -33 -7 -63q0 -94 98 -94q56 0 93.5 34.5t50.5 100.5z" />
    <glyph glyph-name="ucircumflex" unicode="&#xfb;" horiz-adv-x="560" 
d="M359 684l-96 -113h-85l135 156h104l72 -156h-79zM446 487h86l-97 -487h-87l12 57q-59 -69 -153 -69q-74 0 -111.5 39t-37.5 109q0 44 8 80l54 271h86l-53 -266q-7 -33 -7 -63q0 -94 98 -94q56 0 93.5 34.5t50.5 100.5z" />
    <glyph glyph-name="udieresis" unicode="&#xfc;" horiz-adv-x="560" 
d="M254 586q-24 0 -40 15.5t-16 38.5q0 24 16 40t40 16q23 0 39.5 -16t16.5 -40q0 -23 -16.5 -38.5t-39.5 -15.5zM444 586q-25 0 -40.5 15.5t-15.5 38.5q0 24 15.5 40t40.5 16q23 0 39.5 -16t16.5 -40q0 -23 -16.5 -38.5t-39.5 -15.5zM446 487h86l-97 -487h-87l12 57
q-59 -69 -153 -69q-74 0 -111.5 39t-37.5 109q0 44 8 80l54 271h86l-53 -266q-7 -33 -7 -63q0 -94 98 -94q56 0 93.5 34.5t50.5 100.5z" />
    <glyph glyph-name="yacute" unicode="&#xfd;" horiz-adv-x="510" 
d="M456 726l-127 -154h-87l119 154h95zM443 487h99l-422 -688h-95l124 202l-83 486h88l61 -388z" />
    <glyph glyph-name="thorn" unicode="&#xfe;" horiz-adv-x="574" 
d="M358 499q91 0 133.5 -57t42.5 -152q0 -123 -70 -212t-181 -89q-122 0 -153 99l-57 -289h-86l181 907h86l-56 -280q64 73 160 73zM269 64q80 0 127 65.5t47 157.5q0 136 -113 136q-62 0 -105 -40t-57 -110q-13 -62 -13 -86q0 -59 29.5 -91t84.5 -32z" />
    <glyph glyph-name="ydieresis" unicode="&#xff;" horiz-adv-x="510" 
d="M229 586q-24 0 -40 15.5t-16 38.5q0 24 16 40t40 16q23 0 39.5 -16t16.5 -40q0 -23 -16.5 -38.5t-39.5 -15.5zM419 586q-25 0 -40.5 15.5t-15.5 38.5q0 24 15.5 40t40.5 16q23 0 39.5 -16t16.5 -40q0 -23 -16.5 -38.5t-39.5 -15.5zM443 487h99l-422 -688h-95l124 202
l-83 486h88l61 -388z" />
    <glyph glyph-name="Amacron" unicode="&#x100;" horiz-adv-x="630" 
d="M292 873h293l-12 -63h-293zM338 706h139l96 -706h-92l-23 177h-305l-94 -177h-99zM193 252h256l-50 386h-2z" />
    <glyph glyph-name="amacron" unicode="&#x101;" horiz-adv-x="540" 
d="M489 670l-12 -61h-283l12 61h283zM294 499q99 0 142.5 -42.5t43.5 -122.5q0 -32 -10 -82l-51 -252h-87l13 64q-65 -76 -175 -76q-75 0 -113 35.5t-38 96.5q0 166 245 166h125q6 30 6 51q0 47 -24 70.5t-79 23.5q-109 0 -125 -96h-90q14 77 70 120.5t147 43.5zM204 58
q73 0 114.5 40t58.5 126h-109q-155 0 -155 -92q0 -74 91 -74z" />
    <glyph glyph-name="Abreve" unicode="&#x102;" horiz-adv-x="630" 
d="M419 772q-126 0 -126 104q0 9 2 29h62q-1 -6 -1 -16q0 -63 70 -63q75 0 102 79h66q-34 -133 -175 -133zM338 706h139l96 -706h-92l-23 177h-305l-94 -177h-99zM193 252h256l-50 386h-2z" />
    <glyph glyph-name="abreve" unicode="&#x103;" horiz-adv-x="540" 
d="M335 568q-132 0 -132 126q0 15 3 33h65q-2 -13 -2 -35q0 -35 16 -52t52 -17q44 0 68.5 25t39.5 79h68q-19 -80 -61.5 -119.5t-116.5 -39.5zM294 499q99 0 142.5 -42.5t43.5 -122.5q0 -32 -10 -82l-51 -252h-87l13 64q-65 -76 -175 -76q-75 0 -113 35.5t-38 96.5
q0 166 245 166h125q6 30 6 51q0 47 -24 70.5t-79 23.5q-109 0 -125 -96h-90q14 77 70 120.5t147 43.5zM204 58q73 0 114.5 40t58.5 126h-109q-155 0 -155 -92q0 -74 91 -74z" />
    <glyph glyph-name="Aogonek" unicode="&#x104;" horiz-adv-x="630" 
d="M467 -117q0 -38 46 -38q19 0 40 7l-11 -58q-26 -6 -53 -6q-45 0 -71 21t-26 59q0 67 107 132h-18l-23 177h-305l-94 -177h-99l378 706h139l96 -706q-27 -18 -39.5 -27.5t-31.5 -26t-27 -32t-8 -31.5zM193 252h256l-50 386h-2z" />
    <glyph glyph-name="aogonek" unicode="&#x105;" horiz-adv-x="540" 
d="M294 499q99 0 142.5 -42.5t43.5 -122.5q0 -32 -10 -82l-51 -252q-27 -18 -39.5 -27.5t-31.5 -26t-27 -32t-8 -31.5q0 -38 46 -38q19 0 40 7l-11 -58q-25 -6 -53 -6q-45 0 -71 21t-26 59q0 67 107 132h-13l13 64q-65 -76 -175 -76q-75 0 -113 35.5t-38 96.5q0 166 245 166
h125q6 30 6 51q0 47 -24 70.5t-79 23.5q-109 0 -125 -96h-90q14 77 70 120.5t147 43.5zM204 58q73 0 114.5 40t58.5 126h-109q-155 0 -155 -92q0 -74 91 -74z" />
    <glyph glyph-name="Cacute" unicode="&#x106;" horiz-adv-x="700" 
d="M394 777l133 128h105l-141 -128h-97zM334 -16q-137 0 -201.5 78.5t-64.5 213.5q0 89 25.5 169.5t72 142t117.5 98t156 36.5q119 0 187 -66.5t68 -178.5q0 -4 -2 -26h-92q1 9 1 20q0 79 -45.5 124.5t-124.5 45.5q-84 0 -146.5 -53.5t-92 -135t-29.5 -175.5q0 -100 43 -156
t133 -56q85 0 140.5 47t77.5 129h97q-25 -120 -112 -188.5t-208 -68.5z" />
    <glyph glyph-name="cacute" unicode="&#x107;" horiz-adv-x="528" 
d="M266 572l119 154h95l-127 -154h-87zM238 -11q-100 0 -149 57t-49 152q0 126 74.5 213.5t192.5 87.5q88 0 139.5 -44.5t51.5 -124.5q0 -14 -1 -21h-91q1 5 1 13q0 48 -28 74.5t-77 26.5q-79 0 -125 -67t-46 -158q0 -134 113 -134q51 0 87.5 31t46.5 80h95
q-18 -87 -82 -136.5t-153 -49.5z" />
    <glyph glyph-name="Ccircumflex" unicode="&#x108;" horiz-adv-x="700" 
d="M301 777l143 128h106l92 -128h-83l-65 86l-98 -86h-95zM334 -16q-137 0 -201.5 78.5t-64.5 213.5q0 89 25.5 169.5t72 142t117.5 98t156 36.5q119 0 187 -66.5t68 -178.5q0 -4 -2 -26h-92q1 9 1 20q0 79 -45.5 124.5t-124.5 45.5q-84 0 -146.5 -53.5t-92 -135
t-29.5 -175.5q0 -100 43 -156t133 -56q85 0 140.5 47t77.5 129h97q-25 -120 -112 -188.5t-208 -68.5z" />
    <glyph glyph-name="ccircumflex" unicode="&#x109;" horiz-adv-x="528" 
d="M177 571l135 156h104l72 -156h-79l-51 113l-96 -113h-85zM238 -11q-100 0 -149 57t-49 152q0 126 74.5 213.5t192.5 87.5q88 0 139.5 -44.5t51.5 -124.5q0 -14 -1 -21h-91q1 5 1 13q0 48 -28 74.5t-77 26.5q-79 0 -125 -67t-46 -158q0 -134 113 -134q51 0 87.5 31
t46.5 80h95q-18 -87 -82 -136.5t-153 -49.5z" />
    <glyph glyph-name="Cdotaccent" unicode="&#x10a;" horiz-adv-x="700" 
d="M485 792q-24 0 -39.5 14.5t-15.5 37.5t15.5 38t39.5 15q23 0 39 -15t16 -38q0 -22 -16 -37t-39 -15zM334 -16q-137 0 -201.5 78.5t-64.5 213.5q0 89 25.5 169.5t72 142t117.5 98t156 36.5q119 0 187 -66.5t68 -178.5q0 -4 -2 -26h-92q1 9 1 20q0 79 -45.5 124.5
t-124.5 45.5q-84 0 -146.5 -53.5t-92 -135t-29.5 -175.5q0 -100 43 -156t133 -56q85 0 140.5 47t77.5 129h97q-25 -120 -112 -188.5t-208 -68.5z" />
    <glyph glyph-name="cdotaccent" unicode="&#x10b;" horiz-adv-x="528" 
d="M347 595q-25 0 -41 15.5t-16 39.5q0 25 16 41t41 16q24 0 41 -16.5t17 -40.5t-17 -39.5t-41 -15.5zM238 -11q-100 0 -149 57t-49 152q0 126 74.5 213.5t192.5 87.5q88 0 139.5 -44.5t51.5 -124.5q0 -14 -1 -21h-91q1 5 1 13q0 48 -28 74.5t-77 26.5q-79 0 -125 -67
t-46 -158q0 -134 113 -134q51 0 87.5 31t46.5 80h95q-18 -87 -82 -136.5t-153 -49.5z" />
    <glyph glyph-name="Ccaron" unicode="&#x10c;" horiz-adv-x="700" 
d="M668 905l-144 -128h-106l-92 128h84l64 -85l99 85h95zM334 -16q-137 0 -201.5 78.5t-64.5 213.5q0 89 25.5 169.5t72 142t117.5 98t156 36.5q119 0 187 -66.5t68 -178.5q0 -4 -2 -26h-92q1 9 1 20q0 79 -45.5 124.5t-124.5 45.5q-84 0 -146.5 -53.5t-92 -135
t-29.5 -175.5q0 -100 43 -156t133 -56q85 0 140.5 47t77.5 129h97q-25 -120 -112 -188.5t-208 -68.5z" />
    <glyph glyph-name="ccaron" unicode="&#x10d;" horiz-adv-x="528" 
d="M522 726l-135 -155h-104l-71 155h78l51 -113l97 113h84zM238 -11q-100 0 -149 57t-49 152q0 126 74.5 213.5t192.5 87.5q88 0 139.5 -44.5t51.5 -124.5q0 -14 -1 -21h-91q1 5 1 13q0 48 -28 74.5t-77 26.5q-79 0 -125 -67t-46 -158q0 -134 113 -134q51 0 87.5 31t46.5 80
h95q-18 -87 -82 -136.5t-153 -49.5z" />
    <glyph glyph-name="Dcaron" unicode="&#x10e;" horiz-adv-x="690" 
d="M633 905l-144 -128h-106l-92 128h84l64 -85l99 85h95zM42 0l141 706h181q300 0 300 -287q0 -185 -103 -302t-281 -117h-238zM150 78h120q145 0 221.5 93.5t76.5 244.5q0 102 -48.5 157t-159.5 55h-100z" />
    <glyph glyph-name="dcaron" unicode="&#x10f;" horiz-adv-x="632" 
d="M443 400l61 306h86l-141 -706h-85l13 63q-65 -75 -162 -75q-90 0 -133 57t-43 151q0 123 70.5 212.5t181.5 89.5q121 0 152 -98zM667 706h76l-70 -167h-68zM244 64q62 0 105.5 39.5t56.5 109.5q12 64 12 87q0 59 -29 90.5t-84 31.5q-80 0 -127.5 -65.5t-47.5 -156.5
q0 -136 114 -136z" />
    <glyph glyph-name="Dcroat" unicode="&#x110;" horiz-adv-x="690" 
d="M364 706q300 0 300 -287q0 -185 -103 -302t-281 -117h-238l65 326h-58l13 67h58l63 313h181zM270 78q145 0 221.5 93.5t76.5 244.5q0 102 -48.5 157t-159.5 55h-100l-47 -235h170l-13 -67h-170l-50 -248h120z" />
    <glyph glyph-name="dcroat" unicode="&#x111;" horiz-adv-x="574" 
d="M638 634l-12 -58h-62l-115 -576h-85l13 63q-65 -75 -162 -75q-90 0 -133 57t-43 151q0 123 70.5 212.5t181.5 89.5q121 0 152 -98l35 176h-165l12 58h165l14 72h86l-14 -72h62zM244 64q62 0 105.5 39.5t56.5 109.5q12 64 12 87q0 59 -29 90.5t-84 31.5
q-80 0 -127.5 -65.5t-47.5 -156.5q0 -136 114 -136z" />
    <glyph glyph-name="Emacron" unicode="&#x112;" horiz-adv-x="544" 
d="M252 810l12 63h293l-12 -63h-293zM42 0l141 706h402l-15 -78h-310l-46 -229h307l-16 -78h-307l-48 -243h310l-16 -78h-402z" />
    <glyph glyph-name="emacron" unicode="&#x113;" horiz-adv-x="547" 
d="M498 670l-12 -61h-283l12 61h283zM502 226h-373q-1 -10 -1 -31q0 -135 126 -135q106 0 141 92h92q-25 -77 -89 -120t-147 -43q-107 0 -159 56t-52 151q0 129 73.5 216t194.5 87q93 0 146.5 -54t53.5 -152q0 -36 -6 -67zM304 429q-62 0 -103.5 -37.5t-59.5 -100.5h281v6
q0 132 -118 132z" />
    <glyph glyph-name="Ebreve" unicode="&#x114;" horiz-adv-x="544" 
d="M391 772q-126 0 -126 104q0 9 2 29h62q-1 -6 -1 -16q0 -63 70 -63q75 0 102 79h66q-34 -133 -175 -133zM42 0l141 706h402l-15 -78h-310l-46 -229h307l-16 -78h-307l-48 -243h310l-16 -78h-402z" />
    <glyph glyph-name="ebreve" unicode="&#x115;" horiz-adv-x="547" 
d="M343 568q-132 0 -132 126q0 15 3 33h65q-2 -13 -2 -35q0 -35 16 -52t52 -17q44 0 68.5 25t39.5 79h68q-19 -80 -61.5 -119.5t-116.5 -39.5zM308 499q93 0 146.5 -54t53.5 -152q0 -36 -6 -67h-373q-1 -10 -1 -31q0 -135 126 -135q106 0 141 92h92q-25 -77 -89 -120
t-147 -43q-107 0 -159 56t-52 151q0 129 73.5 216t194.5 87zM304 429q-62 0 -103.5 -37.5t-59.5 -100.5h281v6q0 132 -118 132z" />
    <glyph glyph-name="Edotaccent" unicode="&#x116;" horiz-adv-x="544" 
d="M404 792q-24 0 -39.5 14.5t-15.5 37.5t15.5 38t39.5 15q23 0 39 -15t16 -38q0 -22 -16 -37t-39 -15zM42 0l141 706h402l-15 -78h-310l-46 -229h307l-16 -78h-307l-48 -243h310l-16 -78h-402z" />
    <glyph glyph-name="edotaccent" unicode="&#x117;" horiz-adv-x="547" 
d="M350 595q-25 0 -41 15.5t-16 39.5q0 25 16 41t41 16q24 0 41 -16.5t17 -40.5t-17 -39.5t-41 -15.5zM502 226h-373q-1 -10 -1 -31q0 -135 126 -135q106 0 141 92h92q-25 -77 -89 -120t-147 -43q-107 0 -159 56t-52 151q0 129 73.5 216t194.5 87q93 0 146.5 -54t53.5 -152
q0 -36 -6 -67zM304 429q-62 0 -103.5 -37.5t-59.5 -100.5h281v6q0 132 -118 132z" />
    <glyph glyph-name="Eogonek" unicode="&#x118;" horiz-adv-x="544" 
d="M570 628h-310l-46 -229h307l-16 -78h-307l-48 -243h310l-16 -78q-27 -18 -39.5 -27.5t-31.5 -26t-27 -32t-8 -31.5q0 -38 46 -38q19 0 40 7l-11 -58q-25 -6 -53 -6q-45 0 -71 21t-26 59q0 67 107 132h-328l141 706h402z" />
    <glyph glyph-name="eogonek" unicode="&#x119;" horiz-adv-x="547" 
d="M502 226h-373q-1 -10 -1 -31q0 -135 126 -135q106 0 141 92h92q-31 -91 -120 -150q-25 -17 -39 -28t-32 -27t-26.5 -32t-8.5 -32q0 -37 46 -37q22 0 40 6l-12 -58q-24 -6 -52 -6q-45 0 -71 21t-26 58q0 64 90 123q-8 -1 -25 -1q-106 0 -158.5 56t-52.5 151q0 129 73 216
t195 87q92 0 146 -54t54 -152q0 -36 -6 -67zM304 429q-62 0 -103.5 -37.5t-59.5 -100.5h281v6q0 132 -118 132z" />
    <glyph glyph-name="Ecaron" unicode="&#x11a;" horiz-adv-x="544" 
d="M587 905l-144 -128h-106l-92 128h84l64 -85l99 85h95zM42 0l141 706h402l-15 -78h-310l-46 -229h307l-16 -78h-307l-48 -243h310l-16 -78h-402z" />
    <glyph glyph-name="ecaron" unicode="&#x11b;" horiz-adv-x="547" 
d="M390 571h-104l-71 155h78l51 -113l97 113h84zM308 499q93 0 146.5 -54t53.5 -152q0 -36 -6 -67h-373q-1 -10 -1 -31q0 -135 126 -135q106 0 141 92h92q-25 -77 -89 -120t-147 -43q-107 0 -159 56t-52 151q0 129 73.5 216t194.5 87zM304 429q-62 0 -103.5 -37.5
t-59.5 -100.5h281v6q0 132 -118 132z" />
    <glyph glyph-name="Gcircumflex" unicode="&#x11c;" horiz-adv-x="707" 
d="M490 863l-98 -86h-95l143 128h106l92 -128h-83zM439 641q-133 0 -204.5 -108t-71.5 -268q0 -92 43.5 -146t129.5 -54q194 0 238 222v2h-184l16 80h275l-15 -78q-27 -137 -109.5 -222t-223.5 -85q-133 0 -199.5 78.5t-66.5 208.5q-1 192 101.5 321.5t275.5 129.5
q125 0 187.5 -65t61.5 -187h-90q-2 171 -164 171z" />
    <glyph glyph-name="gcircumflex" unicode="&#x11d;" horiz-adv-x="573" 
d="M361 684l-96 -113h-85l135 156h104l72 -156h-79zM461 487h85l-100 -499q-39 -201 -246 -201q-100 0 -152.5 41.5t-42.5 121.5h88q-5 -45 25 -69t86 -24q129 0 157 143l12 62q-63 -70 -157 -70q-90 0 -133 55.5t-43 144.5q0 128 69.5 217t180.5 89q123 0 153 -101zM244 68
q62 0 105.5 39t56.5 108q12 58 12 85q0 59 -29.5 90.5t-84.5 31.5q-80 0 -127 -64t-47 -154q0 -62 27.5 -99t86.5 -37z" />
    <glyph glyph-name="Gbreve" unicode="&#x11e;" horiz-adv-x="707" 
d="M468 772q-126 0 -126 104q0 9 2 29h62q-1 -6 -1 -16q0 -63 70 -63q75 0 102 79h66q-34 -133 -175 -133zM439 641q-133 0 -204.5 -108t-71.5 -268q0 -92 43.5 -146t129.5 -54q194 0 238 222v2h-184l16 80h275l-15 -78q-27 -137 -109.5 -222t-223.5 -85q-133 0 -199.5 78.5
t-66.5 208.5q-1 192 101.5 321.5t275.5 129.5q125 0 187.5 -65t61.5 -187h-90q-2 171 -164 171z" />
    <glyph glyph-name="gbreve" unicode="&#x11f;" horiz-adv-x="573" 
d="M343 568q-132 0 -132 126q0 15 3 33h65q-2 -13 -2 -35q0 -35 16 -52t52 -17q44 0 68.5 25t39.5 79h68q-19 -80 -61.5 -119.5t-116.5 -39.5zM461 487h85l-100 -499q-39 -201 -246 -201q-100 0 -152.5 41.5t-42.5 121.5h88q-5 -45 25 -69t86 -24q129 0 157 143l12 62
q-63 -70 -157 -70q-90 0 -133 55.5t-43 144.5q0 128 69.5 217t180.5 89q123 0 153 -101zM244 68q62 0 105.5 39t56.5 108q12 58 12 85q0 59 -29.5 90.5t-84.5 31.5q-80 0 -127 -64t-47 -154q0 -62 27.5 -99t86.5 -37z" />
    <glyph glyph-name="Gdotaccent" unicode="&#x120;" horiz-adv-x="707" 
d="M481 792q-24 0 -39.5 14.5t-15.5 37.5t15.5 38t39.5 15q23 0 39 -15t16 -38q0 -22 -16 -37t-39 -15zM439 641q-133 0 -204.5 -108t-71.5 -268q0 -92 43.5 -146t129.5 -54q194 0 238 222v2h-184l16 80h275l-15 -78q-27 -137 -109.5 -222t-223.5 -85q-133 0 -199.5 78.5
t-66.5 208.5q-1 192 101.5 321.5t275.5 129.5q125 0 187.5 -65t61.5 -187h-90q-2 171 -164 171z" />
    <glyph glyph-name="gdotaccent" unicode="&#x121;" horiz-adv-x="573" 
d="M350 595q-25 0 -41 15.5t-16 39.5q0 25 16 41t41 16q24 0 41 -16.5t17 -40.5t-17 -39.5t-41 -15.5zM461 487h85l-100 -499q-39 -201 -246 -201q-100 0 -152.5 41.5t-42.5 121.5h88q-5 -45 25 -69t86 -24q129 0 157 143l12 62q-63 -70 -157 -70q-90 0 -133 55.5t-43 144.5
q0 128 69.5 217t180.5 89q123 0 153 -101zM244 68q62 0 105.5 39t56.5 108q12 58 12 85q0 59 -29.5 90.5t-84.5 31.5q-80 0 -127 -64t-47 -154q0 -62 27.5 -99t86.5 -37z" />
    <glyph glyph-name="uni0122" unicode="&#x122;" horiz-adv-x="707" 
d="M439 641q-133 0 -204.5 -108t-71.5 -268q0 -92 43.5 -146t129.5 -54q194 0 238 222v2h-184l16 80h275l-15 -78q-27 -137 -109.5 -222t-223.5 -85q-133 0 -199.5 78.5t-66.5 208.5q-1 192 101.5 321.5t275.5 129.5q125 0 187.5 -65t61.5 -187h-90q-2 171 -164 171z
M199 -201l62 148h89l-70 -148h-81z" />
    <glyph glyph-name="uni0123" unicode="&#x123;" horiz-adv-x="573" 
d="M423 719l-62 -147h-89l71 147h80zM461 487h85l-100 -499q-39 -201 -246 -201q-100 0 -152.5 41.5t-42.5 121.5h88q-5 -45 25 -69t86 -24q129 0 157 143l12 62q-63 -70 -157 -70q-90 0 -133 55.5t-43 144.5q0 128 69.5 217t180.5 89q123 0 153 -101zM244 68q62 0 105.5 39
t56.5 108q12 58 12 85q0 59 -29.5 90.5t-84.5 31.5q-80 0 -127 -64t-47 -154q0 -62 27.5 -99t86.5 -37z" />
    <glyph glyph-name="Hcircumflex" unicode="&#x124;" horiz-adv-x="687" 
d="M273 777l143 128h106l92 -128h-83l-65 86l-98 -86h-95zM42 0l141 706h92l-61 -306h322l61 306h92l-141 -706h-92l64 320h-322l-64 -320h-92z" />
    <glyph glyph-name="hcircumflex" unicode="&#x125;" horiz-adv-x="559" 
d="M411 863l-98 -86h-95l143 128h106l92 -128h-83zM351 499q150 0 150 -156q0 -37 -8 -72l-54 -271h-86l53 267q7 31 7 60q0 96 -95 96q-120 0 -147 -135l-58 -288h-86l141 706h86l-55 -277q58 70 152 70z" />
    <glyph glyph-name="Hbar" unicode="&#x126;" horiz-adv-x="687" 
d="M597 706h92l-141 -706h-92l64 320h-322l-64 -320h-92l141 706h92l-24 -118h322zM536 400l26 128h-322l-26 -128h322z" />
    <glyph glyph-name="hbar" unicode="&#x127;" horiz-adv-x="559" 
d="M351 499q150 0 150 -156q0 -37 -8 -72l-54 -271h-86l53 267q7 31 7 60q0 96 -95 96q-120 0 -147 -135l-58 -288h-86l115 577h-55l12 58h55l14 71h86l-14 -71h172l-12 -58h-172l-29 -148q58 70 152 70z" />
    <glyph glyph-name="Itilde" unicode="&#x128;" horiz-adv-x="273" 
d="M306 774q-40 0 -62 39q-11 19 -19.5 27.5t-22.5 8.5q-19 0 -30.5 -17.5t-20.5 -54.5h-53q15 67 40.5 98.5t68.5 31.5q39 0 62 -40q10 -19 17.5 -26.5t20.5 -7.5q20 0 31 17t22 55h54q-16 -69 -41 -100t-67 -31zM42 0l141 706h92l-141 -706h-92z" />
    <glyph glyph-name="itilde" unicode="&#x129;" horiz-adv-x="237" 
d="M241 569q-26 0 -39 13t-19 39q-1 2 -2.5 8l-2 8t-2 7t-2.5 7t-2.5 5.5t-3.5 5t-4 3.5t-4.5 2.5t-5.5 0.5q-16 0 -26 -22.5t-21 -73.5h-55q19 85 41.5 121t63.5 36q26 0 38.5 -14t19.5 -43q6 -22 11.5 -31.5t17.5 -9.5q16 0 26.5 22.5t20.5 73.5h55q-19 -86 -41.5 -122
t-63.5 -36zM27 0l97 487h87l-98 -487h-86z" />
    <glyph glyph-name="Imacron" unicode="&#x12a;" horiz-adv-x="273" 
d="M135 810l13 62h228l-12 -62h-229zM42 0l141 706h92l-141 -706h-92z" />
    <glyph glyph-name="imacron" unicode="&#x12b;" horiz-adv-x="237" 
d="M85 609l12 61h214l-12 -61h-214zM27 0l97 487h87l-98 -487h-86z" />
    <glyph glyph-name="Ibreve" unicode="&#x12c;" horiz-adv-x="273" 
d="M249 772q-109 0 -109 94q0 11 4 39h63q-3 -17 -3 -30q0 -48 49 -48q32 0 49 18.5t27 59.5h66q-26 -133 -146 -133zM42 0l141 706h92l-141 -706h-92z" />
    <glyph glyph-name="ibreve" unicode="&#x12d;" horiz-adv-x="237" 
d="M186 568q-101 0 -101 103q0 25 6 56h60q-6 -31 -6 -52q0 -53 44 -53q34 0 53 24.5t30 80.5h63q-17 -81 -52.5 -120t-96.5 -39zM27 0l97 487h87l-98 -487h-86z" />
    <glyph glyph-name="Iogonek" unicode="&#x12e;" horiz-adv-x="273" 
d="M275 706l-141 -706q-84 -84 -84 -124q0 -31 34 -31q16 0 35 7l-12 -57q-22 -7 -49 -7q-39 0 -61 18.5t-22 51.5q0 66 91 142h-24l141 706h92z" />
    <glyph glyph-name="iogonek" unicode="&#x12f;" horiz-adv-x="237" 
d="M201 706q24 0 41 -16.5t17 -40.5t-17 -40t-41 -16q-25 0 -41 16t-16 40q0 25 16 41t41 16zM27 0l97 487h87l-98 -487q-84 -84 -84 -124q0 -31 34 -31q16 0 35 7l-12 -57q-22 -7 -49 -7q-39 0 -61 18.5t-22 51.5q0 66 91 142h-18z" />
    <glyph glyph-name="Idotaccent" unicode="&#x130;" horiz-adv-x="273" 
d="M257 792q-24 0 -39.5 14.5t-15.5 37.5t15.5 38t39.5 15q23 0 39 -15t16 -38q0 -22 -16 -37t-39 -15zM42 0l141 706h92l-141 -706h-92z" />
    <glyph glyph-name="dotlessi" unicode="&#x131;" horiz-adv-x="237" 
d="M27 0l97 487h87l-98 -487h-86z" />
    <glyph glyph-name="IJ" unicode="&#x132;" horiz-adv-x="629" 
d="M42 0l141 706h92l-141 -706h-92zM310 -3q-38 0 -67 5l17 85q23 -5 47 -5q68 0 102.5 32t49.5 109l97 483h93l-102 -510q-20 -103 -77 -151t-160 -48z" />
    <glyph glyph-name="ij" unicode="&#x133;" horiz-adv-x="475" 
d="M201 593q-25 0 -41 16t-16 40q0 25 16 41t41 16q24 0 40.5 -16t16.5 -41q0 -24 -16.5 -40t-40.5 -16zM437 593q-25 0 -41 16t-16 40q0 25 16 41t41 16q24 0 41 -16.5t17 -40.5t-17 -40t-41 -16zM27 0l97 487h87l-98 -487h-86zM181 -204q-29 0 -53 4l15 76q12 -2 29 -2
q36 0 55 17t26 56l108 540h87l-113 -564q-13 -67 -50 -97t-104 -30z" />
    <glyph glyph-name="Jcircumflex" unicode="&#x134;" horiz-adv-x="355" 
d="M206 777l108 128h99l60 -128h-75l-38 85l-72 -85h-82zM37 -3q-38 0 -67 5l17 85q23 -5 47 -5q68 0 102.5 32t49.5 109l97 483h93l-102 -510q-20 -103 -77 -151t-160 -48z" />
    <glyph glyph-name="jcircumflex" unicode="&#x135;" horiz-adv-x="237" 
d="M50 571l117 156h90l54 -156h-68l-37 109l-83 -109h-73zM-56 -204q-29 0 -53 4l15 76q12 -2 29 -2q36 0 55 17t26 56l108 540h87l-113 -564q-13 -67 -50 -97t-104 -30z" />
    <glyph glyph-name="uni0136" unicode="&#x136;" horiz-adv-x="599" 
d="M638 706l-346 -332l247 -374h-107l-228 350l-70 -350h-92l141 706h92l-59 -294l305 294h117zM171 -201l62 148h89l-70 -148h-81z" />
    <glyph glyph-name="uni0137" unicode="&#x137;" horiz-adv-x="474" 
d="M500 487l-255 -227l185 -260h-103l-167 237l-47 -237h-86l141 706h86l-82 -411l208 192h120zM109 -201l62 148h89l-70 -148h-81z" />
    <glyph glyph-name="kgreenlandic" unicode="&#x138;" horiz-adv-x="474" 
d="M503 487l-258 -228l185 -259h-103l-166 237l-48 -237h-86l97 487h87l-39 -192l212 192h119z" />
    <glyph glyph-name="Lacute" unicode="&#x139;" horiz-adv-x="473" 
d="M194 777l133 128h105l-141 -128h-97zM42 0l141 706h92l-125 -624h272l-16 -82h-364z" />
    <glyph glyph-name="lacute" unicode="&#x13a;" horiz-adv-x="237" 
d="M148 777l133 128h105l-141 -128h-97zM27 0l141 706h86l-141 -706h-86z" />
    <glyph glyph-name="uni013B" unicode="&#x13b;" horiz-adv-x="473" 
d="M42 0l141 706h92l-125 -624h272l-16 -82h-364zM131 -201l62 148h89l-70 -148h-81z" />
    <glyph glyph-name="uni013C" unicode="&#x13c;" horiz-adv-x="237" 
d="M27 0l141 706h86l-141 -706h-86zM-46 -201l62 148h89l-70 -148h-81z" />
    <glyph glyph-name="Lcaron" unicode="&#x13d;" horiz-adv-x="473" 
d="M42 0l141 706h92l-125 -624h272l-16 -82h-364zM327 539l62 167h76l-70 -167h-68z" />
    <glyph glyph-name="lcaron" unicode="&#x13e;" horiz-adv-x="283" 
d="M27 0l141 706h86l-141 -706h-86zM263 539l62 167h76l-70 -167h-68z" />
    <glyph glyph-name="Ldot" unicode="&#x13f;" horiz-adv-x="524" 
d="M42 0l141 706h92l-125 -624h272l-16 -82h-364zM427 333q-27 0 -44.5 17t-17.5 44q0 28 17.5 45t44.5 17t44.5 -17t17.5 -45q0 -27 -17.5 -44t-44.5 -17z" />
    <glyph glyph-name="ldot" unicode="&#x140;" horiz-adv-x="370" 
d="M27 0l141 706h86l-141 -706h-86zM321 273q-28 0 -45 16.5t-17 43.5q0 28 17 45t45 17q27 0 44.5 -17.5t17.5 -44.5t-17.5 -43.5t-44.5 -16.5z" />
    <glyph glyph-name="Lslash" unicode="&#x141;" horiz-adv-x="473" 
d="M150 82h272l-16 -82h-364l63 313l-71 -41l16 77l70 42l63 315h92l-53 -267l159 95l-17 -79l-158 -94z" />
    <glyph glyph-name="lslash" unicode="&#x142;" horiz-adv-x="253" 
d="M295 500l-16 -78l-84 -54l-74 -368h-86l65 323l-84 -50l15 78l84 51l61 304h86l-52 -258z" />
    <glyph glyph-name="Nacute" unicode="&#x143;" horiz-adv-x="712" 
d="M383 777l133 128h105l-141 -128h-97zM42 0l141 706h95l232 -573l115 573h89l-141 -706h-96l-231 573l-115 -573h-89z" />
    <glyph glyph-name="nacute" unicode="&#x144;" horiz-adv-x="559" 
d="M503 726l-127 -154h-87l119 154h95zM352 499q74 0 111.5 -39t37.5 -109q0 -44 -8 -80l-54 -271h-86l53 266q7 33 7 63q0 94 -98 94q-56 0 -93.5 -34.5t-50.5 -100.5l-58 -288h-86l97 487h87l-12 -57q59 69 153 69z" />
    <glyph glyph-name="uni0145" unicode="&#x145;" horiz-adv-x="712" 
d="M42 0l141 706h95l232 -573l115 573h89l-141 -706h-96l-231 573l-115 -573h-89zM208 -201l62 148h89l-70 -148h-81z" />
    <glyph glyph-name="uni0146" unicode="&#x146;" horiz-adv-x="559" 
d="M352 499q74 0 111.5 -39t37.5 -109q0 -44 -8 -80l-54 -271h-86l53 266q7 33 7 63q0 94 -98 94q-56 0 -93.5 -34.5t-50.5 -100.5l-58 -288h-86l97 487h87l-12 -57q59 69 153 69zM125 -201l62 148h89l-70 -148h-81z" />
    <glyph glyph-name="Ncaron" unicode="&#x147;" horiz-adv-x="712" 
d="M656 905l-144 -128h-106l-92 128h84l64 -85l99 85h95zM42 0l141 706h95l232 -573l115 573h89l-141 -706h-96l-231 573l-115 -573h-89z" />
    <glyph glyph-name="ncaron" unicode="&#x148;" horiz-adv-x="559" 
d="M409 571h-104l-71 155h78l51 -113l97 113h84zM352 499q74 0 111.5 -39t37.5 -109q0 -44 -8 -80l-54 -271h-86l53 266q7 33 7 63q0 94 -98 94q-56 0 -93.5 -34.5t-50.5 -100.5l-58 -288h-86l97 487h87l-12 -57q59 69 153 69z" />
    <glyph glyph-name="napostrophe" unicode="&#x149;" horiz-adv-x="705" 
d="M199 706h95l-142 -281h-73zM498 499q74 0 111.5 -39t37.5 -109q0 -37 -8 -80l-54 -271h-86l53 266q6 28 6 63q0 94 -97 94q-56 0 -93.5 -34.5t-50.5 -100.5l-58 -288h-87l98 487h86l-11 -57q57 69 153 69z" />
    <glyph glyph-name="Eng" unicode="&#x14a;" horiz-adv-x="712" 
d="M625 706h89l-155 -776q-14 -71 -51.5 -102.5t-106.5 -31.5q-29 0 -53 4l15 74q11 -2 28 -2q36 0 55.5 17t26.5 57l11 58l-238 569l-115 -573h-89l141 706h95l235 -559z" />
    <glyph glyph-name="eng" unicode="&#x14b;" horiz-adv-x="559" 
d="M351 499q150 0 150 -156q0 -37 -8 -72l-69 -348q-13 -67 -50 -97t-104 -30q-29 0 -53 4l15 76q13 -2 32 -2q34 0 52 15.5t25 52.5l65 325q7 31 7 58q0 51 -24 74.5t-74 23.5q-56 0 -93.5 -34.5t-50.5 -100.5l-58 -288h-86l97 487h87l-12 -57q59 69 152 69z" />
    <glyph glyph-name="Omacron" unicode="&#x14c;" horiz-adv-x="726" 
d="M326 810l12 63h293l-12 -63h-293zM336 -16q-138 0 -203 77.5t-65 208.5q0 122 42 223.5t126.5 165t196.5 63.5q138 0 203.5 -78t65.5 -207q0 -123 -42 -225t-126.5 -165t-197.5 -63zM343 65q122 0 193 111t71 262q0 93 -43.5 148t-137.5 55q-82 0 -143.5 -54.5
t-91 -137.5t-29.5 -180q0 -93 44 -148.5t137 -55.5z" />
    <glyph glyph-name="omacron" unicode="&#x14d;" horiz-adv-x="549" 
d="M206 609l12 61h283l-12 -61h-283zM241 -12q-102 0 -151.5 58.5t-49.5 152.5q0 128 73.5 214t193.5 86q103 0 152.5 -59.5t49.5 -153.5q0 -128 -72.5 -213t-195.5 -85zM247 64q83 0 127.5 65.5t44.5 156.5q0 137 -117 137q-81 0 -126.5 -67.5t-45.5 -154.5
q0 -137 117 -137z" />
    <glyph glyph-name="Obreve" unicode="&#x14e;" horiz-adv-x="726" 
d="M465 772q-126 0 -126 104q0 9 2 29h62q-1 -6 -1 -16q0 -63 70 -63q75 0 102 79h66q-34 -133 -175 -133zM336 -16q-138 0 -203 77.5t-65 208.5q0 122 42 223.5t126.5 165t196.5 63.5q138 0 203.5 -78t65.5 -207q0 -123 -42 -225t-126.5 -165t-197.5 -63zM343 65
q122 0 193 111t71 262q0 93 -43.5 148t-137.5 55q-82 0 -143.5 -54.5t-91 -137.5t-29.5 -180q0 -93 44 -148.5t137 -55.5z" />
    <glyph glyph-name="obreve" unicode="&#x14f;" horiz-adv-x="549" 
d="M347 568q-132 0 -132 126q0 15 3 33h65q-2 -13 -2 -35q0 -35 16 -52t52 -17q44 0 68.5 25t39.5 79h68q-19 -80 -61.5 -119.5t-116.5 -39.5zM241 -12q-102 0 -151.5 58.5t-49.5 152.5q0 128 73.5 214t193.5 86q103 0 152.5 -59.5t49.5 -153.5q0 -128 -72.5 -213
t-195.5 -85zM247 64q83 0 127.5 65.5t44.5 156.5q0 137 -117 137q-81 0 -126.5 -67.5t-45.5 -154.5q0 -137 117 -137z" />
    <glyph glyph-name="Ohungarumlaut" unicode="&#x150;" horiz-adv-x="726" 
d="M343 778l128 127h90l-141 -127h-77zM492 778l128 127h89l-140 -127h-77zM336 -16q-138 0 -203 77.5t-65 208.5q0 122 42 223.5t126.5 165t196.5 63.5q138 0 203.5 -78t65.5 -207q0 -123 -42 -225t-126.5 -165t-197.5 -63zM343 65q122 0 193 111t71 262q0 93 -43.5 148
t-137.5 55q-82 0 -143.5 -54.5t-91 -137.5t-29.5 -180q0 -93 44 -148.5t137 -55.5z" />
    <glyph glyph-name="ohungarumlaut" unicode="&#x151;" horiz-adv-x="549" 
d="M221 572l131 155h87l-146 -155h-72zM368 572l131 155h87l-145 -155h-73zM241 -12q-102 0 -151.5 58.5t-49.5 152.5q0 128 73.5 214t193.5 86q103 0 152.5 -59.5t49.5 -153.5q0 -128 -72.5 -213t-195.5 -85zM247 64q83 0 127.5 65.5t44.5 156.5q0 137 -117 137
q-81 0 -126.5 -67.5t-45.5 -154.5q0 -137 117 -137z" />
    <glyph glyph-name="OE" unicode="&#x152;" horiz-adv-x="1007" 
d="M1034 628h-310l-46 -229h306l-15 -78h-306l-49 -243h309l-15 -78h-392l14 71q-89 -87 -211 -87q-130 0 -189.5 81.5t-59.5 217.5q0 119 41 218t120.5 160t183.5 61q162 0 219 -133l23 117h392zM326 65q81 0 139.5 52t85.5 133t26 178q-4 213 -166 213q-76 0 -133 -53.5
t-84.5 -135.5t-27.5 -176q0 -211 160 -211z" />
    <glyph glyph-name="oe" unicode="&#x153;" horiz-adv-x="872" 
d="M827 226h-351q-1 -10 -1 -31q0 -135 113 -135q99 0 131 92h92q-24 -78 -84.5 -120.5t-141.5 -42.5q-124 0 -169 94q-69 -95 -191 -95q-93 0 -138.5 58t-45.5 151q0 130 69 216t188 86q112 0 156 -96q70 96 188 96q87 0 138.5 -54t51.5 -152q0 -35 -5 -67zM639 429
q-58 0 -96.5 -37.5t-55.5 -100.5h259v6q0 132 -107 132zM230 64q79 0 120.5 66t41.5 159q0 134 -99 134q-81 0 -121.5 -67t-40.5 -158q0 -134 99 -134z" />
    <glyph glyph-name="Racute" unicode="&#x154;" horiz-adv-x="617" 
d="M579 905l-141 -128h-97l133 128h105zM617 528q0 -94 -61.5 -150t-166.5 -61l170 -317h-100l-168 316h-93l-64 -316h-92l141 706h215q219 0 219 -178zM354 387q81 0 124.5 35.5t43.5 102.5q0 107 -139 107h-122l-49 -245h142z" />
    <glyph glyph-name="racute" unicode="&#x155;" horiz-adv-x="348" 
d="M410 726l-127 -154h-87l119 154h95zM195 426q51 67 138 67q23 0 49 -6l-16 -78q-20 5 -44 5q-62 0 -101.5 -38.5t-53.5 -108.5l-54 -267h-86l97 487h83z" />
    <glyph glyph-name="uni0156" unicode="&#x156;" horiz-adv-x="617" 
d="M617 528q0 -94 -61.5 -150t-166.5 -61l170 -317h-100l-168 316h-93l-64 -316h-92l141 706h215q219 0 219 -178zM354 387q81 0 124.5 35.5t43.5 102.5q0 107 -139 107h-122l-49 -245h142zM192 -201l62 148h89l-70 -148h-81z" />
    <glyph glyph-name="uni0157" unicode="&#x157;" horiz-adv-x="348" 
d="M333 493q23 0 49 -6l-16 -78q-20 5 -44 5q-62 0 -101.5 -38.5t-53.5 -108.5l-54 -267h-86l97 487h83l-12 -61q51 67 138 67zM-46 -201l62 148h89l-70 -148h-81z" />
    <glyph glyph-name="Rcaron" unicode="&#x158;" horiz-adv-x="617" 
d="M470 777h-106l-92 128h84l64 -85l99 85h95zM617 528q0 -94 -61.5 -150t-166.5 -61l170 -317h-100l-168 316h-93l-64 -316h-92l141 706h215q219 0 219 -178zM354 387q81 0 124.5 35.5t43.5 102.5q0 107 -139 107h-122l-49 -245h142z" />
    <glyph glyph-name="rcaron" unicode="&#x159;" horiz-adv-x="348" 
d="M317 571h-104l-71 155h78l51 -113l97 113h84zM195 426q51 67 138 67q23 0 49 -6l-16 -78q-20 5 -44 5q-62 0 -101.5 -38.5t-53.5 -108.5l-54 -267h-86l97 487h83z" />
    <glyph glyph-name="Sacute" unicode="&#x15a;" horiz-adv-x="595" 
d="M303 777l133 128h105l-141 -128h-97zM274 -16q-123 0 -182 55.5t-59 151.5q0 25 2 38h98q-3 -20 -3 -37q0 -63 37.5 -98t114.5 -35q78 0 122.5 35t44.5 95q0 23 -8.5 42t-19.5 31.5t-35.5 26t-41 20.5t-51.5 20q-9 3 -13 5q-84 32 -125.5 72.5t-41.5 111.5q0 93 69 148.5
t181 55.5q107 0 163.5 -52t56.5 -139q0 -15 -4 -43h-93q4 28 4 42q0 54 -35 86t-99 32q-68 0 -108.5 -33.5t-40.5 -86.5q0 -17 3.5 -31t14 -25.5t18.5 -19t27.5 -17t29 -14t36 -14.5t36.5 -14q92 -36 133.5 -76.5t41.5 -114.5q0 -102 -74 -160t-199 -58z" />
    <glyph glyph-name="sacute" unicode="&#x15b;" horiz-adv-x="467" 
d="M224 572l119 154h95l-127 -154h-87zM198 -12q-91 0 -135 36.5t-44 100.5q0 17 3 37h86q-3 -15 -3 -29q0 -79 99 -79q51 0 80.5 21.5t29.5 56.5q0 18 -7.5 32t-24 24.5t-31 17t-40.5 15.5q-63 22 -96 52t-33 83q0 66 51 104.5t134 38.5q80 0 121.5 -33.5t41.5 -92.5
q0 -10 -2 -30h-84q3 12 3 25q0 69 -85 69q-43 0 -69 -19.5t-26 -50.5q0 -30 25.5 -48t81.5 -38q66 -24 98.5 -55t32.5 -83q0 -73 -57.5 -114t-149.5 -41z" />
    <glyph glyph-name="Scircumflex" unicode="&#x15c;" horiz-adv-x="595" 
d="M210 777l143 128h106l92 -128h-83l-65 86l-98 -86h-95zM274 -16q-123 0 -182 55.5t-59 151.5q0 25 2 38h98q-3 -20 -3 -37q0 -63 37.5 -98t114.5 -35q78 0 122.5 35t44.5 95q0 23 -8.5 42t-19.5 31.5t-35.5 26t-41 20.5t-51.5 20q-9 3 -13 5q-84 32 -125.5 72.5
t-41.5 111.5q0 93 69 148.5t181 55.5q107 0 163.5 -52t56.5 -139q0 -15 -4 -43h-93q4 28 4 42q0 54 -35 86t-99 32q-68 0 -108.5 -33.5t-40.5 -86.5q0 -17 3.5 -31t14 -25.5t18.5 -19t27.5 -17t29 -14t36 -14.5t36.5 -14q92 -36 133.5 -76.5t41.5 -114.5q0 -102 -74 -160
t-199 -58z" />
    <glyph glyph-name="scircumflex" unicode="&#x15d;" horiz-adv-x="467" 
d="M135 571l135 156h104l72 -156h-79l-51 113l-96 -113h-85zM198 -12q-91 0 -135 36.5t-44 100.5q0 17 3 37h86q-3 -15 -3 -29q0 -79 99 -79q51 0 80.5 21.5t29.5 56.5q0 18 -7.5 32t-24 24.5t-31 17t-40.5 15.5q-63 22 -96 52t-33 83q0 66 51 104.5t134 38.5
q80 0 121.5 -33.5t41.5 -92.5q0 -10 -2 -30h-84q3 12 3 25q0 69 -85 69q-43 0 -69 -19.5t-26 -50.5q0 -30 25.5 -48t81.5 -38q66 -24 98.5 -55t32.5 -83q0 -73 -57.5 -114t-149.5 -41z" />
    <glyph glyph-name="Scedilla" unicode="&#x15e;" horiz-adv-x="595" 
d="M579 488h-93q4 28 4 42q0 54 -35 86t-99 32q-68 0 -108.5 -33.5t-40.5 -86.5q0 -17 3.5 -31t14 -25.5t18.5 -19t27.5 -17t29 -14t36 -14.5t36.5 -14q92 -36 133.5 -76.5t41.5 -114.5q0 -93 -62.5 -150t-169.5 -66l-18 -35q43 -3 66.5 -24.5t23.5 -55.5q0 -45 -35.5 -68
t-93.5 -23q-53 0 -87 17l20 49q31 -13 65 -13q30 0 47.5 11t17.5 30q0 36 -74 36h-34l35 75q-110 6 -162.5 60.5t-52.5 145.5q0 25 2 38h98q-3 -20 -3 -37q0 -63 37.5 -98t114.5 -35q78 0 122.5 35t44.5 95q0 23 -8.5 42t-19.5 31.5t-35.5 26t-41 20.5t-51.5 20q-9 3 -13 5
q-84 32 -125.5 72.5t-41.5 111.5q0 93 69 148.5t181 55.5q107 0 163.5 -52t56.5 -139q0 -15 -4 -43z" />
    <glyph glyph-name="scedilla" unicode="&#x15f;" horiz-adv-x="467" 
d="M428 343h-84q3 12 3 25q0 69 -85 69q-43 0 -69 -19.5t-26 -50.5q0 -30 25.5 -48t81.5 -38q66 -24 98.5 -55t32.5 -83q0 -66 -48.5 -106.5t-128.5 -47.5l-19 -38q43 -3 66.5 -24.5t23.5 -55.5q0 -45 -35.5 -68t-93.5 -23q-53 0 -87 17l20 49q31 -13 65 -13q30 0 47.5 11
t17.5 30q0 36 -74 36h-34l38 80q-73 7 -108.5 42t-35.5 93q0 17 3 37h86q-3 -15 -3 -29q0 -79 99 -79q51 0 80.5 21.5t29.5 56.5q0 18 -7.5 32t-24 24.5t-31 17t-40.5 15.5q-63 22 -96 52t-33 83q0 66 51 104.5t134 38.5q80 0 121.5 -33.5t41.5 -92.5q0 -10 -2 -30z" />
    <glyph glyph-name="Scaron" unicode="&#x160;" horiz-adv-x="595" 
d="M577 905l-144 -128h-106l-92 128h84l64 -85l99 85h95zM274 -16q-123 0 -182 55.5t-59 151.5q0 25 2 38h98q-3 -20 -3 -37q0 -63 37.5 -98t114.5 -35q78 0 122.5 35t44.5 95q0 23 -8.5 42t-19.5 31.5t-35.5 26t-41 20.5t-51.5 20q-9 3 -13 5q-84 32 -125.5 72.5
t-41.5 111.5q0 93 69 148.5t181 55.5q107 0 163.5 -52t56.5 -139q0 -15 -4 -43h-93q4 28 4 42q0 54 -35 86t-99 32q-68 0 -108.5 -33.5t-40.5 -86.5q0 -17 3.5 -31t14 -25.5t18.5 -19t27.5 -17t29 -14t36 -14.5t36.5 -14q92 -36 133.5 -76.5t41.5 -114.5q0 -102 -74 -160
t-199 -58z" />
    <glyph glyph-name="scaron" unicode="&#x161;" horiz-adv-x="467" 
d="M480 726l-135 -155h-104l-71 155h78l51 -113l97 113h84zM198 -12q-91 0 -135 36.5t-44 100.5q0 17 3 37h86q-3 -15 -3 -29q0 -79 99 -79q51 0 80.5 21.5t29.5 56.5q0 18 -7.5 32t-24 24.5t-31 17t-40.5 15.5q-63 22 -96 52t-33 83q0 66 51 104.5t134 38.5
q80 0 121.5 -33.5t41.5 -92.5q0 -10 -2 -30h-84q3 12 3 25q0 69 -85 69q-43 0 -69 -19.5t-26 -50.5q0 -30 25.5 -48t81.5 -38q66 -24 98.5 -55t32.5 -83q0 -73 -57.5 -114t-149.5 -41z" />
    <glyph glyph-name="uni0162" unicode="&#x162;" horiz-adv-x="544" 
d="M111 706h507l-15 -78h-207l-126 -628h-9l-25 -49q43 -3 66.5 -24.5t23.5 -55.5q0 -45 -35.5 -68t-93.5 -23q-53 0 -87 17l20 49q31 -13 65 -13q30 0 47.5 11t17.5 30q0 36 -74 36h-34l43 90h-18l126 628h-208z" />
    <glyph glyph-name="uni0163" unicode="&#x163;" horiz-adv-x="356" 
d="M217 415l-50 -252q-4 -17 -4 -36q0 -61 68 -61q23 0 54 7l-15 -74q-38 -7 -67 -7h-8l-21 -41q43 -3 66.5 -24.5t23.5 -55.5q0 -45 -35.5 -68t-93.5 -23q-53 0 -87 17l20 49q31 -13 65 -13q30 0 47.5 11t17.5 30q0 36 -74 36h-34l44 92q-61 22 -61 100q0 30 7 61l50 252
h-76l15 72h76l23 118h87l-24 -118h139l-14 -72h-139z" />
    <glyph glyph-name="Tcaron" unicode="&#x164;" horiz-adv-x="544" 
d="M575 905l-144 -128h-106l-92 128h84l64 -85l99 85h95zM177 0l126 628h-208l16 78h507l-15 -78h-207l-126 -628h-93z" />
    <glyph glyph-name="tcaron" unicode="&#x165;" horiz-adv-x="383" 
d="M286 538l62 167h76l-70 -167h-68zM203 -8q-67 0 -98.5 26.5t-31.5 83.5q0 30 7 61l50 252h-76l15 72h76l23 118h87l-24 -118h139l-14 -72h-139l-50 -252q-4 -17 -4 -36q0 -61 68 -61q23 0 54 7l-15 -74q-38 -7 -67 -7z" />
    <glyph glyph-name="Tbar" unicode="&#x166;" horiz-adv-x="544" 
d="M603 628h-207l-38 -191h127l-13 -64h-127l-75 -373h-93l75 373h-130l13 64h130l38 191h-208l16 78h507z" />
    <glyph glyph-name="tbar" unicode="&#x167;" horiz-adv-x="356" 
d="M356 415h-139l-23 -118h140l-13 -60h-139l-15 -74q-4 -17 -4 -36q0 -61 68 -61q23 0 54 7l-15 -74q-38 -7 -67 -7q-67 0 -98.5 26.5t-31.5 83.5q0 30 7 61l15 74h-77l12 60h77l23 118h-76l15 72h76l23 118h87l-24 -118h139z" />
    <glyph glyph-name="Utilde" unicode="&#x168;" horiz-adv-x="643" 
d="M509 773q-45 0 -80 39q-10 10 -17.5 18t-18.5 13t-24 5q-46 0 -67 -73h-58q31 133 128 133q44 0 82 -40q25 -28 40 -33q7 -2 15 -2q46 0 69 73h58q-33 -133 -127 -133zM286 -16q-221 0 -221 185q0 42 8 79l91 458h93l-94 -471q-6 -31 -6 -57q0 -58 31.5 -85.5
t100.5 -27.5q82 0 126 39t60 121l96 481h93l-101 -502q-22 -111 -89.5 -165.5t-187.5 -54.5z" />
    <glyph glyph-name="utilde" unicode="&#x169;" horiz-adv-x="560" 
d="M286 666q-21 0 -34.5 -22.5t-26.5 -71.5h-59q18 82 47 119.5t76 37.5q45 0 74 -50l7 -10.5t6.5 -10t6 -8.5t7 -8t7 -5t9 -4t9.5 -1q21 0 33.5 22t25.5 73h59q-18 -83 -45.5 -120.5t-77.5 -37.5q-48 0 -74 48q-1 2 -4.5 7.5t-4.5 7.5t-4 7t-4.5 6.5t-4 5.5t-4.5 5.5t-5 4
t-6 3t-6 1.5t-7 1zM388 199l58 288h86l-97 -487h-87l12 57q-59 -69 -153 -69q-74 0 -111.5 39t-37.5 109q0 44 8 80l54 271h86l-53 -266q-7 -33 -7 -63q0 -94 98 -94q56 0 93.5 34.5t50.5 100.5z" />
    <glyph glyph-name="Umacron" unicode="&#x16a;" horiz-adv-x="643" 
d="M288 810l12 63h293l-12 -63h-293zM286 -16q-221 0 -221 185q0 42 8 79l91 458h93l-94 -471q-6 -31 -6 -57q0 -58 31.5 -85.5t100.5 -27.5q82 0 126 39t60 121l96 481h93l-101 -502q-22 -111 -89.5 -165.5t-187.5 -54.5z" />
    <glyph glyph-name="umacron" unicode="&#x16b;" horiz-adv-x="560" 
d="M495 670l-12 -61h-283l12 61h283zM446 487h86l-97 -487h-87l12 57q-59 -69 -153 -69q-74 0 -111.5 39t-37.5 109q0 44 8 80l54 271h86l-53 -266q-7 -33 -7 -63q0 -94 98 -94q56 0 93.5 34.5t50.5 100.5z" />
    <glyph glyph-name="Ubreve" unicode="&#x16c;" horiz-adv-x="643" 
d="M427 772q-126 0 -126 104q0 9 2 29h62q-1 -6 -1 -16q0 -63 70 -63q75 0 102 79h66q-34 -133 -175 -133zM286 -16q-221 0 -221 185q0 42 8 79l91 458h93l-94 -471q-6 -31 -6 -57q0 -58 31.5 -85.5t100.5 -27.5q82 0 126 39t60 121l96 481h93l-101 -502
q-22 -111 -89.5 -165.5t-187.5 -54.5z" />
    <glyph glyph-name="ubreve" unicode="&#x16d;" horiz-adv-x="560" 
d="M341 568q-132 0 -132 126q0 15 3 33h65q-2 -13 -2 -35q0 -35 16 -52t52 -17q44 0 68.5 25t39.5 79h68q-19 -80 -61.5 -119.5t-116.5 -39.5zM446 487h86l-97 -487h-87l12 57q-59 -69 -153 -69q-74 0 -111.5 39t-37.5 109q0 44 8 80l54 271h86l-53 -266q-7 -33 -7 -63
q0 -94 98 -94q56 0 93.5 34.5t50.5 100.5z" />
    <glyph glyph-name="Uring" unicode="&#x16e;" horiz-adv-x="643" 
d="M431 744q-51 0 -81.5 29t-30.5 78q0 47 30.5 76.5t81.5 29.5t82.5 -29.5t31.5 -76.5q0 -48 -31 -77.5t-83 -29.5zM431 793q27 0 43 16t16 42q0 25 -16.5 41t-42.5 16t-42 -15.5t-16 -41.5t16 -42t42 -16zM286 -16q-221 0 -221 185q0 42 8 79l91 458h93l-94 -471
q-6 -31 -6 -57q0 -58 31.5 -85.5t100.5 -27.5q82 0 126 39t60 121l96 481h93l-101 -502q-22 -111 -89.5 -165.5t-187.5 -54.5z" />
    <glyph glyph-name="uring" unicode="&#x16f;" horiz-adv-x="560" 
d="M344 554q-51 0 -81.5 29.5t-30.5 77.5t30.5 77t81.5 29q52 0 83 -29.5t31 -76.5q0 -48 -31 -77.5t-83 -29.5zM344 718q-26 0 -41.5 -15.5t-15.5 -41.5t15.5 -42t41.5 -16q27 0 43 16t16 42q0 25 -16.5 41t-42.5 16zM446 487h86l-97 -487h-87l12 57q-59 -69 -153 -69
q-74 0 -111.5 39t-37.5 109q0 44 8 80l54 271h86l-53 -266q-7 -33 -7 -63q0 -94 98 -94q56 0 93.5 34.5t50.5 100.5z" />
    <glyph glyph-name="Uhungarumlaut" unicode="&#x170;" horiz-adv-x="643" 
d="M305 778l128 127h90l-141 -127h-77zM454 778l128 127h89l-140 -127h-77zM286 -16q-221 0 -221 185q0 42 8 79l91 458h93l-94 -471q-6 -31 -6 -57q0 -58 31.5 -85.5t100.5 -27.5q82 0 126 39t60 121l96 481h93l-101 -502q-22 -111 -89.5 -165.5t-187.5 -54.5z" />
    <glyph glyph-name="uhungarumlaut" unicode="&#x171;" horiz-adv-x="560" 
d="M433 727l-146 -155h-72l131 155h87zM435 572h-73l131 155h87zM388 199l58 288h86l-97 -487h-87l12 57q-59 -69 -153 -69q-74 0 -111.5 39t-37.5 109q0 44 8 80l54 271h86l-53 -266q-7 -33 -7 -63q0 -94 98 -94q56 0 93.5 34.5t50.5 100.5z" />
    <glyph glyph-name="Uogonek" unicode="&#x172;" horiz-adv-x="643" 
d="M571 706h93l-101 -502q-15 -72 -46 -120t-86 -83q-33 -22 -52 -37t-36.5 -37.5t-17.5 -43.5q0 -38 45 -38q18 0 41 7l-12 -58q-25 -6 -52 -6q-45 0 -71.5 21t-26.5 59q0 60 86 119q-23 -3 -49 -3q-221 0 -221 185q0 42 8 79l91 458h93l-94 -471q-6 -31 -6 -57
q0 -58 31.5 -85.5t100.5 -27.5q82 0 126 39t60 121z" />
    <glyph glyph-name="uogonek" unicode="&#x173;" horiz-adv-x="560" 
d="M435 0q-27 -18 -39.5 -27.5t-31.5 -26t-27 -32t-8 -31.5q0 -38 46 -38q19 0 40 7l-11 -58q-26 -6 -53 -6q-45 0 -71 21t-26 59q0 67 107 132h-13l12 57q-59 -69 -153 -69q-74 0 -111.5 39t-37.5 109q0 44 8 80l54 271h86l-53 -266q-7 -33 -7 -63q0 -94 98 -94
q56 0 93.5 34.5t50.5 100.5l58 288h86z" />
    <glyph glyph-name="Wcircumflex" unicode="&#x174;" horiz-adv-x="896" 
d="M571 863l-98 -86h-95l143 128h106l92 -128h-83zM886 706h94l-333 -706h-100l-36 579l-258 -579h-96l-56 706h87l42 -574l253 574h100l38 -572z" />
    <glyph glyph-name="wcircumflex" unicode="&#x175;" horiz-adv-x="752" 
d="M453 684l-96 -113h-85l135 156h104l72 -156h-79zM686 487h98l-265 -487h-87l-35 370l-177 -370h-85l-69 487h88l41 -375l184 375h78l38 -374z" />
    <glyph glyph-name="Ycircumflex" unicode="&#x176;" horiz-adv-x="563" 
d="M209 777l143 128h106l92 -128h-83l-65 86l-98 -86h-95zM188 0l61 304l-148 402h93l115 -311l230 311h108l-306 -402l-61 -304h-92z" />
    <glyph glyph-name="ycircumflex" unicode="&#x177;" horiz-adv-x="510" 
d="M334 684l-96 -113h-85l135 156h104l72 -156h-79zM443 487h99l-422 -688h-95l124 202l-83 486h88l61 -388z" />
    <glyph glyph-name="Ydieresis" unicode="&#x178;" horiz-adv-x="563" 
d="M287 797q-24 0 -39.5 15t-15.5 38t15.5 38.5t39.5 15.5q23 0 39 -15.5t16 -38.5t-16 -38t-39 -15zM495 797q-24 0 -39.5 15t-15.5 38t15.5 38.5t39.5 15.5q23 0 39.5 -15.5t16.5 -38.5t-16 -38t-40 -15zM188 0l61 304l-148 402h93l115 -311l230 311h108l-306 -402
l-61 -304h-92z" />
    <glyph glyph-name="Zacute" unicode="&#x179;" horiz-adv-x="571" 
d="M297 777l133 128h105l-141 -128h-97zM-26 0l482 626h-340l16 80h492l-480 -626h367l-16 -80h-521z" />
    <glyph glyph-name="zacute" unicode="&#x17a;" horiz-adv-x="458" 
d="M429 726l-127 -154h-87l119 154h95zM485 487l-352 -415h266l-15 -72h-415l357 415h-249l14 72h394z" />
    <glyph glyph-name="Zdotaccent" unicode="&#x17b;" horiz-adv-x="571" 
d="M387 792q-24 0 -39.5 14.5t-15.5 37.5t15.5 38t39.5 15q23 0 39 -15t16 -38q0 -22 -16 -37t-39 -15zM-26 0l482 626h-340l16 80h492l-480 -626h367l-16 -80h-521z" />
    <glyph glyph-name="zdotaccent" unicode="&#x17c;" horiz-adv-x="458" 
d="M296 595q-25 0 -41 15.5t-16 39.5q0 25 16 41t41 16q24 0 41 -16.5t17 -40.5t-17 -39.5t-41 -15.5zM485 487l-352 -415h266l-15 -72h-415l357 415h-249l14 72h394z" />
    <glyph glyph-name="Zcaron" unicode="&#x17d;" horiz-adv-x="571" 
d="M571 905l-144 -128h-106l-92 128h84l64 -85l99 85h95zM-26 0l482 626h-340l16 80h492l-480 -626h367l-16 -80h-521z" />
    <glyph glyph-name="zcaron" unicode="&#x17e;" horiz-adv-x="458" 
d="M336 571h-104l-71 155h78l51 -113l97 113h84zM485 487l-352 -415h266l-15 -72h-415l357 415h-249l14 72h394z" />
    <glyph glyph-name="Schwa" unicode="&#x18f;" horiz-adv-x="691" 
d="M405 722q131 0 196 -80t65 -212q0 -122 -43 -223.5t-124.5 -162t-184.5 -60.5q-115 0 -181.5 74.5t-66.5 208.5q0 50 8 100h494q3 32 3 65q0 97 -41 152.5t-129 55.5q-151 0 -205 -157h-97q34 114 115 176.5t191 62.5zM318 64q89 0 150 62t87 165h-398q-1 -9 -1 -26
q0 -94 40 -147.5t122 -53.5z" />
    <glyph glyph-name="florin" unicode="&#x192;" horiz-adv-x="384" 
d="M37 -7q-28 0 -64 8l14 70q18 -5 41 -5q85 0 103 88l46 225h-123l11 55h123l29 144q26 139 174 139q30 0 65 -7l-14 -71q-21 6 -45 6q-81 0 -99 -90l-25 -121h128l-11 -55h-127l-50 -247q-27 -139 -176 -139z" />
    <glyph glyph-name="Aringacute" unicode="&#x1fa;" horiz-adv-x="630" 
d="M630 1156l-141 -128h-97l133 128h105zM423 744q-51 0 -81.5 29t-30.5 78q0 47 30.5 76.5t81.5 29.5t82.5 -29.5t31.5 -76.5q0 -48 -31 -77.5t-83 -29.5zM423 908q-26 0 -42 -15.5t-16 -41.5t16 -42t42 -16q27 0 43 16t16 42q0 25 -16.5 41t-42.5 16zM338 706h139l96 -706
h-92l-23 177h-305l-94 -177h-99zM193 252h256l-50 386h-2z" />
    <glyph glyph-name="aringacute" unicode="&#x1fb;" horiz-adv-x="540" 
d="M531 1007l-127 -154h-87l119 154h95zM339 554q-51 0 -81.5 29.5t-30.5 77.5t30.5 77t81.5 29q52 0 83 -29.5t31 -76.5q0 -48 -31 -77.5t-83 -29.5zM339 718q-26 0 -41.5 -15.5t-15.5 -41.5t15.5 -42t41.5 -16q27 0 43 16t16 42q0 25 -16.5 41t-42.5 16zM294 499
q99 0 142.5 -42.5t43.5 -122.5q0 -32 -10 -82l-51 -252h-87l13 64q-65 -76 -175 -76q-75 0 -113 35.5t-38 96.5q0 166 245 166h125q6 30 6 51q0 47 -24 70.5t-79 23.5q-109 0 -125 -96h-90q14 77 70 120.5t147 43.5zM204 58q73 0 114.5 40t58.5 126h-109q-155 0 -155 -92
q0 -74 91 -74z" />
    <glyph glyph-name="AEacute" unicode="&#x1fc;" horiz-adv-x="787" 
d="M713 905l-141 -128h-97l133 128h105zM813 628h-291l-18 -229h260l-16 -78h-250l-19 -243h224l-16 -78h-308l15 179h-227l-104 -179h-103l418 706h450zM401 254l32 379h-2l-220 -379h190z" />
    <glyph glyph-name="aeacute" unicode="&#x1fd;" horiz-adv-x="860" 
d="M646 726l-127 -154h-87l119 154h95zM815 225h-351q-1 -10 -1 -30q0 -135 113 -135q99 0 131 92h92q-24 -78 -84.5 -120.5t-141.5 -42.5q-140 0 -179 118q-69 -119 -214 -119q-80 0 -120.5 35.5t-40.5 97.5q0 166 245 166h125q7 29 7 50q0 47 -24.5 70.5t-79.5 23.5
q-108 0 -126 -96h-89q14 77 70 120.5t147 43.5q126 0 164 -77q67 77 172 77q87 0 138.5 -54t51.5 -152q0 -35 -5 -68zM627 429q-59 0 -97.5 -39t-55.5 -103h260v10q0 132 -107 132zM204 58q73 0 114.5 40.5t59.5 126.5h-109q-156 0 -156 -93q0 -74 91 -74z" />
    <glyph glyph-name="Oslashacute" unicode="&#x1fe;" horiz-adv-x="726" 
d="M626 905l-141 -128h-97l133 128h105zM795 706l-124 -115q31 -65 31 -154q0 -123 -42 -225t-126.5 -165t-197.5 -63q-144 0 -212 89l-77 -73h-80l130 119q-29 62 -29 151q0 122 42 223.5t126.5 165t196.5 63.5q142 0 210 -86l72 70h80zM426 641q-82 0 -143.5 -54.5
t-91 -137.5t-29.5 -180q0 -46 10 -82l400 388q-45 66 -146 66zM343 65q122 0 193 111t71 262q0 45 -11 86l-402 -387q45 -72 149 -72z" />
    <glyph glyph-name="oslashacute" unicode="&#x1ff;" horiz-adv-x="549" 
d="M487 726l-127 -154h-87l119 154h95zM558 487l-79 -75q30 -50 30 -126q0 -128 -72.5 -213t-195.5 -85q-91 0 -144 51l-40 -39h-69l81 76q-29 51 -29 123q0 128 73.5 214t193.5 86q90 0 143 -50l39 38h69zM302 423q-81 0 -126.5 -67.5t-45.5 -154.5q0 -37 8 -60l250 249
q-28 33 -86 33zM247 64q83 0 127.5 65.5t44.5 156.5q0 33 -8 63l-252 -249q30 -36 88 -36z" />
    <glyph glyph-name="uni0218" unicode="&#x218;" horiz-adv-x="595" 
d="M274 -16q-123 0 -182 55.5t-59 151.5q0 25 2 38h98q-3 -20 -3 -37q0 -63 37.5 -98t114.5 -35q78 0 122.5 35t44.5 95q0 23 -8.5 42t-19.5 31.5t-35.5 26t-41 20.5t-51.5 20q-9 3 -13 5q-84 32 -125.5 72.5t-41.5 111.5q0 93 69 148.5t181 55.5q107 0 163.5 -52t56.5 -139
q0 -15 -4 -43h-93q4 28 4 42q0 54 -35 86t-99 32q-68 0 -108.5 -33.5t-40.5 -86.5q0 -17 3.5 -31t14 -25.5t18.5 -19t27.5 -17t29 -14t36 -14.5t36.5 -14q92 -36 133.5 -76.5t41.5 -114.5q0 -102 -74 -160t-199 -58zM171 -201l62 148h89l-70 -148h-81z" />
    <glyph glyph-name="uni0219" unicode="&#x219;" horiz-adv-x="467" 
d="M198 -12q-91 0 -135 36.5t-44 100.5q0 17 3 37h86q-3 -15 -3 -29q0 -79 99 -79q51 0 80.5 21.5t29.5 56.5q0 18 -7.5 32t-24 24.5t-31 17t-40.5 15.5q-63 22 -96 52t-33 83q0 66 51 104.5t134 38.5q80 0 121.5 -33.5t41.5 -92.5q0 -10 -2 -30h-84q3 12 3 25q0 69 -85 69
q-43 0 -69 -19.5t-26 -50.5q0 -30 25.5 -48t81.5 -38q66 -24 98.5 -55t32.5 -83q0 -73 -57.5 -114t-149.5 -41zM83 -201l62 148h89l-70 -148h-81z" />
    <glyph glyph-name="uni021A" unicode="&#x21a;" horiz-adv-x="544" 
d="M177 0l126 628h-208l16 78h507l-15 -78h-207l-126 -628h-93zM110 -201l62 148h89l-70 -148h-81z" />
    <glyph glyph-name="uni021B" unicode="&#x21b;" horiz-adv-x="356" 
d="M203 -8q-67 0 -98.5 26.5t-31.5 83.5q0 30 7 61l50 252h-76l15 72h76l23 118h87l-24 -118h139l-14 -72h-139l-50 -252q-4 -17 -4 -36q0 -61 68 -61q23 0 54 7l-15 -74q-38 -7 -67 -7zM48 -201l62 148h89l-70 -148h-81z" />
    <glyph glyph-name="uni0237" unicode="&#x237;" horiz-adv-x="237" 
d="M-56 -204q-29 0 -53 4l15 76q12 -2 29 -2q36 0 55 17t26 56l108 540h87l-113 -564q-13 -67 -50 -97t-104 -30z" />
    <glyph glyph-name="uni0259" unicode="&#x259;" horiz-adv-x="547" 
d="M296 498q107 0 159 -56t52 -151q0 -129 -73.5 -216t-194.5 -87q-93 0 -146.5 54t-53.5 152q0 36 6 67h373q1 10 1 31q0 135 -126 135q-106 0 -141 -92h-92q25 77 89 120t147 43zM243 58q62 0 103.5 37.5t59.5 100.5h-281v-6q0 -132 118 -132z" />
    <glyph glyph-name="circumflex" unicode="&#x2c6;" horiz-adv-x="410" 
d="M115 571l135 156h104l72 -156h-79l-51 113l-96 -113h-85z" />
    <glyph glyph-name="caron" unicode="&#x2c7;" horiz-adv-x="410" 
d="M457 726l-135 -155h-104l-71 155h78l51 -113l97 113h84z" />
    <glyph glyph-name="uni02C9" unicode="&#x2c9;" horiz-adv-x="383" 
d="M123 609l12 61h283l-12 -61h-283z" />
    <glyph glyph-name="breve" unicode="&#x2d8;" horiz-adv-x="408" 
d="M276 568q-132 0 -132 126q0 15 3 33h65q-2 -13 -2 -35q0 -35 16 -52t52 -17q44 0 68.5 25t39.5 79h68q-19 -80 -61.5 -119.5t-116.5 -39.5z" />
    <glyph glyph-name="dotaccent" unicode="&#x2d9;" horiz-adv-x="217" 
d="M190 595q-25 0 -41 15.5t-16 39.5q0 25 16 41t41 16q24 0 41 -16.5t17 -40.5t-17 -39.5t-41 -15.5z" />
    <glyph glyph-name="ring" unicode="&#x2da;" horiz-adv-x="331" 
d="M248 554q-51 0 -81.5 29.5t-30.5 77.5t30.5 77t81.5 29q52 0 83 -29.5t31 -76.5q0 -48 -31 -77.5t-83 -29.5zM248 603q27 0 43 16t16 42q0 25 -16.5 41t-42.5 16t-41.5 -15.5t-15.5 -41.5t15.5 -42t41.5 -16z" />
    <glyph glyph-name="ogonek" unicode="&#x2db;" horiz-adv-x="267" 
d="M74 -212q-45 0 -71 21t-26 59q0 71 119 139l62 -7q-27 -18 -39.5 -27.5t-31.5 -26t-27 -32t-8 -31.5q0 -38 46 -38q19 0 40 7l-11 -58q-26 -6 -53 -6z" />
    <glyph glyph-name="tilde" unicode="&#x2dc;" horiz-adv-x="435" 
d="M359 569q-48 0 -74 48q-1 2 -4.5 7.5t-4.5 7.5t-4 7t-4.5 6.5t-4 5.5t-4.5 5.5t-5 4t-6 3t-6 1.5t-7 1q-21 0 -34.5 -22.5t-26.5 -71.5h-59q18 82 47 119.5t76 37.5q45 0 74 -50l7 -10.5t6.5 -10t6 -8.5t7 -8t7 -5t9 -4t9.5 -1q21 0 33.5 22t25.5 73h59
q-18 -83 -45.5 -120.5t-77.5 -37.5z" />
    <glyph glyph-name="hungarumlaut" unicode="&#x2dd;" horiz-adv-x="434" 
d="M116 572l131 155h87l-146 -155h-72zM263 572l131 155h87l-145 -155h-73z" />
    <glyph glyph-name="gravecomb" unicode="&#x300;" 
d="M16 572h-76l-75 154h84z" />
    <glyph glyph-name="acutecomb" unicode="&#x301;" 
d="M-167 572l119 154h95l-127 -154h-87z" />
    <glyph glyph-name="uni0302" unicode="&#x302;" 
d="M-295 571l135 156h104l72 -156h-79l-51 113l-96 -113h-85z" />
    <glyph glyph-name="tildecomb" unicode="&#x303;" 
d="M-76 569q-48 0 -74 48q-1 2 -4.5 7.5t-4.5 7.5t-4 7t-4.5 6.5t-4 5.5t-4.5 5.5t-5 4t-6 3t-6 1.5t-7 1q-21 0 -34.5 -22.5t-26.5 -71.5h-59q18 82 47 119.5t76 37.5q45 0 74 -50l7 -10.5t6.5 -10t6 -8.5t7 -8t7 -5t9 -4t9.5 -1q21 0 33.5 22t25.5 73h59
q-18 -83 -45.5 -120.5t-77.5 -37.5z" />
    <glyph glyph-name="uni0304" unicode="&#x304;" 
d="M-260 609l12 61h283l-12 -61h-283z" />
    <glyph glyph-name="uni0306" unicode="&#x306;" 
d="M-132 568q-132 0 -132 126q0 15 3 33h65q-2 -13 -2 -35q0 -35 16 -52t52 -17q44 0 68.5 25t39.5 79h68q-19 -80 -61.5 -119.5t-116.5 -39.5z" />
    <glyph glyph-name="uni0307" unicode="&#x307;" 
d="M-27 595q-25 0 -41 15.5t-16 39.5q0 25 16 41t41 16q24 0 41 -16.5t17 -40.5t-17 -39.5t-41 -15.5z" />
    <glyph glyph-name="uni0308" unicode="&#x308;" 
d="M-216 586q-24 0 -40 15.5t-16 38.5q0 24 16 40t40 16q23 0 39.5 -16t16.5 -40q0 -23 -16.5 -38.5t-39.5 -15.5zM-26 586q-25 0 -40.5 15.5t-15.5 38.5q0 24 15.5 40t40.5 16q23 0 39.5 -16t16.5 -40q0 -23 -16.5 -38.5t-39.5 -15.5z" />
    <glyph glyph-name="uni030A" unicode="&#x30a;" 
d="M-83 554q-51 0 -81.5 29.5t-30.5 77.5t30.5 77t81.5 29q52 0 83 -29.5t31 -76.5q0 -48 -31 -77.5t-83 -29.5zM-83 603q27 0 43 16t16 42q0 25 -16.5 41t-42.5 16t-41.5 -15.5t-15.5 -41.5t15.5 -42t41.5 -16z" />
    <glyph glyph-name="uni030B" unicode="&#x30b;" 
d="M-318 572l131 155h87l-146 -155h-72zM-171 572l131 155h87l-145 -155h-73z" />
    <glyph glyph-name="uni030C" unicode="&#x30c;" 
d="M47 726l-135 -155h-104l-71 155h78l51 -113l97 113h84z" />
    <glyph glyph-name="uni0312" unicode="&#x312;" 
d="M45 719l-62 -147h-89l71 147h80z" />
    <glyph glyph-name="uni0326" unicode="&#x326;" 
d="M-261 -201l62 148h89l-70 -148h-81z" />
    <glyph glyph-name="uni0327" unicode="&#x327;" 
d="M-216 -49q43 -3 66.5 -24.5t23.5 -55.5q0 -45 -35.5 -68t-93.5 -23q-53 0 -87 17l20 49q31 -13 65 -13q30 0 47.5 11t17.5 30q0 36 -74 36h-34l45 95h66z" />
    <glyph glyph-name="uni0328" unicode="&#x328;" 
d="M-193 -212q-45 0 -71 21t-26 59q0 71 119 139l62 -7q-27 -18 -39.5 -27.5t-31.5 -26t-27 -32t-8 -31.5q0 -38 46 -38q19 0 40 7l-11 -58q-26 -6 -53 -6z" />
    <glyph glyph-name="uni0335" unicode="&#x335;" 
d="M-343 296l12 60h304l-13 -60h-303z" />
    <glyph glyph-name="uni0336" unicode="&#x336;" 
d="M-305 600l12 60h376l-12 -60h-376z" />
    <glyph glyph-name="uni0337" unicode="&#x337;" 
d="M-88 344l16 80l123 76l-16 -78zM-228 273l15 78l122 74l-16 -79z" />
    <glyph glyph-name="uni0338" unicode="&#x338;" 
d="M-561 0l119 112h2l315 313l65 62h69l-119 -112h-2l-315 -312l-65 -63h-69z" />
    <glyph glyph-name="uni0394" unicode="&#x394;" horiz-adv-x="630" 
d="M477 706l96 -706h-613l378 706h139zM101 75h372l-73 562h-2z" />
    <glyph glyph-name="uni0394" unicode="&#x3b4;" horiz-adv-x="630" 
d="M477 706l96 -706h-613l378 706h139zM101 75h372l-73 562h-2z" />
    <glyph glyph-name="uni03A9" unicode="&#x3a9;" horiz-adv-x="701" 
d="M23 0l15 72h156l17 82q-124 57 -124 231q0 150 92 243.5t242 93.5q136 0 201.5 -67.5t65.5 -186.5q0 -117 -63.5 -206t-171.5 -119l-15 -71h157l-14 -72h-233l41 205q96 13 150.5 87t54.5 174q0 84 -43 132.5t-134 48.5q-110 0 -173.5 -74.5t-63.5 -189.5
q0 -145 117 -178l-41 -205h-233z" />
    <glyph glyph-name="uni03A9" unicode="&#x3c9;" horiz-adv-x="701" 
d="M23 0l15 72h156l17 82q-124 57 -124 231q0 150 92 243.5t242 93.5q136 0 201.5 -67.5t65.5 -186.5q0 -117 -63.5 -206t-171.5 -119l-15 -71h157l-14 -72h-233l41 205q96 13 150.5 87t54.5 174q0 84 -43 132.5t-134 48.5q-110 0 -173.5 -74.5t-63.5 -189.5
q0 -145 117 -178l-41 -205h-233z" />
    <glyph glyph-name="uni03BC" unicode="&#x3bc;" horiz-adv-x="563" 
d="M451 487h85l-97 -487h-84l12 63q-60 -75 -154 -75q-72 0 -101 43q-6 -59 -18 -118l-22 -114h-85l137 688h85l-56 -282q-6 -24 -6 -55q0 -45 22.5 -66t69.5 -21q126 0 156 140z" />
    <glyph glyph-name="pi" unicode="&#x3c0;" horiz-adv-x="673" 
d="M541 -8q-67 0 -98.5 26.5t-31.5 83.5q0 22 7 61l51 252h-196l-82 -415h-87l83 415h-99l14 72h565l-15 -72h-97l-50 -252q-4 -17 -4 -36q0 -61 68 -61q9 0 13 1l-15 -73q-18 -2 -26 -2z" />
    <glyph glyph-name="Wgrave" unicode="&#x1e80;" horiz-adv-x="896" 
d="M627 777h-84l-104 128h92zM886 706h94l-333 -706h-100l-36 579l-258 -579h-96l-56 706h87l42 -574l253 574h100l38 -572z" />
    <glyph glyph-name="wgrave" unicode="&#x1e81;" horiz-adv-x="752" 
d="M496 572h-76l-75 154h84zM686 487h98l-265 -487h-87l-35 370l-177 -370h-85l-69 487h88l41 -375l184 375h78l38 -374z" />
    <glyph glyph-name="Wacute" unicode="&#x1e82;" horiz-adv-x="896" 
d="M710 905l-141 -128h-97l133 128h105zM886 706h94l-333 -706h-100l-36 579l-258 -579h-96l-56 706h87l42 -574l253 574h100l38 -572z" />
    <glyph glyph-name="wacute" unicode="&#x1e83;" horiz-adv-x="752" 
d="M575 726l-127 -154h-87l119 154h95zM686 487h98l-265 -487h-87l-35 370l-177 -370h-85l-69 487h88l41 -375l184 375h78l38 -374z" />
    <glyph glyph-name="Wdieresis" unicode="&#x1e84;" horiz-adv-x="896" 
d="M457 797q-24 0 -39.5 15t-15.5 38t15.5 38.5t39.5 15.5q23 0 39 -15.5t16 -38.5t-16 -38t-39 -15zM665 797q-24 0 -39.5 15t-15.5 38t15.5 38.5t39.5 15.5q23 0 39.5 -15.5t16.5 -38.5t-16 -38t-40 -15zM886 706h94l-333 -706h-100l-36 579l-258 -579h-96l-56 706h87
l42 -574l253 574h100l38 -572z" />
    <glyph glyph-name="wdieresis" unicode="&#x1e85;" horiz-adv-x="752" 
d="M348 586q-24 0 -40 15.5t-16 38.5q0 24 16 40t40 16q23 0 39.5 -16t16.5 -40q0 -23 -16.5 -38.5t-39.5 -15.5zM538 586q-25 0 -40.5 15.5t-15.5 38.5q0 24 15.5 40t40.5 16q23 0 39.5 -16t16.5 -40q0 -23 -16.5 -38.5t-39.5 -15.5zM686 487h98l-265 -487h-87l-35 370
l-177 -370h-85l-69 487h88l41 -375l184 375h78l38 -374z" />
    <glyph glyph-name="uni1E9E" unicode="&#x1e9e;" horiz-adv-x="657" 
d="M677 706l-1 -4l-210 -297q71 -16 106.5 -61.5t35.5 -111.5q0 -108 -79 -171.5t-208 -63.5q-61 0 -101 8l16 80q35 -7 85 -7q92 0 142.5 41.5t50.5 114.5q0 118 -154 118q-14 0 -26 -2v3l192 273h-266l-126 -626h-92l141 706h494z" />
    <glyph glyph-name="Ygrave" unicode="&#x1ef2;" horiz-adv-x="563" 
d="M457 777h-84l-104 128h92zM188 0l61 304l-148 402h93l115 -311l230 311h108l-306 -402l-61 -304h-92z" />
    <glyph glyph-name="ygrave" unicode="&#x1ef3;" horiz-adv-x="510" 
d="M377 572h-76l-75 154h84zM443 487h99l-422 -688h-95l124 202l-83 486h88l61 -388z" />
    <glyph glyph-name="uni2009" unicode="&#x2009;" horiz-adv-x="73" 
 />
    <glyph glyph-name="uni2011" unicode="&#x2011;" horiz-adv-x="600" 
d="M54 245l16 78h279l-16 -78h-279z" />
    <glyph glyph-name="endash" unicode="&#x2013;" horiz-adv-x="493" 
d="M55 247l15 76h385l-15 -76h-385z" />
    <glyph glyph-name="emdash" unicode="&#x2014;" horiz-adv-x="962" 
d="M55 247l15 76h854l-15 -76h-854z" />
    <glyph glyph-name="quoteleft" unicode="&#x2018;" horiz-adv-x="244" 
d="M294 706l-120 -281h-95l142 281h73z" />
    <glyph glyph-name="quoteright" unicode="&#x2019;" horiz-adv-x="244" 
d="M79 425l120 281h95l-142 -281h-73z" />
    <glyph glyph-name="quotesinglbase" unicode="&#x201a;" horiz-adv-x="244" 
d="M-33 -135l120 281h95l-142 -281h-73z" />
    <glyph glyph-name="quotedblleft" unicode="&#x201c;" horiz-adv-x="423" 
d="M294 706l-120 -281h-95l142 281h73zM473 706l-120 -281h-95l142 281h73z" />
    <glyph glyph-name="quotedblright" unicode="&#x201d;" horiz-adv-x="423" 
d="M79 425l120 281h95l-142 -281h-73zM258 425l120 281h95l-142 -281h-73z" />
    <glyph glyph-name="quotedblbase" unicode="&#x201e;" horiz-adv-x="423" 
d="M-33 -135l120 281h95l-142 -281h-73zM146 -135l120 281h95l-142 -281h-73z" />
    <glyph glyph-name="dagger" unicode="&#x2020;" horiz-adv-x="396" 
d="M429 541l-16 -79h-127l-92 -462h-89l92 462h-127l16 79h127l33 165h89l-33 -165h127z" />
    <glyph glyph-name="daggerdbl" unicode="&#x2021;" horiz-adv-x="396" 
d="M414 469h-126l-47 -232h127l-16 -79h-126l-32 -158h-89l32 158h-128l16 79h127l47 232h-128l16 79h127l32 158h89l-32 -158h127z" />
    <glyph glyph-name="bullet" unicode="&#x2022;" horiz-adv-x="429" 
d="M239 252q-51 0 -82 31.5t-31 82.5q0 53 30.5 82.5t82.5 29.5q51 0 81.5 -29.5t30.5 -82.5q0 -51 -31 -82.5t-81 -31.5z" />
    <glyph glyph-name="ellipsis" unicode="&#x2026;" horiz-adv-x="727" 
d="M100 -14q-28 0 -45 17t-17 43q0 28 17 45t45 17q27 0 44.5 -17.5t17.5 -44.5q0 -26 -18 -43t-44 -17zM324 -14q-28 0 -45 17t-17 43q0 28 17 45t45 17q27 0 44.5 -17.5t17.5 -44.5q0 -26 -18 -43t-44 -17zM549 -14q-28 0 -45 17t-17 43q0 28 17 45t45 17q27 0 44.5 -17.5
t17.5 -44.5q0 -26 -18 -43t-44 -17z" />
    <glyph glyph-name="perthousand" unicode="&#x2030;" horiz-adv-x="1114" 
d="M228 403q-62 0 -91 35.5t-29 95.5q0 78 41.5 128.5t114.5 50.5q61 0 90 -35.5t29 -95.5q0 -77 -41.5 -128t-113.5 -51zM50 0l616 706h78l-616 -706h-78zM231 459q46 0 68 35t22 87q0 77 -62 77q-45 0 -67.5 -35.5t-22.5 -88.5q0 -75 62 -75zM531 -7q-61 0 -90 35.5
t-29 95.5q0 78 41.5 128.5t113.5 50.5q119 0 119 -131q0 -77 -41 -128t-114 -51zM895 -7q-61 0 -90 35.5t-29 95.5q0 78 41.5 128.5t113.5 50.5q119 0 119 -131q0 -77 -41 -128t-114 -51zM535 49q45 0 67.5 35t22.5 87q0 77 -62 77q-45 0 -67.5 -35.5t-22.5 -88.5
q0 -75 62 -75zM899 49q45 0 67.5 35t22.5 87q0 77 -62 77q-45 0 -67.5 -35.5t-22.5 -88.5q0 -75 62 -75z" />
    <glyph glyph-name="guilsinglleft" unicode="&#x2039;" horiz-adv-x="288" 
d="M148 119l-119 164l181 159h101l-188 -166l114 -157h-89z" />
    <glyph glyph-name="guilsinglright" unicode="&#x203a;" horiz-adv-x="288" 
d="M154 442l119 -163l-181 -160h-100l188 166l-115 157h89z" />
    <glyph glyph-name="fraction" unicode="&#x2044;" horiz-adv-x="197" 
d="M-192 0l553 706h71l-551 -706h-73z" />
    <glyph glyph-name="uni2070" unicode="&#x2070;" horiz-adv-x="428" 
d="M268 429q-74 0 -109 43t-35 116q0 30 7 69q17 81 64 129.5t122 48.5q74 0 109 -43t35 -116q0 -30 -7 -69q-15 -80 -62.5 -129t-123.5 -49zM271 492q86 0 111 123q6 30 6 61q0 96 -74 96q-86 0 -111 -123q-6 -30 -6 -61q0 -96 74 -96z" />
    <glyph glyph-name="uni2074" unicode="&#x2074;" horiz-adv-x="377" 
d="M274 438l19 92h-231v2l230 294h130l-48 -235h58l-12 -61h-58l-18 -92h-70zM183 591h122l42 211z" />
    <glyph glyph-name="uni2075" unicode="&#x2075;" horiz-adv-x="371" 
d="M236 429q-70 0 -104.5 29.5t-34.5 81.5q0 11 2 23h67q-1 -8 -1 -16q0 -61 74 -61q42 0 66 22t24 58q0 78 -112 78q-51 0 -88 -11l72 193h230l-20 -55h-163l-30 -80q14 3 36 3q74 0 111 -33.5t37 -89.5q0 -64 -46 -103t-120 -39z" />
    <glyph glyph-name="uni2076" unicode="&#x2076;" horiz-adv-x="413" 
d="M307 691q63 0 96.5 -32.5t33.5 -82.5q0 -64 -48.5 -105.5t-120.5 -41.5q-154 0 -154 155q0 107 56 179t151 72q64 0 99 -31t38 -84h-69q-6 60 -76 60q-49 0 -81 -36.5t-42 -94.5q47 42 117 42zM268 485q45 0 69.5 25t24.5 62q0 66 -77 66q-44 0 -70.5 -25.5t-26.5 -59.5
q0 -31 21 -49.5t59 -18.5z" />
    <glyph glyph-name="uni2077" unicode="&#x2077;" horiz-adv-x="335" 
d="M97 438l211 325h-178l13 63h292l-252 -388h-86z" />
    <glyph glyph-name="uni2078" unicode="&#x2078;" horiz-adv-x="387" 
d="M441 737q0 -34 -23.5 -61t-65.5 -35q61 -21 61 -89q0 -58 -46 -90.5t-118 -32.5q-74 0 -113 29.5t-39 83.5q0 43 27.5 71t75.5 35q-56 22 -56 81q0 49 43 77.5t108 28.5q70 0 108 -25.5t38 -72.5zM289 670q37 0 59.5 17t22.5 47q0 52 -78 52q-37 0 -58.5 -16t-21.5 -47
q0 -53 76 -53zM252 483q41 0 66 20t25 53q0 59 -83 59q-40 0 -65.5 -19t-25.5 -52q0 -29 21.5 -45t61.5 -16z" />
    <glyph glyph-name="uni2079" unicode="&#x2079;" horiz-adv-x="413" 
d="M321 835q154 0 154 -155q0 -107 -56 -179t-151 -72q-64 0 -99 31t-38 84h69q6 -60 76 -60q49 0 81 36.5t42 94.5q-47 -42 -117 -42q-63 0 -96.5 32.5t-33.5 82.5q0 64 48.5 105.5t120.5 41.5zM304 626q44 0 70.5 25.5t26.5 59.5q0 31 -21 49.5t-59 18.5q-45 0 -69.5 -25
t-24.5 -62q0 -66 77 -66z" />
    <glyph glyph-name="uni207A" unicode="&#x207a;" horiz-adv-x="349" 
d="M400 663l-11 -55h-115l-22 -110h-54l22 110h-114l11 55h114l22 110h54l-22 -110h115z" />
    <glyph glyph-name="uni207B" unicode="&#x207b;" horiz-adv-x="349" 
d="M106 608l11 55h283l-11 -55h-283z" />
    <glyph glyph-name="uni207C" unicode="&#x207c;" horiz-adv-x="348" 
d="M118 665l9 49h282l-10 -49h-281zM95 556l10 49h282l-10 -49h-282z" />
    <glyph glyph-name="uni207D" unicode="&#x207d;" horiz-adv-x="249" 
d="M182 363q-36 97 -36 190q0 183 139 349h67q-149 -171 -149 -355q0 -92 34 -184h-55z" />
    <glyph glyph-name="uni207E" unicode="&#x207e;" horiz-adv-x="249" 
d="M223 902q36 -97 36 -191q0 -182 -139 -348h-67q149 171 149 354q0 91 -34 185h55z" />
    <glyph glyph-name="uni207F" unicode="&#x207f;" horiz-adv-x="380" 
d="M306 741q47 0 71.5 -25.5t24.5 -73.5q0 -21 -4 -42l-33 -162h-66l31 157q4 24 4 32q0 55 -56 55q-66 0 -81 -73l-34 -171h-67l59 295h63l-7 -34q36 42 95 42z" />
    <glyph glyph-name="uni2080" unicode="&#x2080;" horiz-adv-x="428" 
d="M156 -129q-74 0 -109 43t-35 116q0 30 7 69q17 81 64 129.5t122 48.5q74 0 109 -43t35 -116q0 -30 -7 -69q-15 -80 -62.5 -129t-123.5 -49zM159 -66q86 0 111 123q6 30 6 61q0 96 -74 96q-86 0 -111 -123q-6 -30 -6 -61q0 -96 74 -96z" />
    <glyph glyph-name="uni2081" unicode="&#x2081;" horiz-adv-x="264" 
d="M31 -120l65 323h-78l24 65h140l-78 -388h-73z" />
    <glyph glyph-name="uni2082" unicode="&#x2082;" horiz-adv-x="353" 
d="M-52 -120l1 4l204 172q43 37 61 59.5t18 51.5q0 53 -65 53q-71 0 -88 -80h-69q12 64 52 101t107 37q66 0 99.5 -28t33.5 -79q0 -39 -19.5 -68t-58.5 -61l-120 -97h156l-13 -65h-299z" />
    <glyph glyph-name="uni2083" unicode="&#x2083;" horiz-adv-x="370" 
d="M311 177q0 -72 -84 -97q57 -19 57 -82q0 -60 -45 -94t-117 -34q-141 0 -141 117q0 16 3 34h65q-3 -14 -3 -25q0 -69 77 -69q42 0 66.5 20t24.5 54q0 56 -79 56h-14l10 50h21q88 0 88 62q0 52 -66 52q-76 0 -92 -75h-65q11 60 54.5 96t113.5 36q61 0 93.5 -27.5
t32.5 -73.5z" />
    <glyph glyph-name="uni2084" unicode="&#x2084;" horiz-adv-x="377" 
d="M162 -120l19 92h-231v2l230 294h130l-48 -235h58l-12 -61h-58l-18 -92h-70zM71 33h122l42 211z" />
    <glyph glyph-name="uni2085" unicode="&#x2085;" horiz-adv-x="371" 
d="M124 -129q-70 0 -104.5 29.5t-34.5 81.5q0 11 2 23h67q-1 -8 -1 -16q0 -61 74 -61q42 0 66 22t24 58q0 78 -112 78q-51 0 -88 -11l72 193h230l-20 -55h-163l-30 -80q14 3 36 3q74 0 111 -33.5t37 -89.5q0 -64 -46 -103t-120 -39z" />
    <glyph glyph-name="uni2086" unicode="&#x2086;" horiz-adv-x="413" 
d="M195 133q63 0 96.5 -32.5t33.5 -82.5q0 -64 -48.5 -105.5t-120.5 -41.5q-154 0 -154 155q0 107 56 179t151 72q64 0 99 -31t38 -84h-69q-6 60 -76 60q-49 0 -81 -36.5t-42 -94.5q47 42 117 42zM156 -73q45 0 69.5 25t24.5 62q0 66 -77 66q-44 0 -70.5 -25.5t-26.5 -59.5
q0 -31 21 -49.5t59 -18.5z" />
    <glyph glyph-name="uni2087" unicode="&#x2087;" horiz-adv-x="335" 
d="M-15 -120l211 325h-178l13 63h292l-252 -388h-86z" />
    <glyph glyph-name="uni2088" unicode="&#x2088;" horiz-adv-x="387" 
d="M329 179q0 -34 -23.5 -61t-65.5 -35q61 -21 61 -89q0 -58 -46 -90.5t-118 -32.5q-74 0 -113 29.5t-39 83.5q0 43 27.5 71t75.5 35q-56 22 -56 81q0 49 43 77.5t108 28.5q70 0 108 -25.5t38 -72.5zM177 112q37 0 59.5 17t22.5 47q0 52 -78 52q-37 0 -58.5 -16t-21.5 -47
q0 -53 76 -53zM140 -75q41 0 66 20t25 53q0 59 -83 59q-40 0 -65.5 -19t-25.5 -52q0 -29 21.5 -45t61.5 -16z" />
    <glyph glyph-name="uni2089" unicode="&#x2089;" horiz-adv-x="416" 
d="M211 277q154 0 154 -155q0 -107 -55.5 -179t-150.5 -72q-64 0 -99 31t-38 84h68q6 -60 76 -60q50 0 82 36.5t42 95.5q-46 -43 -118 -43q-62 0 -95.5 32.5t-33.5 82.5q0 64 48.5 105.5t119.5 41.5zM195 68q43 0 69.5 25.5t26.5 59.5q0 31 -20.5 49.5t-59.5 18.5
q-45 0 -69.5 -25t-24.5 -62q0 -66 78 -66z" />
    <glyph glyph-name="uni208A" unicode="&#x208a;" horiz-adv-x="349" 
d="M288 105l-11 -55h-115l-22 -110h-54l22 110h-114l11 55h114l22 110h54l-22 -110h115z" />
    <glyph glyph-name="uni208B" unicode="&#x208b;" horiz-adv-x="349" 
d="M-6 50l11 55h283l-11 -55h-283z" />
    <glyph glyph-name="uni208C" unicode="&#x208c;" horiz-adv-x="347" 
d="M6 107l9 49h282l-10 -49h-281zM-17 -2l10 49h282l-10 -49h-282z" />
    <glyph glyph-name="uni208D" unicode="&#x208d;" horiz-adv-x="249" 
d="M70 -195q-36 97 -36 190q0 183 139 349h67q-149 -171 -149 -355q0 -92 34 -184h-55z" />
    <glyph glyph-name="uni208E" unicode="&#x208e;" horiz-adv-x="249" 
d="M111 344q36 -97 36 -191q0 -182 -139 -348h-67q149 171 149 354q0 91 -34 185h55z" />
    <glyph glyph-name="uni2099" unicode="&#x2099;" horiz-adv-x="380" 
d="M188 151q96 0 96 -99q0 -14 -5 -42l-32 -162h-66l31 157q4 24 4 32q0 55 -56 55q-66 0 -81 -72l-34 -172h-67l59 295h63l-7 -33q36 41 95 41z" />
    <glyph glyph-name="Euro" unicode="&#x20ac;" horiz-adv-x="735" 
d="M727 451h-92q1 9 1 20q0 80 -45 125t-124 45q-85 0 -146 -52t-93 -139h264l-11 -53h-269q-9 -42 -12 -86h264l-11 -52h-254q8 -194 176 -194q85 0 140.5 47t77.5 129h96q-25 -120 -111.5 -188.5t-207.5 -68.5q-133 0 -197.5 73.5t-68.5 201.5h-61l11 52h51q3 40 11 86
h-45l10 53h50q39 122 128.5 197t214.5 75q119 0 187 -66t68 -179q0 -15 -2 -26z" />
    <glyph glyph-name="uni20B9" unicode="&#x20b9;" horiz-adv-x="653" 
d="M724 706l-11 -55h-189q46 -42 49 -127h116l-11 -55h-108q-12 -85 -74.5 -130.5t-169.5 -45.5h-42l221 -293h-103l-261 354h168q147 0 171 115h-362l11 55h355q-3 112 -120 112h-213l13 70h560z" />
    <glyph glyph-name="uni20BA" unicode="&#x20ba;" horiz-adv-x="580" 
d="M481 302h87q-30 -153 -106 -227.5t-233 -74.5h-163l49 244l-82 -34l12 60l82 35l20 98l-82 -33l12 60l82 34l48 242h90l-41 -206l207 87l-13 -60l-206 -87l-20 -98l206 86l-12 -61l-206 -86l-40 -202h55q119 0 175 55.5t79 167.5z" />
    <glyph glyph-name="uni20BC" unicode="&#x20bc;" horiz-adv-x="808" 
d="M529 627q72 -4 120 -29t68 -65t25.5 -92.5t-8.5 -110.5l-65 -330h-89l67 343q41 204 -133 209l-110 -552h-92l110 552h-1q-177 0 -217 -203l-68 -349h-92l69 355q52 272 317 272h7l16 79h92z" />
    <glyph glyph-name="uni2113" unicode="&#x2113;" horiz-adv-x="423" 
d="M314 713q66 0 97 -35t31 -113q0 -43 -11 -104q-46 -225 -283 -271q-1 -10 -1 -26q0 -53 24.5 -75.5t75.5 -22.5q41 0 89 16l-15 -76q-43 -12 -90 -12q-85 0 -128 39t-43 124q0 14 1 22q-38 -2 -59 -2l14 65q21 0 55 2l51 254q23 115 68.5 165t123.5 50zM345 464
q11 57 11 100q0 47 -12 65.5t-38 18.5q-35 0 -57.5 -30.5t-37.5 -105.5l-51 -253q152 44 185 205z" />
    <glyph glyph-name="uni2117" unicode="&#x2117;" horiz-adv-x="812" 
d="M392 -16q-152 0 -236.5 88t-84.5 233q0 173 113 295t281 122q151 0 235.5 -87t84.5 -231q0 -175 -112 -297.5t-281 -122.5zM394 32q149 0 244.5 108.5t95.5 263.5q0 123 -71 196t-199 73q-149 0 -245.5 -107.5t-96.5 -260.5q0 -124 71.5 -198.5t200.5 -74.5zM256 120
l94 470h137q133 0 133 -122q0 -70 -42.5 -110.5t-116.5 -40.5h-93l-39 -197h-73zM379 374h72q47 0 70 23.5t23 65.5q0 69 -72 69h-60z" />
    <glyph glyph-name="trademark" unicode="&#x2122;" horiz-adv-x="650" 
d="M116 396l52 259h-75l10 51h211l-10 -51h-75l-52 -259h-61zM285 396l62 310h71l50 -229l142 229h78l-62 -310h-58l45 226l-141 -226h-33l-51 226l-45 -226h-58z" />
    <glyph glyph-name="uni2126" unicode="&#x2126;" horiz-adv-x="701" 
d="M23 0l15 72h156l17 82q-124 57 -124 231q0 150 92 243.5t242 93.5q136 0 201.5 -67.5t65.5 -186.5q0 -117 -63.5 -206t-171.5 -119l-15 -71h157l-14 -72h-233l41 205q96 13 150.5 87t54.5 174q0 84 -43 132.5t-134 48.5q-110 0 -173.5 -74.5t-63.5 -189.5
q0 -145 117 -178l-41 -205h-233z" />
    <glyph glyph-name="estimated" unicode="&#x212e;" horiz-adv-x="852" 
d="M428 -11q-100 0 -186 42.5t-139.5 121.5t-53.5 177q0 145 110.5 243t268.5 98q156 0 267 -99.5t111 -247.5h-608q-10 0 -10 -11v-197q47 -51 110 -78.5t130 -27.5q73 0 139 32.5t113 88.5h57q-56 -68 -138 -105t-171 -37zM198 347h461q9 0 9 11v184q-44 51 -108 79.5
t-132 28.5q-70 0 -133 -28.5t-107 -78.5v-185q0 -11 10 -11z" />
    <glyph glyph-name="partialdiff" unicode="&#x2202;" horiz-adv-x="614" 
d="M375 722q226 0 226 -268q0 -126 -38.5 -231.5t-117.5 -172t-184 -66.5q-113 0 -171 58t-58 152q0 113 73.5 188t186.5 75q86 0 136.5 -40t62.5 -109q21 81 21 145q0 195 -141 195q-66 0 -107 -37.5t-61 -94.5h-89q28 92 94.5 149t166.5 57zM265 60q81 0 134 53.5
t53 128.5q0 66 -37 105.5t-109 39.5q-80 0 -129 -54t-49 -135q0 -63 34 -100.5t103 -37.5z" />
    <glyph glyph-name="uni2206" unicode="&#x2206;" horiz-adv-x="630" 
d="M477 706l96 -706h-613l378 706h139zM101 75h372l-73 562h-2z" />
    <glyph glyph-name="product" unicode="&#x220f;" horiz-adv-x="691" 
d="M2 -201l181 907h510l-181 -907h-93l165 827h-324l-165 -827h-93z" />
    <glyph glyph-name="summation" unicode="&#x2211;" horiz-adv-x="533" 
d="M-61 -201l335 465l-146 442h445l-15 -79h-308l123 -376l-268 -373h315l-15 -79h-466z" />
    <glyph glyph-name="minus" unicode="&#x2212;" horiz-adv-x="577" 
d="M55 248l14 72h469l-15 -72h-468z" />
    <glyph glyph-name="uni2215" unicode="&#x2215;" horiz-adv-x="577" 
d="M74 0l419 706h88l-419 -706h-88z" />
    <glyph glyph-name="uni2219" unicode="&#x2219;" horiz-adv-x="577" 
d="M314 310q-28 0 -45 17t-17 44t17 44t45 17q27 0 44.5 -17t17.5 -44t-17.5 -44t-44.5 -17z" />
    <glyph glyph-name="radical" unicode="&#x221a;" horiz-adv-x="640" 
d="M623 706h101l-461 -912h-97l-73 428l-93 -30l18 88l153 45l60 -416z" />
    <glyph glyph-name="infinity" unicode="&#x221e;" horiz-adv-x="830" 
d="M636 452q76 0 114 -49.5t38 -129.5q0 -97 -57 -167t-149 -70q-68 0 -109 37t-68 102q-49 -66 -98 -102.5t-112 -36.5q-77 0 -115 49.5t-38 129.5q0 97 57.5 167t149.5 70q67 0 107 -37t70 -103q49 66 97.5 103t112.5 37zM208 113q47 0 84 34t83 102q-22 60 -50 93t-75 33
q-58 0 -92.5 -46.5t-34.5 -107.5q0 -48 21.5 -78t63.5 -30zM582 113q56 0 91 47t35 107q0 47 -21.5 77.5t-64.5 30.5q-48 0 -85 -34.5t-80 -101.5q21 -60 49 -93t76 -33z" />
    <glyph glyph-name="integral" unicode="&#x222b;" horiz-adv-x="354" 
d="M-23 -206q-31 0 -66 6l29 76q13 -2 28 -2q35 0 56 17t31 54l175 637q18 66 56.5 97t103.5 31q23 0 56 -5l-30 -77q-12 2 -21 2q-64 0 -84 -73l-176 -635q-18 -66 -56 -97t-102 -31z" />
    <glyph glyph-name="approxequal" unicode="&#x2248;" horiz-adv-x="577" 
d="M398 309q-8 0 -15 0.5t-14 2.5t-12 3.5t-11.5 5t-9.5 5t-9.5 6t-8 5.5t-8 6t-7.5 6q-40 32 -69 32q-52 0 -75 -67h-65q36 133 139 133q47 0 95 -40q36 -32 69 -32q53 0 73 65h65q-39 -131 -137 -131zM360 121q-22 0 -42 7.5t-28 13.5t-25 20q-14 12 -22 17.5t-20.5 10
t-26.5 4.5q-52 0 -74 -67h-65q36 133 138 133q49 0 95 -40q36 -32 69 -32q53 0 73 65h66q-20 -65 -52.5 -98.5t-85.5 -33.5z" />
    <glyph glyph-name="notequal" unicode="&#x2260;" horiz-adv-x="577" 
d="M543 347h-158l-110 -125h244l-15 -72h-285l-101 -116h-66l101 116h-118l15 72h159l110 125h-244l14 72h285l101 115h66l-101 -115h118z" />
    <glyph glyph-name="lessequal" unicode="&#x2264;" horiz-adv-x="577" 
d="M582 539l-15 -76l-446 -122l397 -122l-15 -75l-440 142l14 69l8 40zM11 29l15 72h469l-15 -72h-469z" />
    <glyph glyph-name="greaterequal" unicode="&#x2265;" horiz-adv-x="577" 
d="M553 395l-14 -67l-8 -42l-497 -142l15 75l446 123l-397 121l15 76zM11 29l15 72h468l-14 -72h-469z" />
    <glyph glyph-name="lozenge" unicode="&#x25ca;" horiz-adv-x="512" 
d="M399 706l92 -453l-273 -454h-100l-92 454l273 453h100zM179 -115l225 382l-68 352l-223 -381z" />
    <glyph glyph-name="uniFB00" unicode="&#xfb00;" horiz-adv-x="664" 
d="M47 0l83 415h-75l15 72h74l18 91q15 72 57.5 105.5t117.5 33.5q33 0 66 -7l-15 -72q-24 6 -43 6q-82 0 -101 -87l-14 -70h126l-15 -72h-125l-83 -415h-86zM381 0l83 415h-75l15 72h74l18 91q15 72 57.5 105.5t117.5 33.5q33 0 66 -7l-15 -72q-24 6 -43 6q-82 0 -101 -87
l-14 -70h126l-15 -72h-125l-83 -415h-86z" />
    <glyph glyph-name="fi" unicode="&#xfb01;" horiz-adv-x="568" 
d="M47 0l83 415h-75l15 72h74l18 91q15 72 57.5 105.5t117.5 33.5q33 0 66 -7l-15 -72q-24 6 -43 6q-82 0 -101 -87l-14 -70h126l-15 -72h-125l-83 -415h-86zM532 593q-25 0 -41 16t-16 40q0 25 16 41t41 16q24 0 40.5 -16t16.5 -41q0 -24 -16.5 -40t-40.5 -16zM358 0
l97 487h87l-98 -487h-86z" />
    <glyph glyph-name="fl" unicode="&#xfb02;" horiz-adv-x="568" 
d="M47 0l83 415h-75l15 72h74l18 91q15 72 57.5 105.5t117.5 33.5q33 0 66 -7l-15 -72q-24 6 -43 6q-82 0 -101 -87l-14 -70h126l-15 -72h-125l-83 -415h-86zM358 0l141 706h86l-141 -706h-86z" />
    <glyph glyph-name="uniFB03" unicode="&#xfb03;" horiz-adv-x="902" 
d="M47 0l83 415h-75l15 72h74l18 91q15 72 57.5 105.5t117.5 33.5q33 0 66 -7l-15 -72q-24 6 -43 6q-82 0 -101 -87l-14 -70h126l-15 -72h-125l-83 -415h-86zM381 0l83 415h-75l15 72h74l18 91q15 72 57.5 105.5t117.5 33.5q33 0 66 -7l-15 -72q-24 6 -43 6q-82 0 -101 -87
l-14 -70h126l-15 -72h-125l-83 -415h-86zM866 593q-25 0 -41.5 16t-16.5 40q0 25 16.5 41t41.5 16q24 0 40.5 -16t16.5 -41q0 -24 -16.5 -40t-40.5 -16zM691 0l98 487h86l-97 -487h-87z" />
    <glyph glyph-name="uniFB04" unicode="&#xfb04;" horiz-adv-x="902" 
d="M47 0l83 415h-75l15 72h74l18 91q15 72 57.5 105.5t117.5 33.5q33 0 66 -7l-15 -72q-24 6 -43 6q-82 0 -101 -87l-14 -70h126l-15 -72h-125l-83 -415h-86zM381 0l83 415h-75l15 72h74l18 91q15 72 57.5 105.5t117.5 33.5q33 0 66 -7l-15 -72q-24 6 -43 6q-82 0 -101 -87
l-14 -70h126l-15 -72h-125l-83 -415h-86zM691 0l141 706h87l-141 -706h-87z" />
    <glyph glyph-name="uniFEFF" unicode="&#xfeff;" 
 />
    <glyph glyph-name="uni00A40301" horiz-adv-x="355" 
d="M264 777l133 128h105l-141 -128h-97zM37 -3q-38 0 -67 5l17 85q23 -5 47 -5q68 0 102.5 32t49.5 109l97 483h93l-102 -510q-20 -103 -77 -151t-160 -48z" />
    <glyph glyph-name="M.ss01" horiz-adv-x="801" 
d="M42 0l141 706h109l133 -313l254 313h124l-141 -706h-89l119 596l-264 -322h-42l-136 322l-119 -596h-89z" />
    <glyph glyph-name="Q.ss02" horiz-adv-x="726" 
d="M702 437q0 -152 -65 -270.5t-181 -161.5l45 -134l-86 -30l-43 145q-24 -2 -36 -2q-138 0 -203 77.5t-65 208.5q0 122 42 223.5t126.5 165t196.5 63.5q138 0 203.5 -78t65.5 -207zM343 65q122 0 193 111t71 262q0 93 -43.5 148t-137.5 55q-82 0 -143.5 -54.5t-91 -137.5
t-29.5 -180q0 -93 44 -148.5t137 -55.5z" />
    <glyph glyph-name="Oslash.ss04" horiz-adv-x="726" 
d="M787 711l-118 -116q33 -65 33 -158q0 -123 -42 -225t-126.5 -165t-197.5 -63q-124 0 -192 66l-110 -112l-58 57l122 120q-30 63 -30 155q0 122 42 223.5t126.5 165t196.5 63.5q120 0 188 -63l108 109zM343 65q122 0 193 111t71 262q0 93 -43.5 148t-137.5 55
q-82 0 -143.5 -54.5t-91 -137.5t-29.5 -180q0 -93 44 -148.5t137 -55.5z" />
    <glyph glyph-name="i.loclTRK" horiz-adv-x="237" 
d="M201 593q-25 0 -41 16t-16 40q0 25 16 41t41 16q24 0 41 -16.5t17 -40.5t-17 -40t-41 -16zM27 0l97 487h87l-98 -487h-86z" />
    <glyph glyph-name="uni006A0301" horiz-adv-x="237" 
d="M130 572l102 154h93l-111 -154h-84zM-56 -204q-29 0 -53 4l15 76q12 -2 29 -2q36 0 55 17t26 56l108 540h87l-113 -564q-13 -67 -50 -97t-104 -30z" />
    <glyph glyph-name="oslash.ss04" horiz-adv-x="549" 
d="M552 492l-73 -80q30 -51 30 -126q0 -128 -72.5 -213t-195.5 -85q-74 0 -123 34l-63 -74l-58 49l72 79q-29 51 -29 123q0 128 73.5 214t193.5 86q73 0 122 -33l65 75zM247 64q83 0 127.5 65.5t44.5 156.5q0 137 -117 137q-81 0 -126.5 -67.5t-45.5 -154.5q0 -137 117 -137
z" />
    <glyph glyph-name="f_i" horiz-adv-x="568" 
d="M47 0l83 415h-75l15 72h74l18 91q15 72 57.5 105.5t117.5 33.5q33 0 66 -7l-15 -72q-24 6 -43 6q-82 0 -101 -87l-14 -70h126l-15 -72h-125l-83 -415h-86zM532 593q-25 0 -41 16t-16 40q0 25 16 41t41 16q24 0 40.5 -16t16.5 -41q0 -24 -16.5 -40t-40.5 -16zM358 0
l97 487h87l-98 -487h-86z" />
    <glyph glyph-name="f_l" horiz-adv-x="568" 
d="M47 0l83 415h-75l15 72h74l18 91q15 72 57.5 105.5t117.5 33.5q33 0 66 -7l-15 -72q-24 6 -43 6q-82 0 -101 -87l-14 -70h126l-15 -72h-125l-83 -415h-86zM358 0l141 706h86l-141 -706h-86z" />
    <glyph glyph-name="a.sc" horiz-adv-x="552" 
d="M407 0l-19 137h-257l-74 -137h-97l316 583h136l83 -583h-88zM171 211h207l-42 303h-2z" />
    <glyph glyph-name="aacute.sc" horiz-adv-x="552" 
d="M504 822l-127 -154h-87l119 154h95zM276 583h136l83 -583h-88l-19 137h-257l-74 -137h-97zM171 211h207l-42 303h-2z" />
    <glyph glyph-name="abreve.sc" horiz-adv-x="552" 
d="M364 664q-132 0 -132 126q0 15 3 33h65q-2 -13 -2 -35q0 -35 16 -52t52 -17q44 0 68.5 25t39.5 79h68q-19 -80 -61.5 -119.5t-116.5 -39.5zM276 583h136l83 -583h-88l-19 137h-257l-74 -137h-97zM171 211h207l-42 303h-2z" />
    <glyph glyph-name="acircumflex.sc" horiz-adv-x="552" 
d="M382 780l-96 -113h-85l135 156h104l72 -156h-79zM276 583h136l83 -583h-88l-19 137h-257l-74 -137h-97zM171 211h207l-42 303h-2z" />
    <glyph glyph-name="adieresis.sc" horiz-adv-x="552" 
d="M277 682q-24 0 -40 15.5t-16 38.5q0 24 16 40t40 16q23 0 39.5 -16t16.5 -40q0 -23 -16.5 -38.5t-39.5 -15.5zM467 792q23 0 39.5 -16t16.5 -40q0 -23 -16.5 -38.5t-39.5 -15.5q-25 0 -40.5 15.5t-15.5 38.5q0 24 15.5 40t40.5 16zM276 583h136l83 -583h-88l-19 137h-257
l-74 -137h-97zM171 211h207l-42 303h-2z" />
    <glyph glyph-name="agrave.sc" horiz-adv-x="552" 
d="M425 668h-76l-75 154h84zM407 0l-19 137h-257l-74 -137h-97l316 583h136l83 -583h-88zM171 211h207l-42 303h-2z" />
    <glyph glyph-name="amacron.sc" horiz-adv-x="552" 
d="M235 766h283l-12 -61h-283zM276 583h136l83 -583h-88l-19 137h-257l-74 -137h-97zM171 211h207l-42 303h-2z" />
    <glyph glyph-name="aogonek.sc" horiz-adv-x="552" 
d="M389 -117q0 -38 46 -38q19 0 40 7l-11 -58q-25 -6 -53 -6q-45 0 -71 21t-26 59q0 67 107 132h-14l-19 137h-257l-74 -137h-97l316 583h136l83 -583q-27 -18 -39.5 -27.5t-31.5 -26t-27 -32t-8 -31.5zM171 211h207l-42 303h-2z" />
    <glyph glyph-name="aring.sc" horiz-adv-x="552" 
d="M368 650q-51 0 -81.5 29.5t-30.5 77.5t30.5 77t81.5 29q52 0 83 -29.5t31 -76.5q0 -48 -31 -77.5t-83 -29.5zM368 814q-26 0 -41.5 -15.5t-15.5 -41.5t15.5 -42t41.5 -16q27 0 43 16t16 42q0 25 -16.5 41t-42.5 16zM407 0l-19 137h-257l-74 -137h-97l316 583h136l83 -583
h-88zM171 211h207l-42 303h-2z" />
    <glyph glyph-name="aringacute.sc" horiz-adv-x="552" 
d="M560 1102l-127 -154h-87l119 154h95zM368 650q-51 0 -81.5 29.5t-30.5 77.5t30.5 77t81.5 29q52 0 83 -29.5t31 -76.5q0 -48 -31 -77.5t-83 -29.5zM368 814q-26 0 -41.5 -15.5t-15.5 -41.5t15.5 -42t41.5 -16q27 0 43 16t16 42q0 25 -16.5 41t-42.5 16zM276 583h136
l83 -583h-88l-19 137h-257l-74 -137h-97zM171 211h207l-42 303h-2z" />
    <glyph glyph-name="atilde.sc" horiz-adv-x="552" 
d="M497 823h59q-18 -83 -45.5 -120.5t-77.5 -37.5q-48 0 -74 48q-1 2 -4.5 7.5t-4.5 7.5t-4 7t-4.5 6.5t-4 5.5t-4.5 5.5t-5 4t-6 3t-6 1.5t-7 1q-21 0 -34.5 -22.5t-26.5 -71.5h-59q18 82 47 119.5t76 37.5q45 0 74 -50l7 -10.5t6.5 -10t6 -8.5t7 -8t7 -5t9 -4t9.5 -1
q21 0 33.5 22t25.5 73zM276 583h136l83 -583h-88l-19 137h-257l-74 -137h-97zM171 211h207l-42 303h-2z" />
    <glyph glyph-name="ae.sc" horiz-adv-x="690" 
d="M691 506h-243l-12 -171h219l-16 -77h-209l-13 -181h189l-15 -77h-272l11 139h-189l-82 -139h-99l350 583h397zM336 212l25 298h-2l-175 -298h152z" />
    <glyph glyph-name="aeacute.sc" horiz-adv-x="690" 
d="M617 822l-127 -154h-87l119 154h95zM691 506h-243l-12 -171h219l-16 -77h-209l-13 -181h189l-15 -77h-272l11 139h-189l-82 -139h-99l350 583h397zM336 212l25 298h-2l-175 -298h152z" />
    <glyph glyph-name="b.sc" horiz-adv-x="543" 
d="M386 301q96 -27 96 -125q0 -87 -60.5 -131.5t-165.5 -44.5h-214l116 583h185q85 0 128 -35.5t43 -97.5q0 -59 -34.5 -97t-93.5 -52zM235 516l-37 -182h90q61 0 96 27t35 74q0 81 -107 81h-77zM241 67q147 0 147 105q0 95 -120 95h-83l-40 -200h96z" />
    <glyph glyph-name="c.sc" horiz-adv-x="623" 
d="M294 -14q-118 0 -177 68t-59 180q0 155 85 258.5t229 103.5q103 0 163.5 -54.5t60.5 -148.5q0 -9 -2 -27h-91q1 10 1 22q0 59 -36.5 94t-100.5 35q-104 0 -159.5 -80.5t-55.5 -199.5q0 -172 146 -172q69 1 114.5 35.5t61.5 98.5h94q-21 -101 -92 -157t-182 -56z" />
    <glyph glyph-name="cacute.sc" horiz-adv-x="623" 
d="M325 668l119 154h95l-127 -154h-87zM294 -14q-118 0 -177 68t-59 180q0 155 85 258.5t229 103.5q103 0 163.5 -54.5t60.5 -148.5q0 -9 -2 -27h-91q1 10 1 22q0 59 -36.5 94t-100.5 35q-104 0 -159.5 -80.5t-55.5 -199.5q0 -172 146 -172q69 1 114.5 35.5t61.5 98.5h94
q-21 -101 -92 -157t-182 -56z" />
    <glyph glyph-name="ccaron.sc" horiz-adv-x="623" 
d="M581 822l-135 -155h-104l-71 155h78l51 -113l97 113h84zM294 -14q-118 0 -177 68t-59 180q0 155 85 258.5t229 103.5q103 0 163.5 -54.5t60.5 -148.5q0 -9 -2 -27h-91q1 10 1 22q0 59 -36.5 94t-100.5 35q-104 0 -159.5 -80.5t-55.5 -199.5q0 -172 146 -172
q69 1 114.5 35.5t61.5 98.5h94q-21 -101 -92 -157t-182 -56z" />
    <glyph glyph-name="ccedilla.sc" horiz-adv-x="623" 
d="M594 366h-91q1 10 1 22q0 59 -36.5 94t-100.5 35q-104 0 -159.5 -80.5t-55.5 -199.5q0 -172 146 -172q69 1 114.5 35.5t61.5 98.5h94q-20 -93 -82.5 -148.5t-160.5 -63.5l-18 -36q43 -3 66.5 -24.5t23.5 -55.5q0 -45 -35.5 -68t-93.5 -23q-53 0 -87 17l20 49
q31 -13 65 -13q30 0 47.5 11t17.5 30q0 36 -74 36h-34l37 78q-102 10 -152 76.5t-50 169.5q0 155 85 258.5t229 103.5q103 0 163.5 -54.5t60.5 -148.5q0 -9 -2 -27z" />
    <glyph glyph-name="ccircumflex.sc" horiz-adv-x="623" 
d="M236 667l135 156h104l72 -156h-79l-51 113l-96 -113h-85zM294 -14q-118 0 -177 68t-59 180q0 155 85 258.5t229 103.5q103 0 163.5 -54.5t60.5 -148.5q0 -9 -2 -27h-91q1 10 1 22q0 59 -36.5 94t-100.5 35q-104 0 -159.5 -80.5t-55.5 -199.5q0 -172 146 -172
q69 1 114.5 35.5t61.5 98.5h94q-21 -101 -92 -157t-182 -56z" />
    <glyph glyph-name="cdotaccent.sc" horiz-adv-x="623" 
d="M406 691q-25 0 -41 15.5t-16 39.5q0 25 16 41t41 16q24 0 41 -16.5t17 -40.5t-17 -39.5t-41 -15.5zM294 -14q-118 0 -177 68t-59 180q0 155 85 258.5t229 103.5q103 0 163.5 -54.5t60.5 -148.5q0 -9 -2 -27h-91q1 10 1 22q0 59 -36.5 94t-100.5 35q-104 0 -159.5 -80.5
t-55.5 -199.5q0 -172 146 -172q69 1 114.5 35.5t61.5 98.5h94q-21 -101 -92 -157t-182 -56z" />
    <glyph glyph-name="d.sc" horiz-adv-x="619" 
d="M42 0l116 583h166q255 0 255 -245q0 -148 -87.5 -243t-243.5 -95h-206zM147 77h99q119 0 178 69.5t59 184.5q0 175 -166 175h-85z" />
    <glyph glyph-name="eth.sc" horiz-adv-x="619" 
d="M324 583q255 0 255 -245q0 -148 -87.5 -243t-243.5 -95h-206l54 269h-62l12 60h61l51 254h166zM246 77q119 0 178 69.5t59 184.5q0 175 -166 175h-85l-35 -177h153l-13 -60h-152l-38 -192h99z" />
    <glyph glyph-name="dcaron.sc" horiz-adv-x="619" 
d="M570 822l-135 -155h-104l-71 155h78l51 -113l97 113h84zM42 0l116 583h166q255 0 255 -245q0 -148 -87.5 -243t-243.5 -95h-206zM147 77h99q119 0 178 69.5t59 184.5q0 175 -166 175h-85z" />
    <glyph glyph-name="dcroat.sc" horiz-adv-x="619" 
d="M324 583q255 0 255 -245q0 -148 -87.5 -243t-243.5 -95h-206l54 269h-62l12 60h61l51 254h166zM246 77q119 0 178 69.5t59 184.5q0 175 -166 175h-85l-35 -177h153l-13 -60h-152l-38 -192h99z" />
    <glyph glyph-name="e.sc" horiz-adv-x="491" 
d="M42 0l116 583h350l-16 -77h-260l-33 -171h257l-16 -77h-257l-36 -181h259l-15 -77h-349z" />
    <glyph glyph-name="eacute.sc" horiz-adv-x="491" 
d="M274 668l119 154h95l-127 -154h-87zM42 0l116 583h350l-16 -77h-260l-33 -171h257l-16 -77h-257l-36 -181h259l-15 -77h-349z" />
    <glyph glyph-name="ebreve.sc" horiz-adv-x="491" 
d="M348 664q-132 0 -132 126q0 15 3 33h65q-2 -13 -2 -35q0 -35 16 -52t52 -17q44 0 68.5 25t39.5 79h68q-19 -80 -61.5 -119.5t-116.5 -39.5zM42 0l116 583h350l-16 -77h-260l-33 -171h257l-16 -77h-257l-36 -181h259l-15 -77h-349z" />
    <glyph glyph-name="ecaron.sc" horiz-adv-x="491" 
d="M530 822l-135 -155h-104l-71 155h78l51 -113l97 113h84zM42 0l116 583h350l-16 -77h-260l-33 -171h257l-16 -77h-257l-36 -181h259l-15 -77h-349z" />
    <glyph glyph-name="ecircumflex.sc" horiz-adv-x="491" 
d="M186 667l135 156h104l72 -156h-79l-51 113l-96 -113h-85zM42 0l116 583h350l-16 -77h-260l-33 -171h257l-16 -77h-257l-36 -181h259l-15 -77h-349z" />
    <glyph glyph-name="edieresis.sc" horiz-adv-x="491" 
d="M262 682q-24 0 -40 15.5t-16 38.5q0 24 16 40t40 16q23 0 39.5 -16t16.5 -40q0 -23 -16.5 -38.5t-39.5 -15.5zM452 682q-25 0 -40.5 15.5t-15.5 38.5q0 24 15.5 40t40.5 16q23 0 39.5 -16t16.5 -40q0 -23 -16.5 -38.5t-39.5 -15.5zM42 0l116 583h350l-16 -77h-260
l-33 -171h257l-16 -77h-257l-36 -181h259l-15 -77h-349z" />
    <glyph glyph-name="edotaccent.sc" horiz-adv-x="491" 
d="M355 691q-25 0 -41 15.5t-16 39.5q0 25 16 41t41 16q24 0 41 -16.5t17 -40.5t-17 -39.5t-41 -15.5zM42 0l116 583h350l-16 -77h-260l-33 -171h257l-16 -77h-257l-36 -181h259l-15 -77h-349z" />
    <glyph glyph-name="egrave.sc" horiz-adv-x="491" 
d="M410 668h-76l-75 154h84zM42 0l116 583h350l-16 -77h-260l-33 -171h257l-16 -77h-257l-36 -181h259l-15 -77h-349z" />
    <glyph glyph-name="emacron.sc" horiz-adv-x="491" 
d="M208 705l12 61h283l-12 -61h-283zM42 0l116 583h350l-16 -77h-260l-33 -171h257l-16 -77h-257l-36 -181h259l-15 -77h-349z" />
    <glyph glyph-name="eogonek.sc" horiz-adv-x="491" 
d="M492 506h-260l-33 -171h257l-16 -77h-257l-36 -181h259l-15 -77q-27 -18 -39.5 -27.5t-31.5 -26t-27 -32t-8 -31.5q0 -38 46 -38q19 0 40 7l-11 -58q-26 -6 -53 -6q-45 0 -71 21t-26 59q0 67 107 132h-275l116 583h350z" />
    <glyph glyph-name="uni0259.sc" horiz-adv-x="596" 
d="M339 596q109 0 164 -66.5t55 -176.5q0 -155 -82 -261t-212 -106q-96 0 -152.5 62t-56.5 173q0 41 7 86h401q2 30 2 47q0 76 -32 119.5t-100 43.5q-113 0 -156 -119h-95q28 94 96.5 146t160.5 52zM269 64q67 0 113.5 46t67.5 124h-307v-16q0 -72 31.5 -113t94.5 -41z" />
    <glyph glyph-name="f.sc" horiz-adv-x="472" 
d="M42 0l116 583h339l-16 -77h-249l-33 -171h247l-16 -77h-247l-51 -258h-90z" />
    <glyph glyph-name="g.sc" horiz-adv-x="624" 
d="M332 238l15 70h240l-9 -42q-54 -280 -285 -280q-119 0 -177.5 67t-58.5 179q0 153 86.5 258.5t230.5 105.5q105 0 163 -55.5t58 -154.5h-89q0 134 -138 134q-104 0 -161.5 -84.5t-57.5 -205.5q0 -168 148 -168q155 0 189 176h-154z" />
    <glyph glyph-name="gbreve.sc" horiz-adv-x="624" 
d="M412 664q-132 0 -132 126q0 15 3 33h65q-2 -13 -2 -35q0 -35 16 -52t52 -17q44 0 68.5 25t39.5 79h68q-19 -80 -61.5 -119.5t-116.5 -39.5zM332 238l15 70h240l-9 -42q-54 -280 -285 -280q-119 0 -177.5 67t-58.5 179q0 153 86.5 258.5t230.5 105.5q105 0 163 -55.5
t58 -154.5h-89q0 134 -138 134q-104 0 -161.5 -84.5t-57.5 -205.5q0 -168 148 -168q155 0 189 176h-154z" />
    <glyph glyph-name="gcircumflex.sc" horiz-adv-x="624" 
d="M431 780l-96 -113h-85l135 156h104l72 -156h-79zM332 238l15 70h240l-9 -42q-54 -280 -285 -280q-119 0 -177.5 67t-58.5 179q0 153 86.5 258.5t230.5 105.5q105 0 163 -55.5t58 -154.5h-89q0 134 -138 134q-104 0 -161.5 -84.5t-57.5 -205.5q0 -168 148 -168
q155 0 189 176h-154z" />
    <glyph glyph-name="uni0123.sc" horiz-adv-x="624" 
d="M332 238l15 70h240l-9 -42q-54 -280 -285 -280q-119 0 -177.5 67t-58.5 179q0 153 86.5 258.5t230.5 105.5q105 0 163 -55.5t58 -154.5h-89q0 134 -138 134q-104 0 -161.5 -84.5t-57.5 -205.5q0 -168 148 -168q155 0 189 176h-154zM166 -201l62 148h89l-70 -148h-81z" />
    <glyph glyph-name="gdotaccent.sc" horiz-adv-x="624" 
d="M419 691q-25 0 -41 15.5t-16 39.5q0 25 16 41t41 16q24 0 41 -16.5t17 -40.5t-17 -39.5t-41 -15.5zM332 238l15 70h240l-9 -42q-54 -280 -285 -280q-119 0 -177.5 67t-58.5 179q0 153 86.5 258.5t230.5 105.5q105 0 163 -55.5t58 -154.5h-89q0 134 -138 134
q-104 0 -161.5 -84.5t-57.5 -205.5q0 -168 148 -168q155 0 189 176h-154z" />
    <glyph glyph-name="h.sc" horiz-adv-x="625" 
d="M42 0l116 583h90l-49 -247h264l50 247h89l-116 -583h-90l51 257h-265l-50 -257h-90z" />
    <glyph glyph-name="hbar.sc" horiz-adv-x="625" 
d="M513 583h89l-116 -583h-90l51 257h-265l-50 -257h-90l116 583h90l-18 -91h265zM199 336h264l19 96h-264z" />
    <glyph glyph-name="hcircumflex.sc" horiz-adv-x="625" 
d="M238 667l135 156h104l72 -156h-79l-51 113l-96 -113h-85zM42 0l116 583h90l-49 -247h264l50 247h89l-116 -583h-90l51 257h-265l-50 -257h-90z" />
    <glyph glyph-name="i.sc" horiz-adv-x="271" 
d="M42 0l116 583h90l-116 -583h-90z" />
    <glyph glyph-name="dotlessi.sc" horiz-adv-x="271" 
d="M42 0l116 583h90l-116 -583h-90z" />
    <glyph glyph-name="iacute.sc" horiz-adv-x="271" 
d="M166 668l102 154h93l-111 -154h-84zM42 0l116 583h90l-116 -583h-90z" />
    <glyph glyph-name="ibreve.sc" horiz-adv-x="271" 
d="M221 664q-101 0 -101 103q0 25 6 56h60q-6 -31 -6 -52q0 -53 44 -53q34 0 53 24.5t30 80.5h63q-17 -81 -52.5 -120t-96.5 -39zM42 0l116 583h90l-116 -583h-90z" />
    <glyph glyph-name="icircumflex.sc" horiz-adv-x="271" 
d="M86 667l117 156h90l54 -156h-68l-37 109l-83 -109h-73zM42 0l116 583h90l-116 -583h-90z" />
    <glyph glyph-name="idieresis.sc" horiz-adv-x="271" 
d="M163 685q-22 0 -35 13.5t-13 35.5q0 23 14 37t36 14q21 0 34 -13t13 -35q0 -23 -14 -37.5t-35 -14.5zM297 685q-21 0 -34 13.5t-13 35.5q0 23 14 37t36 14q20 0 33.5 -13.5t13.5 -34.5q0 -23 -14 -37.5t-36 -14.5zM42 0l116 583h90l-116 -583h-90z" />
    <glyph glyph-name="i.sc.loclTRK" horiz-adv-x="271" 
d="M236 689q-25 0 -41 16t-16 40q0 25 16 41t41 16q24 0 41 -16.5t17 -40.5t-17 -40t-41 -16zM42 0l116 583h90l-116 -583h-90z" />
    <glyph glyph-name="igrave.sc" horiz-adv-x="271" 
d="M275 668h-73l-60 154h82zM42 0l116 583h90l-116 -583h-90z" />
    <glyph glyph-name="ij.sc" horiz-adv-x="593" 
d="M42 0l116 583h90l-116 -583h-90zM300 -2q-35 0 -59 5l16 81q22 -2 34 -2q60 0 89 25.5t42 89.5l78 386h90l-82 -411q-18 -90 -67.5 -132t-140.5 -42z" />
    <glyph glyph-name="imacron.sc" horiz-adv-x="271" 
d="M120 705l12 61h214l-12 -61h-214zM42 0l116 583h90l-116 -583h-90z" />
    <glyph glyph-name="iogonek.sc" horiz-adv-x="271" 
d="M158 583h90l-116 -583h-1q-84 -84 -84 -124q0 -31 34 -31q16 0 35 7l-12 -57q-22 -7 -49 -7q-39 0 -61 18.5t-22 51.5q0 66 91 142h-21z" />
    <glyph glyph-name="itilde.sc" horiz-adv-x="271" 
d="M276 665q-26 0 -39 13t-19 39q-1 2 -2.5 8l-2 8t-2 7t-2.5 7t-2.5 5.5t-3.5 5t-4 3.5t-4.5 2.5t-5.5 0.5q-16 0 -26 -22.5t-21 -73.5h-55q19 85 41.5 121t63.5 36q26 0 38.5 -14t19.5 -43q6 -22 11.5 -31.5t17.5 -9.5q16 0 26.5 22.5t20.5 73.5h55q-19 -86 -41.5 -122
t-63.5 -36zM42 0l116 583h90l-116 -583h-90z" />
    <glyph glyph-name="j.sc" horiz-adv-x="323" 
d="M29 -2q-35 0 -59 5l16 81q22 -2 34 -2q60 0 89 25.5t42 89.5l78 386h90l-82 -411q-18 -90 -67.5 -132t-140.5 -42z" />
    <glyph glyph-name="uni006A0301.sc" horiz-adv-x="323" 
d="M235 668l102 154h93l-111 -154h-84zM29 -2q-35 0 -59 5l16 81q22 -2 34 -2q60 0 89 25.5t42 89.5l78 386h90l-82 -411q-18 -90 -67.5 -132t-140.5 -42z" />
    <glyph glyph-name="jcircumflex.sc" horiz-adv-x="323" 
d="M156 667l117 156h90l54 -156h-68l-37 109l-83 -109h-73zM29 -2q-35 0 -59 5l16 81q22 -2 34 -2q60 0 89 25.5t42 89.5l78 386h90l-82 -411q-18 -90 -67.5 -132t-140.5 -42z" />
    <glyph glyph-name="k.sc" horiz-adv-x="535" 
d="M561 583l-284 -272l198 -311h-105l-180 290l-58 -290h-90l116 583h90l-48 -240l253 240h108z" />
    <glyph glyph-name="uni0137.sc" horiz-adv-x="535" 
d="M561 583l-284 -272l198 -311h-105l-180 290l-58 -290h-90l116 583h90l-48 -240l253 240h108zM140 -201l62 148h89l-70 -148h-81z" />
    <glyph glyph-name="kgreenlandic.sc" horiz-adv-x="535" 
d="M561 583l-284 -272l198 -311h-105l-180 290l-58 -290h-90l116 583h90l-48 -240l253 240h108z" />
    <glyph glyph-name="l.sc" horiz-adv-x="424" 
d="M42 0l116 583h90l-100 -502h225l-16 -81h-315z" />
    <glyph glyph-name="lacute.sc" horiz-adv-x="424" 
d="M179 668l119 154h95l-127 -154h-87zM42 0l116 583h90l-100 -502h225l-16 -81h-315z" />
    <glyph glyph-name="lcaron.sc" horiz-adv-x="424" 
d="M42 0l116 583h90l-100 -502h225l-16 -81h-315zM266 416l62 167h76l-70 -167h-68z" />
    <glyph glyph-name="uni013C.sc" horiz-adv-x="424" 
d="M42 0l116 583h90l-100 -502h225l-16 -81h-315zM96 -201l62 148h89l-70 -148h-81z" />
    <glyph glyph-name="ldot.sc" horiz-adv-x="442" 
d="M42 0l116 583h90l-100 -502h225l-16 -81h-315zM362 285q-28 0 -45 16.5t-17 43.5q0 28 17 45t45 17q27 0 44.5 -17.5t17.5 -44.5t-17.5 -43.5t-44.5 -16.5z" />
    <glyph glyph-name="lslash.sc" horiz-adv-x="424" 
d="M148 81h225l-16 -81h-315l50 251l-73 -43l16 77l72 43l51 255h90l-41 -208l159 95l-17 -79l-158 -94z" />
    <glyph glyph-name="m.sc" horiz-adv-x="768" 
d="M42 0l116 583h103l99 -433l272 433h114l-117 -583h-85l88 438l-274 -438h-44l-99 438l-88 -438h-85z" />
    <glyph glyph-name="n.sc" horiz-adv-x="645" 
d="M42 0l116 583h91l197 -449l90 449h87l-117 -583h-91l-196 449l-91 -449h-86z" />
    <glyph glyph-name="nacute.sc" horiz-adv-x="645" 
d="M338 668l119 154h95l-127 -154h-87zM42 0l116 583h91l197 -449l90 449h87l-117 -583h-91l-196 449l-91 -449h-86z" />
    <glyph glyph-name="napostrophe.sc" horiz-adv-x="805" 
d="M79 425l120 281h95l-142 -281h-73zM221 0l116 583h91l197 -449l90 449h86l-116 -583h-91l-197 449l-90 -449h-86z" />
    <glyph glyph-name="ncaron.sc" horiz-adv-x="645" 
d="M593 822l-135 -155h-104l-71 155h78l51 -113l97 113h84zM42 0l116 583h91l197 -449l90 449h87l-117 -583h-91l-196 449l-91 -449h-86z" />
    <glyph glyph-name="uni0146.sc" horiz-adv-x="645" 
d="M42 0l116 583h91l197 -449l90 449h87l-117 -583h-91l-196 449l-91 -449h-86zM164 -201l62 148h89l-70 -148h-81z" />
    <glyph glyph-name="eng.sc" horiz-adv-x="645" 
d="M536 583h87l-128 -641q-11 -58 -43 -84t-91 -26q-28 0 -55 3l15 73q8 -2 22 -2q59 0 69 58l8 38l-201 447l-91 -449h-86l116 583h91l199 -440z" />
    <glyph glyph-name="ntilde.sc" horiz-adv-x="645" 
d="M481 665q-48 0 -74 48q-1 2 -4.5 7.5t-4.5 7.5t-4 7t-4.5 6.5t-4 5.5t-4.5 5.5t-5 4t-6 3t-6 1.5t-7 1q-21 0 -34.5 -22.5t-26.5 -71.5h-59q18 82 47 119.5t76 37.5q45 0 74 -50l7 -10.5t6.5 -10t6 -8.5t7 -8t7 -5t9 -4t9.5 -1q21 0 33.5 22t25.5 73h59
q-18 -83 -45.5 -120.5t-77.5 -37.5zM42 0l116 583h91l197 -449l90 449h87l-117 -583h-91l-196 449l-91 -449h-86z" />
    <glyph glyph-name="o.sc" horiz-adv-x="644" 
d="M295 -14q-119 0 -178 69t-59 185q0 149 85 252.5t226 103.5q118 0 177 -69t59 -184q0 -149 -85 -253t-225 -104zM301 67q99 0 154.5 82t55.5 195q0 171 -148 171q-68 0 -117 -41t-71.5 -102.5t-22.5 -134.5q0 -170 149 -170z" />
    <glyph glyph-name="oacute.sc" horiz-adv-x="644" 
d="M336 668l119 154h95l-127 -154h-87zM295 -14q-119 0 -178 69t-59 185q0 149 85 252.5t226 103.5q118 0 177 -69t59 -184q0 -149 -85 -253t-225 -104zM301 67q99 0 154.5 82t55.5 195q0 171 -148 171q-68 0 -117 -41t-71.5 -102.5t-22.5 -134.5q0 -170 149 -170z" />
    <glyph glyph-name="obreve.sc" horiz-adv-x="644" 
d="M410 664q-132 0 -132 126q0 15 3 33h65q-2 -13 -2 -35q0 -35 16 -52t52 -17q44 0 68.5 25t39.5 79h68q-19 -80 -61.5 -119.5t-116.5 -39.5zM295 -14q-119 0 -178 69t-59 185q0 149 85 252.5t226 103.5q118 0 177 -69t59 -184q0 -149 -85 -253t-225 -104zM301 67
q99 0 154.5 82t55.5 195q0 171 -148 171q-68 0 -117 -41t-71.5 -102.5t-22.5 -134.5q0 -170 149 -170z" />
    <glyph glyph-name="ocircumflex.sc" horiz-adv-x="644" 
d="M247 667l135 156h104l72 -156h-79l-51 113l-96 -113h-85zM295 -14q-119 0 -178 69t-59 185q0 149 85 252.5t226 103.5q118 0 177 -69t59 -184q0 -149 -85 -253t-225 -104zM301 67q99 0 154.5 82t55.5 195q0 171 -148 171q-68 0 -117 -41t-71.5 -102.5t-22.5 -134.5
q0 -170 149 -170z" />
    <glyph glyph-name="odieresis.sc" horiz-adv-x="644" 
d="M323 682q-24 0 -40 15.5t-16 38.5q0 24 16 40t40 16q23 0 39.5 -16t16.5 -40q0 -23 -16.5 -38.5t-39.5 -15.5zM513 682q-25 0 -40.5 15.5t-15.5 38.5q0 24 15.5 40t40.5 16q23 0 39.5 -16t16.5 -40q0 -23 -16.5 -38.5t-39.5 -15.5zM295 -14q-119 0 -178 69t-59 185
q0 149 85 252.5t226 103.5q118 0 177 -69t59 -184q0 -149 -85 -253t-225 -104zM301 67q99 0 154.5 82t55.5 195q0 171 -148 171q-68 0 -117 -41t-71.5 -102.5t-22.5 -134.5q0 -170 149 -170z" />
    <glyph glyph-name="ograve.sc" horiz-adv-x="644" 
d="M471 668h-76l-75 154h84zM295 -14q-119 0 -178 69t-59 185q0 149 85 252.5t226 103.5q118 0 177 -69t59 -184q0 -149 -85 -253t-225 -104zM301 67q99 0 154.5 82t55.5 195q0 171 -148 171q-68 0 -117 -41t-71.5 -102.5t-22.5 -134.5q0 -170 149 -170z" />
    <glyph glyph-name="ohungarumlaut.sc" horiz-adv-x="644" 
d="M285 668l131 155h87l-146 -155h-72zM432 668l131 155h87l-145 -155h-73zM295 -14q-119 0 -178 69t-59 185q0 149 85 252.5t226 103.5q118 0 177 -69t59 -184q0 -149 -85 -253t-225 -104zM301 67q99 0 154.5 82t55.5 195q0 171 -148 171q-68 0 -117 -41t-71.5 -102.5
t-22.5 -134.5q0 -170 149 -170z" />
    <glyph glyph-name="omacron.sc" horiz-adv-x="644" 
d="M269 705l12 61h283l-12 -61h-283zM295 -14q-119 0 -178 69t-59 185q0 149 85 252.5t226 103.5q118 0 177 -69t59 -184q0 -149 -85 -253t-225 -104zM301 67q99 0 154.5 82t55.5 195q0 171 -148 171q-68 0 -117 -41t-71.5 -102.5t-22.5 -134.5q0 -170 149 -170z" />
    <glyph glyph-name="oslash.sc" horiz-adv-x="644" 
d="M670 583l-98 -93q33 -60 33 -147q0 -149 -85 -253t-225 -104q-112 0 -173 63l-51 -49h-78l98 92q-33 62 -33 148q0 149 85 252.5t226 103.5q111 0 172 -63l52 50h77zM363 515q-68 0 -117 -41t-71.5 -102.5t-22.5 -134.5q0 -45 10 -78l315 310q-38 46 -114 46zM301 67
q99 0 154.5 82t55.5 195q0 47 -11 80l-314 -310q38 -47 115 -47z" />
    <glyph glyph-name="oslashacute.sc" horiz-adv-x="644" 
d="M550 822l-127 -154h-87l119 154h95zM670 583l-98 -93q33 -60 33 -147q0 -149 -85 -253t-225 -104q-112 0 -173 63l-51 -49h-78l98 92q-33 62 -33 148q0 149 85 252.5t226 103.5q111 0 172 -63l52 50h77zM363 515q-68 0 -117 -41t-71.5 -102.5t-22.5 -134.5q0 -45 10 -78
l315 310q-38 46 -114 46zM301 67q99 0 154.5 82t55.5 195q0 47 -11 80l-314 -310q38 -47 115 -47z" />
    <glyph glyph-name="otilde.sc" horiz-adv-x="644" 
d="M479 665q-48 0 -74 48q-1 2 -4.5 7.5t-4.5 7.5t-4 7t-4.5 6.5t-4 5.5t-4.5 5.5t-5 4t-6 3t-6 1.5t-7 1q-21 0 -34.5 -22.5t-26.5 -71.5h-59q18 82 47 119.5t76 37.5q45 0 74 -50l7 -10.5t6.5 -10t6 -8.5t7 -8t7 -5t9 -4t9.5 -1q21 0 33.5 22t25.5 73h59
q-18 -83 -45.5 -120.5t-77.5 -37.5zM295 -14q-119 0 -178 69t-59 185q0 149 85 252.5t226 103.5q118 0 177 -69t59 -184q0 -149 -85 -253t-225 -104zM301 67q99 0 154.5 82t55.5 195q0 171 -148 171q-68 0 -117 -41t-71.5 -102.5t-22.5 -134.5q0 -170 149 -170z" />
    <glyph glyph-name="oe.sc" horiz-adv-x="879" 
d="M880 506h-260l-34 -171h257l-16 -77h-256l-37 -181h260l-15 -77h-338l11 54q-74 -64 -176 -64q-109 0 -163 68.5t-54 182.5q0 147 82.5 249.5t218.5 102.5q128 0 179 -103l19 93h337zM285 68q100 0 155 81.5t55 194.5q0 171 -138 171q-66 0 -114 -41t-69.5 -102.5
t-21.5 -134.5q0 -169 133 -169z" />
    <glyph glyph-name="p.sc" horiz-adv-x="515" 
d="M42 0l116 583h182q186 0 186 -148q0 -85 -55 -134.5t-147 -49.5h-142l-50 -251h-90zM196 324h107q62 0 96 26.5t34 76.5q0 83 -113 83h-86z" />
    <glyph glyph-name="thorn.sc" horiz-adv-x="516" 
d="M42 0l116 583h90l-19 -96h73q200 0 200 -166q0 -102 -60.5 -159.5t-168.5 -57.5h-121l-20 -104h-90zM167 179h88q75 0 115 35.5t40 101.5q0 96 -128 96h-68z" />
    <glyph glyph-name="q.sc" horiz-adv-x="644" 
d="M605 343q0 -115 -53 -207t-145 -129l47 -100l-72 -36l-50 117q-24 -2 -37 -2q-119 0 -178 69t-59 185q0 149 85 252.5t226 103.5q118 0 177 -69t59 -184zM373 81q66 27 102 100.5t36 162.5q0 171 -148 171q-68 0 -117 -41t-71.5 -102.5t-22.5 -134.5q0 -169 147 -170
l-28 66l63 32z" />
    <glyph glyph-name="r.sc" horiz-adv-x="550" 
d="M536 433q0 -79 -50.5 -126.5t-138.5 -53.5l145 -253h-94l-143 252h-73l-50 -252h-90l116 583h197q181 0 181 -150zM234 511l-38 -190h110q138 0 138 107q0 43 -27 63t-85 20h-98z" />
    <glyph glyph-name="racute.sc" horiz-adv-x="550" 
d="M514 822l-127 -154h-87l119 154h95zM536 433q0 -79 -50.5 -126.5t-138.5 -53.5l145 -253h-94l-143 252h-73l-50 -252h-90l116 583h197q181 0 181 -150zM234 511l-38 -190h110q138 0 138 107q0 43 -27 63t-85 20h-98z" />
    <glyph glyph-name="rcaron.sc" horiz-adv-x="550" 
d="M421 667h-104l-71 155h78l51 -113l97 113h84zM536 433q0 -79 -50.5 -126.5t-138.5 -53.5l145 -253h-94l-143 252h-73l-50 -252h-90l116 583h197q181 0 181 -150zM306 321q138 0 138 107q0 43 -27 63t-85 20h-98l-38 -190h110z" />
    <glyph glyph-name="uni0157.sc" horiz-adv-x="550" 
d="M536 433q0 -79 -50.5 -126.5t-138.5 -53.5l145 -253h-94l-143 252h-73l-50 -252h-90l116 583h197q181 0 181 -150zM234 511l-38 -190h110q138 0 138 107q0 43 -27 63t-85 20h-98zM153 -201l62 148h89l-70 -148h-81z" />
    <glyph glyph-name="s.sc" horiz-adv-x="525" 
d="M242 -14q-107 0 -163 43t-56 121q0 18 3 37h97q-3 -17 -3 -29q0 -99 127 -99q54 0 89 24t35 68q0 16 -3.5 28.5t-15 24t-19 18t-30.5 17t-33 14t-42 16.5q-71 26 -107 61t-36 95q0 78 59 124.5t155 46.5t146 -42t50 -113q0 -12 -2 -36h-93q2 22 2 28q0 42 -28.5 67
t-80.5 25q-51 0 -82.5 -23.5t-31.5 -66.5q0 -26 18.5 -45.5t34.5 -26.5t68 -26l15 -6q80 -29 118 -65.5t38 -100.5q0 -87 -63.5 -133t-165.5 -46z" />
    <glyph glyph-name="sacute.sc" horiz-adv-x="525" 
d="M254 668l119 154h95l-127 -154h-87zM242 -14q-107 0 -163 43t-56 121q0 18 3 37h97q-3 -17 -3 -29q0 -99 127 -99q54 0 89 24t35 68q0 16 -3.5 28.5t-15 24t-19 18t-30.5 17t-33 14t-42 16.5q-71 26 -107 61t-36 95q0 78 59 124.5t155 46.5t146 -42t50 -113q0 -12 -2 -36
h-93q2 22 2 28q0 42 -28.5 67t-80.5 25q-51 0 -82.5 -23.5t-31.5 -66.5q0 -26 18.5 -45.5t34.5 -26.5t68 -26l15 -6q80 -29 118 -65.5t38 -100.5q0 -87 -63.5 -133t-165.5 -46z" />
    <glyph glyph-name="scaron.sc" horiz-adv-x="525" 
d="M510 822l-135 -155h-104l-71 155h78l51 -113l97 113h84zM242 -14q-107 0 -163 43t-56 121q0 18 3 37h97q-3 -17 -3 -29q0 -99 127 -99q54 0 89 24t35 68q0 16 -3.5 28.5t-15 24t-19 18t-30.5 17t-33 14t-42 16.5q-71 26 -107 61t-36 95q0 78 59 124.5t155 46.5t146 -42
t50 -113q0 -12 -2 -36h-93q2 22 2 28q0 42 -28.5 67t-80.5 25q-51 0 -82.5 -23.5t-31.5 -66.5q0 -26 18.5 -45.5t34.5 -26.5t68 -26l15 -6q80 -29 118 -65.5t38 -100.5q0 -87 -63.5 -133t-165.5 -46z" />
    <glyph glyph-name="scedilla.sc" horiz-adv-x="525" 
d="M493 405h-93q2 22 2 28q0 42 -28.5 67t-80.5 25q-51 0 -82.5 -23.5t-31.5 -66.5q0 -26 18.5 -45.5t34.5 -26.5t68 -26l15 -6q80 -29 118 -65.5t38 -100.5q0 -80 -54 -125.5t-144 -52.5l-18 -36q43 -3 66.5 -24.5t23.5 -55.5q0 -45 -35.5 -68t-93.5 -23q-53 0 -87 17
l20 49q31 -13 65 -13q30 0 47.5 11t17.5 30q0 36 -74 36h-34l37 77q-91 7 -138 49t-47 114q0 18 3 37h97q-3 -17 -3 -29q0 -99 127 -99q54 0 89 24t35 68q0 16 -3.5 28.5t-15 24t-19 18t-30.5 17t-33 14t-42 16.5q-71 26 -107 61t-36 95q0 78 59 124.5t155 46.5t146 -42
t50 -113q0 -12 -2 -36z" />
    <glyph glyph-name="scircumflex.sc" horiz-adv-x="525" 
d="M165 667l135 156h104l72 -156h-79l-51 113l-96 -113h-85zM242 -14q-107 0 -163 43t-56 121q0 18 3 37h97q-3 -17 -3 -29q0 -99 127 -99q54 0 89 24t35 68q0 16 -3.5 28.5t-15 24t-19 18t-30.5 17t-33 14t-42 16.5q-71 26 -107 61t-36 95q0 78 59 124.5t155 46.5t146 -42
t50 -113q0 -12 -2 -36h-93q2 22 2 28q0 42 -28.5 67t-80.5 25q-51 0 -82.5 -23.5t-31.5 -66.5q0 -26 18.5 -45.5t34.5 -26.5t68 -26l15 -6q80 -29 118 -65.5t38 -100.5q0 -87 -63.5 -133t-165.5 -46z" />
    <glyph glyph-name="uni0219.sc" horiz-adv-x="525" 
d="M242 -14q-107 0 -163 43t-56 121q0 18 3 37h97q-3 -17 -3 -29q0 -99 127 -99q54 0 89 24t35 68q0 16 -3.5 28.5t-15 24t-19 18t-30.5 17t-33 14t-42 16.5q-71 26 -107 61t-36 95q0 78 59 124.5t155 46.5t146 -42t50 -113q0 -12 -2 -36h-93q2 22 2 28q0 42 -28.5 67
t-80.5 25q-51 0 -82.5 -23.5t-31.5 -66.5q0 -26 18.5 -45.5t34.5 -26.5t68 -26l15 -6q80 -29 118 -65.5t38 -100.5q0 -87 -63.5 -133t-165.5 -46zM129 -201l62 148h89l-70 -148h-81z" />
    <glyph glyph-name="germandbls.sc" horiz-adv-x="588" 
d="M580 583l-1 -4l-159 -242q112 -27 112 -143q0 -90 -64 -143.5t-168 -53.5q-56 0 -98 9l15 77q36 -6 76 -6q71 0 109.5 31t38.5 87q0 91 -116 91q-16 0 -32 -2v3l145 217h-206l-100 -504h-90l116 583h422z" />
    <glyph glyph-name="t.sc" horiz-adv-x="472" 
d="M143 0l100 506h-173l16 77h436l-16 -77h-173l-101 -506h-89z" />
    <glyph glyph-name="tbar.sc" horiz-adv-x="472" 
d="M506 506h-173l-29 -145h107l-13 -60h-106l-60 -301h-89l59 301h-107l12 60h107l29 145h-173l16 77h436z" />
    <glyph glyph-name="tcaron.sc" horiz-adv-x="481" 
d="M510 822l-135 -155h-104l-71 155h78l51 -113l97 113h84zM143 0l100 506h-173l16 77h436l-16 -77h-173l-101 -506h-89z" />
    <glyph glyph-name="uni0163.sc" horiz-adv-x="472" 
d="M86 583h436l-16 -77h-173l-101 -506h-9l-25 -49q43 -3 66.5 -24.5t23.5 -55.5q0 -45 -35.5 -68t-93.5 -23q-53 0 -87 17l20 49q31 -13 65 -13q30 0 47.5 11t17.5 30q0 36 -74 36h-34l43 90h-14l100 506h-173z" />
    <glyph glyph-name="uni021B.sc" horiz-adv-x="472" 
d="M143 0l100 506h-173l16 77h436l-16 -77h-173l-101 -506h-89zM72 -201l62 148h89l-70 -148h-81z" />
    <glyph glyph-name="u.sc" horiz-adv-x="581" 
d="M262 -14q-103 0 -152 42.5t-49 128.5q0 32 7 66l72 360h90l-74 -373q-6 -27 -6 -48q0 -48 27 -71.5t86 -23.5q65 0 98.5 28.5t45.5 88.5l80 399h90l-82 -412q-19 -93 -76 -139t-157 -46z" />
    <glyph glyph-name="uacute.sc" horiz-adv-x="581" 
d="M301 668l119 154h95l-127 -154h-87zM262 -14q-103 0 -152 42.5t-49 128.5q0 32 7 66l72 360h90l-74 -373q-6 -27 -6 -48q0 -48 27 -71.5t86 -23.5q65 0 98.5 28.5t45.5 88.5l80 399h90l-82 -412q-19 -93 -76 -139t-157 -46z" />
    <glyph glyph-name="ubreve.sc" horiz-adv-x="581" 
d="M375 664q-132 0 -132 126q0 15 3 33h65q-2 -13 -2 -35q0 -35 16 -52t52 -17q44 0 68.5 25t39.5 79h68q-19 -80 -61.5 -119.5t-116.5 -39.5zM262 -14q-103 0 -152 42.5t-49 128.5q0 32 7 66l72 360h90l-74 -373q-6 -27 -6 -48q0 -48 27 -71.5t86 -23.5q65 0 98.5 28.5
t45.5 88.5l80 399h90l-82 -412q-19 -93 -76 -139t-157 -46z" />
    <glyph glyph-name="ucircumflex.sc" horiz-adv-x="581" 
d="M212 667l135 156h104l72 -156h-79l-51 113l-96 -113h-85zM262 -14q-103 0 -152 42.5t-49 128.5q0 32 7 66l72 360h90l-74 -373q-6 -27 -6 -48q0 -48 27 -71.5t86 -23.5q65 0 98.5 28.5t45.5 88.5l80 399h90l-82 -412q-19 -93 -76 -139t-157 -46z" />
    <glyph glyph-name="udieresis.sc" horiz-adv-x="581" 
d="M288 682q-24 0 -40 15.5t-16 38.5q0 24 16 40t40 16q23 0 39.5 -16t16.5 -40q0 -23 -16.5 -38.5t-39.5 -15.5zM478 682q-25 0 -40.5 15.5t-15.5 38.5q0 24 15.5 40t40.5 16q23 0 39.5 -16t16.5 -40q0 -23 -16.5 -38.5t-39.5 -15.5zM262 -14q-103 0 -152 42.5t-49 128.5
q0 32 7 66l72 360h90l-74 -373q-6 -27 -6 -48q0 -48 27 -71.5t86 -23.5q65 0 98.5 28.5t45.5 88.5l80 399h90l-82 -412q-19 -93 -76 -139t-157 -46z" />
    <glyph glyph-name="ugrave.sc" horiz-adv-x="581" 
d="M436 668h-76l-75 154h84zM262 -14q-103 0 -152 42.5t-49 128.5q0 32 7 66l72 360h90l-74 -373q-6 -27 -6 -48q0 -48 27 -71.5t86 -23.5q65 0 98.5 28.5t45.5 88.5l80 399h90l-82 -412q-19 -93 -76 -139t-157 -46z" />
    <glyph glyph-name="uhungarumlaut.sc" horiz-adv-x="581" 
d="M250 668l131 155h87l-146 -155h-72zM397 668l131 155h87l-145 -155h-73zM262 -14q-103 0 -152 42.5t-49 128.5q0 32 7 66l72 360h90l-74 -373q-6 -27 -6 -48q0 -48 27 -71.5t86 -23.5q65 0 98.5 28.5t45.5 88.5l80 399h90l-82 -412q-19 -93 -76 -139t-157 -46z" />
    <glyph glyph-name="umacron.sc" horiz-adv-x="581" 
d="M234 705l12 61h283l-12 -61h-283zM262 -14q-103 0 -152 42.5t-49 128.5q0 32 7 66l72 360h90l-74 -373q-6 -27 -6 -48q0 -48 27 -71.5t86 -23.5q65 0 98.5 28.5t45.5 88.5l80 399h90l-82 -412q-19 -93 -76 -139t-157 -46z" />
    <glyph glyph-name="uogonek.sc" horiz-adv-x="581" 
d="M487 583h90l-82 -412q-12 -61 -39 -99.5t-77 -71.5q-27 -18 -39.5 -27.5t-31.5 -26t-27 -32t-8 -31.5q0 -38 46 -38q19 0 40 7l-11 -58q-26 -6 -53 -6q-45 0 -71 21t-26 59q0 62 86 119q-7 -1 -22 -1q-103 0 -152 42.5t-49 128.5q0 32 7 66l72 360h90l-74 -373
q-6 -27 -6 -48q0 -48 27 -71.5t86 -23.5q65 0 98.5 28.5t45.5 88.5z" />
    <glyph glyph-name="uring.sc" horiz-adv-x="581" 
d="M379 650q-51 0 -81.5 29.5t-30.5 77.5t30.5 77t81.5 29q52 0 83 -29.5t31 -76.5q0 -48 -31 -77.5t-83 -29.5zM379 699q27 0 43 16t16 42q0 25 -16.5 41t-42.5 16t-41.5 -15.5t-15.5 -41.5t15.5 -42t41.5 -16zM262 -14q-103 0 -152 42.5t-49 128.5q0 32 7 66l72 360h90
l-74 -373q-6 -27 -6 -48q0 -48 27 -71.5t86 -23.5q65 0 98.5 28.5t45.5 88.5l80 399h90l-82 -412q-19 -93 -76 -139t-157 -46z" />
    <glyph glyph-name="utilde.sc" horiz-adv-x="581" 
d="M444 665q-48 0 -74 48q-1 2 -4.5 7.5t-4.5 7.5t-4 7t-4.5 6.5t-4 5.5t-4.5 5.5t-5 4t-6 3t-6 1.5t-7 1q-21 0 -34.5 -22.5t-26.5 -71.5h-59q18 82 47 119.5t76 37.5q45 0 74 -50l7 -10.5t6.5 -10t6 -8.5t7 -8t7 -5t9 -4t9.5 -1q21 0 33.5 22t25.5 73h59
q-18 -83 -45.5 -120.5t-77.5 -37.5zM262 -14q-103 0 -152 42.5t-49 128.5q0 32 7 66l72 360h90l-74 -373q-6 -27 -6 -48q0 -48 27 -71.5t86 -23.5q65 0 98.5 28.5t45.5 88.5l80 399h90l-82 -412q-19 -93 -76 -139t-157 -46z" />
    <glyph glyph-name="v.sc" horiz-adv-x="542" 
d="M503 583h99l-334 -583h-90l-102 583h89l74 -474z" />
    <glyph glyph-name="w.sc" horiz-adv-x="776" 
d="M743 583h93l-281 -583h-95l-29 458l-213 -458h-93l-49 583h85l34 -450l209 450h97l29 -447z" />
    <glyph glyph-name="wacute.sc" horiz-adv-x="776" 
d="M609 822l-127 -154h-87l119 154h95zM743 583h93l-281 -583h-95l-29 458l-213 -458h-93l-49 583h85l34 -450l209 450h97l29 -447z" />
    <glyph glyph-name="wcircumflex.sc" horiz-adv-x="776" 
d="M487 780l-96 -113h-85l135 156h104l72 -156h-79zM743 583h93l-281 -583h-95l-29 458l-213 -458h-93l-49 583h85l34 -450l209 450h97l29 -447z" />
    <glyph glyph-name="wdieresis.sc" horiz-adv-x="776" 
d="M382 682q-24 0 -40 15.5t-16 38.5q0 24 16 40t40 16q23 0 39.5 -16t16.5 -40q0 -23 -16.5 -38.5t-39.5 -15.5zM572 682q-25 0 -40.5 15.5t-15.5 38.5q0 24 15.5 40t40.5 16q23 0 39.5 -16t16.5 -40q0 -23 -16.5 -38.5t-39.5 -15.5zM743 583h93l-281 -583h-95l-29 458
l-213 -458h-93l-49 583h85l34 -450l209 450h97l29 -447z" />
    <glyph glyph-name="wgrave.sc" horiz-adv-x="776" 
d="M530 668h-76l-75 154h84zM743 583h93l-281 -583h-95l-29 458l-213 -458h-93l-49 583h85l34 -450l209 450h97l29 -447z" />
    <glyph glyph-name="x.sc" horiz-adv-x="571" 
d="M-30 0l269 310l-154 273h97l117 -209l173 209h112l-240 -282l167 -301h-97l-132 234l-198 -234h-114z" />
    <glyph glyph-name="y.sc" horiz-adv-x="492" 
d="M153 0l50 251l-127 332h90l93 -242l188 242h104l-258 -332l-51 -251h-89z" />
    <glyph glyph-name="yacute.sc" horiz-adv-x="492" 
d="M252 668l119 154h95l-127 -154h-87zM153 0l50 251l-127 332h90l93 -242l188 242h104l-258 -332l-51 -251h-89z" />
    <glyph glyph-name="ycircumflex.sc" horiz-adv-x="492" 
d="M163 667l135 156h104l72 -156h-79l-51 113l-96 -113h-85zM153 0l50 251l-127 332h90l93 -242l188 242h104l-258 -332l-51 -251h-89z" />
    <glyph glyph-name="ydieresis.sc" horiz-adv-x="492" 
d="M239 682q-24 0 -40 15.5t-16 38.5q0 24 16 40t40 16q23 0 39.5 -16t16.5 -40q0 -23 -16.5 -38.5t-39.5 -15.5zM429 682q-25 0 -40.5 15.5t-15.5 38.5q0 24 15.5 40t40.5 16q23 0 39.5 -16t16.5 -40q0 -23 -16.5 -38.5t-39.5 -15.5zM153 0l50 251l-127 332h90l93 -242
l188 242h104l-258 -332l-51 -251h-89z" />
    <glyph glyph-name="ygrave.sc" horiz-adv-x="492" 
d="M387 668h-76l-75 154h84zM153 0l50 251l-127 332h90l93 -242l188 242h104l-258 -332l-51 -251h-89z" />
    <glyph glyph-name="z.sc" horiz-adv-x="501" 
d="M-26 0l386 504h-278l16 79h426l-386 -504h303l-16 -79h-451z" />
    <glyph glyph-name="zacute.sc" horiz-adv-x="501" 
d="M249 668l119 154h95l-127 -154h-87zM-26 0l386 504h-278l16 79h426l-386 -504h303l-16 -79h-451z" />
    <glyph glyph-name="zcaron.sc" horiz-adv-x="501" 
d="M504 822l-135 -155h-104l-71 155h78l51 -113l97 113h84zM-26 0l386 504h-278l16 79h426l-386 -504h303l-16 -79h-451z" />
    <glyph glyph-name="zdotaccent.sc" horiz-adv-x="501" 
d="M330 691q-25 0 -41 15.5t-16 39.5q0 25 16 41t41 16q24 0 41 -16.5t17 -40.5t-17 -39.5t-41 -15.5zM-26 0l386 504h-278l16 79h426l-386 -504h303l-16 -79h-451z" />
    <glyph glyph-name="m.sc.ss01" horiz-adv-x="724" 
d="M42 0l116 583h103l111 -247l207 247h122l-116 -583h-87l94 472l-216 -255h-40l-113 255l-95 -472h-86z" />
    <glyph glyph-name="q.sc.ss02" horiz-adv-x="644" 
d="M605 343q0 -116 -53.5 -208t-146.5 -129l38 -108l-84 -29l-37 118q-9 -1 -27 -1q-119 0 -178 69t-59 185q0 149 85 252.5t226 103.5q118 0 177 -69t59 -184zM301 67q99 0 154.5 82t55.5 195q0 171 -148 171q-68 0 -117 -41t-71.5 -102.5t-22.5 -134.5q0 -170 149 -170z
" />
    <glyph glyph-name="oslash.sc.ss04" horiz-adv-x="644" 
d="M669 589l-97 -99q33 -61 33 -147q0 -149 -85 -253t-225 -104q-97 0 -156 48l-87 -92l-57 52l95 99q-32 60 -32 147q0 149 85 252.5t226 103.5q96 0 155 -48l87 94zM301 67q99 0 154.5 82t55.5 195q0 171 -148 171q-68 0 -117 -41t-71.5 -102.5t-22.5 -134.5
q0 -170 149 -170z" />
    <glyph glyph-name="A.subs" horiz-adv-x="386" 
d="M236 -120l-12 86h-170l-46 -86h-75l211 388h106l56 -388h-70zM84 22h133l-27 193h-2z" />
    <glyph glyph-name="B.subs" horiz-adv-x="386" 
d="M238 82q63 -20 63 -86q0 -59 -41 -87.5t-113 -28.5h-152l77 388h130q119 0 119 -89q0 -77 -83 -97zM133 219l-23 -114h57q81 0 81 62q0 52 -66 52h-49zM138 -71q92 0 92 68q0 60 -71 60h-59l-25 -128h63z" />
    <glyph glyph-name="C.subs" horiz-adv-x="432" 
d="M163 -130q-75 0 -117.5 45t-42.5 127q0 99 58.5 167.5t159.5 68.5q70 0 111.5 -36.5t40.5 -101.5q0 -10 -1 -18h-74q7 94 -84 94q-66 0 -102.5 -52t-36.5 -120q0 -54 25 -82.5t70 -28.5q42 0 71 21t39 60h72q-16 -69 -65 -106.5t-124 -37.5z" />
    <glyph glyph-name="D.subs" horiz-adv-x="437" 
d="M-5 -120l77 388h120q92 0 132.5 -41.5t40.5 -122.5q0 -97 -59 -160.5t-161 -63.5h-150zM77 -60h68q71 0 109 46t38 117q0 106 -104 106h-57z" />
    <glyph glyph-name="E.subs" horiz-adv-x="348" 
d="M-5 -120l77 388h242l-11 -57h-171l-22 -105h170l-12 -58h-169l-22 -110h171l-11 -58h-242z" />
    <glyph glyph-name="F.subs" horiz-adv-x="333" 
d="M-5 -120l77 388h233l-11 -57h-162l-22 -107h161l-11 -58h-162l-32 -166h-71z" />
    <glyph glyph-name="G.subs" horiz-adv-x="438" 
d="M191 35l10 53h167l-6 -37q-16 -86 -66 -133.5t-130 -47.5q-82 0 -123 46t-41 124q0 99 60 168.5t159 69.5q71 0 112 -36t41 -106h-71q0 83 -86 83q-65 0 -103.5 -49.5t-38.5 -124.5q0 -115 99 -115q95 0 115 105h-98z" />
    <glyph glyph-name="H.subs" horiz-adv-x="446" 
d="M-5 -120l77 388h71l-32 -160h170l31 160h71l-77 -388h-71l33 166h-170l-32 -166h-71z" />
    <glyph glyph-name="I.subs" horiz-adv-x="206" 
d="M-5 -120l77 388h71l-77 -388h-71z" />
    <glyph glyph-name="J.subs" horiz-adv-x="232" 
d="M-22 -122q-19 0 -37 3l13 65q7 -1 24 -1q38 0 56.5 16t25.5 56l51 251h70l-53 -268q-13 -62 -49 -92t-101 -30z" />
    <glyph glyph-name="K.subs" horiz-adv-x="389" 
d="M360 268l-191 -183l138 -205h-81l-124 184l-36 -184h-71l77 388h71l-31 -154l158 154h90z" />
    <glyph glyph-name="L.subs" horiz-adv-x="299" 
d="M-5 -120l77 388h71l-65 -324h147l-13 -64h-217z" />
    <glyph glyph-name="M.subs" horiz-adv-x="544" 
d="M-5 -120l77 388h77l68 -275l177 275h86l-77 -388h-67l56 278l-178 -278h-29l-68 278l-55 -278h-67z" />
    <glyph glyph-name="N.subs" horiz-adv-x="460" 
d="M-5 -120l77 388h72l128 -285l56 285h68l-77 -388h-71l-128 285l-56 -285h-69z" />
    <glyph glyph-name="O.subs" horiz-adv-x="449" 
d="M163 -130q-84 0 -122 46.5t-38 124.5q0 101 58.5 169t155.5 68q84 0 122.5 -46t38.5 -124q0 -102 -58.5 -170t-156.5 -68zM166 -66q66 0 103 51t37 125q0 105 -92 105q-66 0 -102 -51t-36 -127q0 -103 90 -103z" />
    <glyph glyph-name="P.subs" horiz-adv-x="365" 
d="M-5 -120l77 388h125q130 0 130 -106q0 -120 -148 -120h-81l-32 -162h-71zM108 94h59q90 0 90 67q0 55 -69 55h-55z" />
    <glyph glyph-name="Q.subs" horiz-adv-x="449" 
d="M378 108q0 -76 -34 -135.5t-94 -85.5l28 -66l-54 -22l-28 73q-22 -2 -33 -2q-84 0 -122 46.5t-38 124.5q0 101 58.5 169t155.5 68q84 0 122.5 -46t38.5 -124zM224 -53q39 20 60.5 64t21.5 99q0 105 -92 105q-66 0 -102 -51t-36 -127q0 -103 90 -103h7l-16 41l47 20z" />
    <glyph glyph-name="R.subs" horiz-adv-x="388" 
d="M335 166q0 -52 -32.5 -85t-89.5 -38l95 -163h-74l-93 162h-43l-32 -162h-71l78 388h139q123 0 123 -102zM133 216l-25 -124h71q84 0 84 69q0 55 -69 55h-61z" />
    <glyph glyph-name="S.subs" horiz-adv-x="368" 
d="M126 -130q-70 0 -109.5 28t-39.5 76q0 13 3 28h74q-1 -6 -1 -17q0 -57 79 -57q78 0 78 55q0 26 -21 41t-73 34q-21 8 -34.5 15t-29 19t-23.5 30t-8 41q0 54 41 84.5t110 30.5q66 0 100.5 -26.5t34.5 -71.5q0 -18 -2 -29h-72q2 8 2 18q0 54 -68 54q-73 0 -73 -52
q0 -19 15 -33t27.5 -19t48.5 -18q51 -19 77 -43.5t26 -67.5q0 -58 -43.5 -89t-118.5 -31z" />
    <glyph glyph-name="T.subs" horiz-adv-x="324" 
d="M55 -120l65 329h-114l12 59h297l-11 -59h-114l-65 -329h-70z" />
    <glyph glyph-name="U.subs" horiz-adv-x="413" 
d="M145 -130q-138 0 -138 119q0 17 5 45l47 234h70l-48 -240q-4 -17 -4 -33q0 -62 73 -62q77 0 92 76l51 259h70l-54 -269q-26 -129 -164 -129z" />
    <glyph glyph-name="V.subs" horiz-adv-x="378" 
d="M299 268h77l-224 -388h-70l-71 388h70l49 -305z" />
    <glyph glyph-name="W.subs" horiz-adv-x="535" 
d="M460 268h73l-187 -388h-74l-20 290l-134 -290h-72l-35 388h65l23 -289l134 289h72l18 -287z" />
    <glyph glyph-name="X.subs" horiz-adv-x="403" 
d="M-64 -120l192 210l-98 178h76l70 -126l115 126h90l-169 -183l110 -205h-77l-81 150l-136 -150h-92z" />
    <glyph glyph-name="Y.subs" horiz-adv-x="343" 
d="M63 -120l34 167l-86 221h70l59 -151l119 151h81l-173 -221l-34 -167h-70z" />
    <glyph glyph-name="Z.subs" horiz-adv-x="348" 
d="M-56 -120l252 327h-177l12 61h294l-252 -327h194l-12 -61h-311z" />
    <glyph glyph-name="a.subs" horiz-adv-x="365" 
d="M152 183q123 0 123 -99q0 -22 -6 -48l-31 -156h-67l7 35q-37 -42 -104 -42q-98 0 -98 83q0 101 156 101h74q4 19 4 28q0 48 -60 48q-63 0 -71 -49h-69q20 99 142 99zM98 -76q82 0 99 91h-64q-86 0 -86 -51q0 -40 51 -40z" />
    <glyph glyph-name="b.subs" horiz-adv-x="385" 
d="M195 183q59 0 87 -36t28 -94q0 -75 -42 -127.5t-112 -52.5q-76 0 -98 56l-9 -49h-65l84 424h67l-32 -160q37 39 92 39zM139 -68q48 0 74.5 33t26.5 82q0 77 -69 77q-34 0 -58 -23t-32 -64q-6 -31 -6 -45q0 -29 17 -44.5t47 -15.5z" />
    <glyph glyph-name="c.subs" horiz-adv-x="352" 
d="M120 -127q-66 0 -99 36.5t-33 97.5q0 75 46.5 125.5t122.5 50.5q63 0 95.5 -31t32.5 -89h-73q0 61 -59 61q-46 0 -70.5 -34t-24.5 -81q0 -77 66 -77q29 0 48 15.5t24 40.5h73q-11 -54 -52 -84.5t-97 -30.5z" />
    <glyph glyph-name="d.subs" horiz-adv-x="386" 
d="M273 304h67l-85 -424h-65l7 34q-38 -42 -95 -42q-59 0 -87 36t-28 94q0 75 42 127.5t112 52.5q74 0 97 -54zM126 -69q34 0 58 23t32 64q6 26 6 45q0 29 -16.5 44.5t-46.5 15.5q-48 0 -75 -33.5t-27 -81.5q0 -77 69 -77z" />
    <glyph glyph-name="e.subs" horiz-adv-x="363" 
d="M285 13h-229v-9q0 -81 71 -81q67 0 82 57h68q-12 -50 -54.5 -78.5t-98.5 -28.5q-69 0 -103 36t-34 97q0 75 48 126t124 51q62 0 96.5 -32.5t34.5 -93.5q0 -23 -5 -44zM155 132q-69 0 -92 -76h161v4q0 72 -69 72z" />
    <glyph glyph-name="f.subs" horiz-adv-x="219" 
d="M-13 -120l48 239h-44l11 56h44l9 46q10 47 37 68.5t78 21.5q29 0 45 -5l-10 -52q-16 4 -28 4q-49 0 -58 -47l-6 -36h75l-11 -56h-76l-47 -239h-67z" />
    <glyph glyph-name="g.subs" horiz-adv-x="384" 
d="M248 175h65l-60 -301q-25 -122 -162 -122q-135 0 -132 99h70q-1 -24 16 -36.5t48 -12.5q77 0 94 75l7 35q-37 -38 -91 -38q-59 0 -87.5 36t-28.5 94q0 74 42 126t112 52q76 0 98 -55zM126 -67q72 0 91 87q5 25 5 43q0 29 -16.5 44.5t-46.5 15.5q-48 0 -74.5 -32.5
t-26.5 -80.5q0 -77 68 -77z" />
    <glyph glyph-name="h.subs" horiz-adv-x="380" 
d="M194 183q47 0 71.5 -25.5t24.5 -73.5q0 -21 -4 -42l-33 -162h-66l31 157q4 24 4 32q0 55 -56 55q-66 0 -81 -73l-34 -171h-67l84 424h67l-31 -158q34 37 90 37z" />
    <glyph glyph-name="i.subs" horiz-adv-x="179" 
d="M94 230q-17 0 -29 11.5t-12 27.5q0 17 11.5 29t29.5 12q17 0 29 -11.5t12 -28.5t-12 -28.5t-29 -11.5zM-16 -120l59 295h66l-59 -295h-66z" />
    <glyph glyph-name="j.subs" horiz-adv-x="179" 
d="M95 230q-18 0 -29.5 11t-11.5 28q0 18 11.5 29.5t29.5 11.5q17 0 29 -11.5t12 -28.5q0 -16 -12 -28t-29 -12zM-59 -242q-24 0 -39 4l12 58q8 -2 20 -2q37 0 44 37l65 320h66l-67 -334q-8 -43 -32.5 -63t-68.5 -20z" />
    <glyph glyph-name="k.subs" horiz-adv-x="326" 
d="M300 175l-159 -142l116 -153h-81l-98 137l-27 -137h-67l84 424h67l-48 -242l123 113h90z" />
    <glyph glyph-name="l.subs" horiz-adv-x="179" 
d="M-16 -120l84 424h66l-84 -424h-66z" />
    <glyph glyph-name="m.subs" horiz-adv-x="567" 
d="M383 183q46 0 70 -25.5t24 -73.5q0 -21 -4 -42l-32 -162h-67l31 157q4 16 4 32q0 55 -51 55q-63 0 -78 -73l-34 -171h-67l31 157q4 16 4 32q0 55 -51 55q-63 0 -78 -73l-34 -171h-67l59 295h63l-7 -33q36 41 92 41q69 0 87 -59q37 59 105 59z" />
    <glyph glyph-name="n.subs" horiz-adv-x="380" 
d="M194 183q47 0 71.5 -25.5t24.5 -73.5q0 -21 -4 -42l-33 -162h-66l31 157q4 24 4 32q0 55 -56 55q-66 0 -81 -73l-34 -171h-67l59 295h63l-7 -34q36 42 95 42z" />
    <glyph glyph-name="o.subs" horiz-adv-x="365" 
d="M124 -127q-67 0 -101.5 37t-34.5 97q0 75 46.5 125.5t120.5 50.5q68 0 101.5 -37t33.5 -98q0 -75 -46 -125t-120 -50zM128 -69q45 0 68.5 33.5t23.5 82.5q0 77 -69 77q-45 0 -69 -33.5t-24 -82.5q0 -77 70 -77z" />
    <glyph glyph-name="p.subs" horiz-adv-x="385" 
d="M195 183q59 0 87.5 -36t28.5 -94q0 -75 -42 -127.5t-112 -52.5q-73 0 -97 52l-34 -166h-66l83 416h64l-7 -35q37 43 95 43zM139 -68q48 0 74.5 33t26.5 82q0 77 -68 77q-35 0 -59 -23t-32 -64q-6 -31 -6 -45q0 -29 17 -44.5t47 -15.5z" />
    <glyph glyph-name="q.subs" horiz-adv-x="385" 
d="M248 175h65l-83 -416h-67l31 151q-37 -38 -92 -38q-59 0 -87 36t-28 94q0 75 42 127.5t112 52.5q76 0 98 -55zM126 -69q34 0 58 23t32 64q6 26 6 45q0 29 -16.5 44.5t-46.5 15.5q-48 0 -75 -33.5t-27 -81.5q0 -77 69 -77z" />
    <glyph glyph-name="r.subs" horiz-adv-x="242" 
d="M186 179q15 0 31 -4l-13 -61q-9 3 -26 3q-80 0 -99 -96l-28 -141h-67l59 295h63l-8 -38q34 42 88 42z" />
    <glyph glyph-name="s.subs" horiz-adv-x="312" 
d="M94 -129q-120 0 -120 90q0 11 1 17h66v-12q0 -44 57 -44t57 38q0 19 -13.5 28.5t-43.5 19.5q-43 15 -65 33.5t-22 52.5q0 42 32.5 65.5t85.5 23.5q110 0 110 -82q0 -8 -1 -13h-64q1 3 1 9q0 39 -50 39q-48 0 -48 -36q0 -11 9 -19.5t18 -12t33 -11.5q44 -15 66 -35t22 -56
q0 -46 -36.5 -70.5t-94.5 -24.5z" />
    <glyph glyph-name="t.subs" horiz-adv-x="236" 
d="M93 -125q-46 0 -67 17.5t-21 57.5q0 19 4 38l27 131h-46l11 56h46l14 71h67l-14 -71h82l-11 -56h-83l-26 -132q-3 -12 -3 -21q0 -33 39 -33q19 0 35 4l-11 -57q-23 -5 -43 -5z" />
    <glyph glyph-name="u.subs" horiz-adv-x="380" 
d="M243 175h66l-59 -295h-63l7 33q-37 -41 -94 -41q-47 0 -72 25.5t-25 73.5q0 15 5 42l32 162h67l-31 -157q-4 -16 -4 -31q0 -56 56 -56q65 0 80 73z" />
    <glyph glyph-name="v.subs" horiz-adv-x="330" 
d="M54 -120l-55 295h68l37 -214l123 214h77l-173 -295h-77z" />
    <glyph glyph-name="w.subs" horiz-adv-x="493" 
d="M390 175h77l-166 -295h-65l-22 207l-103 -207h-65l-47 295h67l26 -210l108 210h58l24 -208z" />
    <glyph glyph-name="x.subs" horiz-adv-x="347" 
d="M-57 -120l149 153l-87 142h73l57 -97l95 97h87l-145 -145l89 -150h-71l-62 103l-99 -103h-86z" />
    <glyph glyph-name="y.subs" horiz-adv-x="336" 
d="M232 175h77l-259 -415h-74l76 122l-53 293h68l33 -224z" />
    <glyph glyph-name="z.subs" horiz-adv-x="302" 
d="M272 175l-203 -238h152l-11 -57h-269l208 239h-145l11 56h257z" />
    <glyph glyph-name="A.sups" horiz-adv-x="386" 
d="M348 438l-12 86h-170l-46 -86h-75l211 388h106l56 -388h-70zM196 580h133l-27 193h-2z" />
    <glyph glyph-name="B.sups" horiz-adv-x="386" 
d="M350 640q63 -20 63 -86q0 -59 -41 -87.5t-113 -28.5h-152l77 388h130q119 0 119 -89q0 -77 -83 -97zM245 777l-23 -114h57q81 0 81 62q0 52 -66 52h-49zM250 487q92 0 92 68q0 60 -71 60h-59l-25 -128h63z" />
    <glyph glyph-name="C.sups" horiz-adv-x="432" 
d="M275 428q-75 0 -117.5 45t-42.5 127q0 99 58.5 167.5t159.5 68.5q70 0 111.5 -36.5t40.5 -101.5q0 -10 -1 -18h-74q7 94 -84 94q-66 0 -102.5 -52t-36.5 -120q0 -54 25.5 -82.5t69.5 -28.5q42 0 71 21t39 60h72q-16 -69 -65 -106.5t-124 -37.5z" />
    <glyph glyph-name="D.sups" horiz-adv-x="437" 
d="M107 438l77 388h120q92 0 132.5 -41.5t40.5 -122.5q0 -97 -59 -160.5t-161 -63.5h-150zM189 498h68q71 0 109 46t38 117q0 106 -104 106h-57z" />
    <glyph glyph-name="E.sups" horiz-adv-x="348" 
d="M107 438l77 388h242l-11 -57h-171l-22 -105h170l-12 -58h-169l-22 -110h171l-11 -58h-242z" />
    <glyph glyph-name="F.sups" horiz-adv-x="333" 
d="M107 438l77 388h233l-11 -57h-162l-22 -107h161l-11 -58h-162l-32 -166h-71z" />
    <glyph glyph-name="G.sups" horiz-adv-x="438" 
d="M303 593l10 53h167l-6 -37q-16 -86 -66 -133.5t-130 -47.5q-82 0 -123 46t-41 124q0 99 60 168.5t159 69.5q71 0 112 -36t41 -106h-71q0 83 -86 83q-65 0 -103.5 -49.5t-38.5 -124.5q0 -115 99 -115q95 0 115 105h-98z" />
    <glyph glyph-name="H.sups" horiz-adv-x="446" 
d="M107 438l77 388h71l-32 -160h170l31 160h71l-77 -388h-71l33 166h-170l-32 -166h-71z" />
    <glyph glyph-name="I.sups" horiz-adv-x="206" 
d="M107 438l77 388h71l-77 -388h-71z" />
    <glyph glyph-name="J.sups" horiz-adv-x="232" 
d="M90 436q-19 0 -37 3l13 65q7 -1 24 -1q38 0 56.5 16t25.5 56l51 251h70l-53 -268q-13 -62 -49 -92t-101 -30z" />
    <glyph glyph-name="K.sups" horiz-adv-x="389" 
d="M472 826l-191 -183l138 -205h-81l-124 184l-36 -184h-71l77 388h71l-31 -154l158 154h90z" />
    <glyph glyph-name="L.sups" horiz-adv-x="299" 
d="M107 438l77 388h71l-65 -324h147l-13 -64h-217z" />
    <glyph glyph-name="M.sups" horiz-adv-x="544" 
d="M107 438l77 388h77l68 -275l177 275h86l-77 -388h-67l56 278l-178 -278h-29l-68 278l-55 -278h-67z" />
    <glyph glyph-name="N.sups" horiz-adv-x="460" 
d="M107 438l77 388h72l128 -285l56 285h68l-77 -388h-71l-128 285l-56 -285h-69z" />
    <glyph glyph-name="O.sups" horiz-adv-x="449" 
d="M275 428q-84 0 -122 46.5t-38 124.5q0 101 58.5 169t155.5 68q84 0 122.5 -46t38.5 -124q0 -102 -58.5 -170t-156.5 -68zM278 492q66 0 103 51t37 125q0 105 -92 105q-66 0 -102 -51t-36 -127q0 -103 90 -103z" />
    <glyph glyph-name="P.sups" horiz-adv-x="365" 
d="M107 438l77 388h125q130 0 130 -106q0 -120 -148 -120h-81l-32 -162h-71zM220 652h59q90 0 90 67q0 55 -69 55h-55z" />
    <glyph glyph-name="Q.sups" horiz-adv-x="449" 
d="M490 666q0 -76 -34 -135.5t-94 -85.5l28 -66l-54 -22l-28 73q-22 -2 -33 -2q-84 0 -122 46.5t-38 124.5q0 101 58.5 169t155.5 68q84 0 122.5 -46t38.5 -124zM336 505q39 20 60.5 64t21.5 99q0 105 -92 105q-66 0 -102 -51t-36 -127q0 -103 90 -103h7l-16 41l47 20z" />
    <glyph glyph-name="R.sups" horiz-adv-x="388" 
d="M447 724q0 -52 -32.5 -85t-89.5 -38l95 -163h-74l-93 162h-43l-32 -162h-71l78 388h139q123 0 123 -102zM245 774l-25 -124h71q84 0 84 69q0 55 -69 55h-61z" />
    <glyph glyph-name="S.sups" horiz-adv-x="368" 
d="M238 428q-70 0 -109.5 28t-39.5 76q0 13 3 28h74q-1 -6 -1 -17q0 -57 79 -57q78 0 78 55q0 26 -21 41t-73 34q-21 8 -34.5 15t-29 19t-23.5 30t-8 41q0 54 41 84.5t110 30.5q66 0 100.5 -26.5t34.5 -71.5q0 -18 -2 -29h-72q2 8 2 18q0 54 -68 54q-73 0 -73 -52
q0 -19 15 -33t27.5 -19t48.5 -18q51 -19 77 -43.5t26 -67.5q0 -58 -43.5 -89t-118.5 -31z" />
    <glyph glyph-name="T.sups" horiz-adv-x="324" 
d="M167 438l65 329h-114l12 59h297l-11 -59h-114l-65 -329h-70z" />
    <glyph glyph-name="U.sups" horiz-adv-x="413" 
d="M257 428q-138 0 -138 119q0 17 5 45l47 234h70l-48 -240q-4 -17 -4 -33q0 -62 73 -62q77 0 92 76l51 259h70l-54 -269q-26 -129 -164 -129z" />
    <glyph glyph-name="V.sups" horiz-adv-x="378" 
d="M411 826h77l-224 -388h-70l-71 388h70l49 -305z" />
    <glyph glyph-name="W.sups" horiz-adv-x="535" 
d="M572 826h73l-187 -388h-74l-20 290l-134 -290h-72l-35 388h65l23 -289l134 289h72l18 -287z" />
    <glyph glyph-name="X.sups" horiz-adv-x="403" 
d="M48 438l192 210l-98 178h76l70 -126l115 126h90l-169 -183l110 -205h-77l-81 150l-136 -150h-92z" />
    <glyph glyph-name="Y.sups" horiz-adv-x="343" 
d="M175 438l34 167l-86 221h70l59 -151l119 151h81l-173 -221l-34 -167h-70z" />
    <glyph glyph-name="Z.sups" horiz-adv-x="348" 
d="M56 438l252 327h-177l12 61h294l-252 -327h194l-12 -61h-311z" />
    <glyph glyph-name="a.sups" horiz-adv-x="365" 
d="M264 741q123 0 123 -99q0 -22 -6 -48l-31 -156h-67l7 35q-37 -42 -104 -42q-98 0 -98 83q0 101 156 101h74q4 19 4 28q0 48 -60 48q-63 0 -71 -49h-69q20 99 142 99zM210 482q82 0 99 91h-64q-86 0 -86 -51q0 -40 51 -40z" />
    <glyph glyph-name="b.sups" horiz-adv-x="385" 
d="M307 741q59 0 87 -36t28 -94q0 -75 -42 -127.5t-112 -52.5q-76 0 -98 56l-9 -49h-65l84 424h67l-32 -160q37 39 92 39zM251 490q48 0 74.5 33t26.5 82q0 77 -69 77q-34 0 -58 -23t-32 -64q-6 -31 -6 -45q0 -29 17 -44.5t47 -15.5z" />
    <glyph glyph-name="c.sups" horiz-adv-x="352" 
d="M232 431q-66 0 -99 36.5t-33 97.5q0 75 46.5 125.5t122.5 50.5q63 0 95.5 -31t32.5 -89h-73q0 61 -59 61q-46 0 -70.5 -34t-24.5 -81q0 -77 66 -77q29 0 48 15.5t24 40.5h73q-11 -54 -52 -84.5t-97 -30.5z" />
    <glyph glyph-name="d.sups" horiz-adv-x="386" 
d="M385 862h67l-85 -424h-65l7 34q-37 -42 -95 -42q-59 0 -87 36t-28 94q0 75 42 127.5t112 52.5q75 0 97 -54zM238 489q34 0 58 23t32 64q6 26 6 45q0 29 -16.5 44.5t-46.5 15.5q-48 0 -75 -33.5t-27 -81.5q0 -77 69 -77z" />
    <glyph glyph-name="e.sups" horiz-adv-x="363" 
d="M397 571h-229v-9q0 -81 71 -81q67 0 82 57h68q-12 -50 -54.5 -78.5t-98.5 -28.5q-69 0 -103 36t-34 97q0 75 48 126t124 51q62 0 96.5 -32.5t34.5 -93.5q0 -23 -5 -44zM267 690q-69 0 -92 -76h161v4q0 72 -69 72z" />
    <glyph glyph-name="f.sups" horiz-adv-x="219" 
d="M99 438l48 239h-44l11 56h44l9 46q10 47 37 68.5t78 21.5q29 0 45 -5l-10 -52q-16 4 -28 4q-49 0 -58 -47l-6 -36h75l-11 -56h-76l-47 -239h-67z" />
    <glyph glyph-name="g.sups" horiz-adv-x="384" 
d="M360 733h65l-60 -301q-25 -122 -162 -122q-135 0 -132 99h70q-1 -24 16 -36.5t48 -12.5q77 0 94 75l7 35q-37 -38 -91 -38q-59 0 -87.5 36t-28.5 94q0 74 42 126t112 52q76 0 98 -55zM238 491q72 0 91 87q5 25 5 43q0 29 -16.5 44.5t-46.5 15.5q-48 0 -74.5 -32.5
t-26.5 -80.5q0 -77 68 -77z" />
    <glyph glyph-name="h.sups" horiz-adv-x="380" 
d="M306 741q47 0 71.5 -25.5t24.5 -73.5q0 -21 -4 -42l-33 -162h-66l31 157q4 24 4 32q0 55 -56 55q-66 0 -81 -73l-34 -171h-67l84 424h67l-31 -158q34 37 90 37z" />
    <glyph glyph-name="i.sups" horiz-adv-x="179" 
d="M206 788q-17 0 -29 11.5t-12 27.5q0 17 11.5 29t29.5 12q17 0 29 -11.5t12 -28.5t-12 -28.5t-29 -11.5zM96 438l59 295h66l-59 -295h-66z" />
    <glyph glyph-name="j.sups" horiz-adv-x="179" 
d="M207 788q-18 0 -29.5 11t-11.5 28q0 18 11.5 29.5t29.5 11.5q17 0 29 -11.5t12 -28.5q0 -16 -12 -28t-29 -12zM53 316q-24 0 -39 4l12 58q8 -2 20 -2q37 0 44 37l65 320h66l-67 -334q-8 -43 -32.5 -63t-68.5 -20z" />
    <glyph glyph-name="k.sups" horiz-adv-x="326" 
d="M412 733l-159 -142l116 -153h-81l-98 137l-27 -137h-67l84 424h67l-48 -242l123 113h90z" />
    <glyph glyph-name="l.sups" horiz-adv-x="179" 
d="M96 438l84 424h66l-84 -424h-66z" />
    <glyph glyph-name="m.sups" horiz-adv-x="567" 
d="M495 741q46 0 70 -25.5t24 -73.5q0 -21 -4 -42l-32 -162h-67l31 157q4 16 4 32q0 55 -51 55q-63 0 -78 -73l-34 -171h-67l31 157q4 16 4 32q0 55 -51 55q-63 0 -78 -73l-34 -171h-67l59 295h63l-7 -33q36 41 92 41q69 0 87 -59q37 59 105 59z" />
    <glyph glyph-name="n.sups" horiz-adv-x="380" 
d="M306 741q47 0 71.5 -25.5t24.5 -73.5q0 -21 -4 -42l-33 -162h-66l31 157q4 24 4 32q0 55 -56 55q-66 0 -81 -73l-34 -171h-67l59 295h63l-7 -34q36 42 95 42z" />
    <glyph glyph-name="o.sups" horiz-adv-x="365" 
d="M236 431q-67 0 -101.5 37t-34.5 97q0 75 46.5 125.5t120.5 50.5q68 0 101.5 -37t33.5 -98q0 -75 -46 -125t-120 -50zM240 489q45 0 68.5 33.5t23.5 82.5q0 77 -69 77q-45 0 -69 -33.5t-24 -82.5q0 -77 70 -77z" />
    <glyph glyph-name="p.sups" horiz-adv-x="385" 
d="M307 741q59 0 87.5 -36t28.5 -94q0 -75 -42 -127.5t-112 -52.5q-73 0 -97 52l-34 -166h-66l83 416h64l-7 -35q37 43 95 43zM251 490q48 0 74.5 33t26.5 82q0 77 -68 77q-35 0 -59 -23t-32 -64q-6 -31 -6 -45q0 -29 17 -44.5t47 -15.5z" />
    <glyph glyph-name="q.sups" horiz-adv-x="385" 
d="M360 733h65l-83 -416h-67l31 151q-37 -38 -92 -38q-59 0 -87 36t-28 94q0 75 42 127.5t112 52.5q76 0 98 -55zM238 489q34 0 58 23t32 64q6 26 6 45q0 29 -16.5 44.5t-46.5 15.5q-48 0 -75 -33.5t-27 -81.5q0 -77 69 -77z" />
    <glyph glyph-name="r.sups" horiz-adv-x="242" 
d="M298 737q15 0 31 -4l-13 -61q-9 3 -26 3q-80 0 -99 -96l-28 -141h-67l59 295h63l-8 -38q34 42 88 42z" />
    <glyph glyph-name="s.sups" horiz-adv-x="312" 
d="M206 429q-120 0 -120 90q0 11 1 17h66v-12q0 -44 57 -44t57 38q0 19 -13.5 28.5t-43.5 19.5q-43 15 -65 33.5t-22 52.5q0 42 32.5 65.5t85.5 23.5q110 0 110 -82q0 -8 -1 -13h-64q1 3 1 9q0 39 -50 39q-48 0 -48 -36q0 -11 9 -19.5t18 -12t33 -11.5q44 -15 66 -35t22 -56
q0 -46 -36.5 -70.5t-94.5 -24.5z" />
    <glyph glyph-name="t.sups" horiz-adv-x="236" 
d="M205 433q-46 0 -67 17.5t-21 57.5q0 19 4 38l27 131h-46l11 56h46l14 71h67l-14 -71h82l-11 -56h-83l-26 -132q-3 -12 -3 -21q0 -33 39 -33q19 0 35 4l-11 -57q-23 -5 -43 -5z" />
    <glyph glyph-name="u.sups" horiz-adv-x="380" 
d="M355 733h66l-59 -295h-63l7 33q-37 -41 -94 -41q-47 0 -72 25.5t-25 73.5q0 15 5 42l32 162h67l-31 -157q-4 -16 -4 -31q0 -56 56 -56q65 0 80 73z" />
    <glyph glyph-name="v.sups" horiz-adv-x="330" 
d="M166 438l-55 295h68l37 -214l123 214h77l-173 -295h-77z" />
    <glyph glyph-name="w.sups" horiz-adv-x="493" 
d="M502 733h77l-166 -295h-65l-22 207l-103 -207h-65l-47 295h67l26 -210l108 210h58l24 -208z" />
    <glyph glyph-name="x.sups" horiz-adv-x="347" 
d="M55 438l149 153l-87 142h73l57 -97l95 97h87l-145 -145l89 -150h-71l-62 103l-99 -103h-86z" />
    <glyph glyph-name="y.sups" horiz-adv-x="336" 
d="M344 733h77l-259 -415h-74l76 122l-53 293h68l33 -224z" />
    <glyph glyph-name="z.sups" horiz-adv-x="302" 
d="M384 733l-203 -238h152l-11 -57h-269l208 239h-145l11 56h257z" />
    <glyph glyph-name="zero.lf" horiz-adv-x="659" 
d="M305 -16q-118 0 -175.5 67.5t-57.5 181.5q0 69 15 147q31 153 109.5 247.5t200.5 94.5q119 0 176 -67.5t57 -181.5q0 -77 -15 -147q-31 -153 -109 -247.5t-201 -94.5zM309 66q82 0 135.5 74t75.5 190q16 82 16 142q0 168 -142 168q-82 0 -135 -74t-76 -190
q-16 -82 -16 -142q0 -168 142 -168z" />
    <glyph glyph-name="one.lf" horiz-adv-x="352" 
d="M104 0l125 622h-120l33 84h194l-141 -706h-91z" />
    <glyph glyph-name="two.lf" horiz-adv-x="559" 
d="M-22 0l1 3l345 306q52 46 78 72.5t47 65.5t21 80q0 53 -29.5 83.5t-92.5 30.5q-140 0 -172 -175h-89q22 119 88 187.5t180 68.5q106 0 158 -51t52 -138q0 -71 -34.5 -125.5t-104.5 -115.5q-100 -87 -247 -211h307l-16 -81h-492z" />
    <glyph glyph-name="three.lf" horiz-adv-x="586" 
d="M574 549q0 -72 -43 -118t-118 -61q110 -36 110 -157q0 -105 -74 -167t-194 -62q-119 0 -172 50.5t-53 146.5q0 35 7 69h87q-7 -35 -7 -59q0 -129 141 -129q80 0 126.5 42.5t46.5 112.5q0 121 -162 121h-10l13 68h26q88 0 136.5 35t48.5 101q0 50 -32 78.5t-95 28.5
q-141 0 -171 -161h-89q22 111 89 172.5t179 61.5q105 0 157.5 -47t52.5 -126z" />
    <glyph glyph-name="four.lf" horiz-adv-x="602" 
d="M585 254l-17 -78h-99l-35 -176h-90l35 176h-388l1 4l412 526h171l-90 -452h100zM151 254h244l83 416h-1z" />
    <glyph glyph-name="five.lf" horiz-adv-x="574" 
d="M557 626h-281l-64 -174q43 10 88 10q114 0 170.5 -58.5t56.5 -158.5q0 -115 -76 -188t-198 -73q-218 0 -218 192q0 26 6 55h88q-4 -21 -4 -46q0 -123 130 -123q82 0 129.5 49t47.5 126q0 154 -182 154q-78 0 -155 -24l123 339h372z" />
    <glyph glyph-name="six.lf" horiz-adv-x="644" 
d="M378 458q100 0 155.5 -58t55.5 -148q0 -113 -80.5 -190.5t-200.5 -77.5q-233 0 -233 264q0 126 38.5 232t119.5 174t190 68q102 0 158 -55t56 -151h-89q0 63 -33.5 97.5t-95.5 34.5q-98 0 -161.5 -81.5t-84.5 -205.5q74 97 205 97zM309 61q83 0 135 55.5t52 134.5
q0 61 -36 98.5t-104 37.5q-84 0 -134.5 -53.5t-50.5 -131.5q0 -62 35.5 -101.5t102.5 -39.5z" />
    <glyph glyph-name="seven.lf" horiz-adv-x="519" 
d="M45 0l387 622h-324l17 84h465l-435 -706h-110z" />
    <glyph glyph-name="eight.lf" horiz-adv-x="626" 
d="M449 373q113 -36 113 -162q0 -105 -77 -166t-196 -61q-123 0 -184.5 51.5t-61.5 140.5q0 81 52 137.5t137 68.5q-50 17 -75.5 57.5t-25.5 94.5q0 87 71 137.5t177 50.5q114 0 173.5 -45t59.5 -124q0 -71 -45 -120t-118 -60zM378 655q-71 0 -114 -35.5t-43 -95.5
q0 -55 34.5 -85.5t99.5 -30.5q72 0 118.5 37.5t46.5 96.5q0 53 -35.5 83t-106.5 30zM292 57q78 0 127 42t49 110q0 58 -37.5 93t-109.5 35q-81 0 -132 -43.5t-51 -110.5q0 -58 39 -92t115 -34z" />
    <glyph glyph-name="nine.lf" horiz-adv-x="640" 
d="M382 724q233 0 233 -264q0 -126 -39 -232t-120 -174t-190 -68q-102 0 -158 55t-56 151h89q0 -63 33.5 -97.5t95.5 -34.5q98 0 161.5 81.5t84.5 205.5q-74 -97 -204 -97q-101 0 -156 57.5t-55 148.5q0 113 80.5 190.5t200.5 77.5zM334 321q83 0 134 53.5t51 131.5
q0 62 -35.5 101.5t-103.5 39.5q-83 0 -134.5 -55.5t-51.5 -134.5q0 -62 36 -99t104 -37z" />
    <glyph glyph-name="zero.dnom" horiz-adv-x="428" 
d="M180 -9q-74 0 -109 43t-35 116q0 30 7 69q17 81 64 129.5t122 48.5q74 0 109 -43t35 -116q0 -30 -7 -69q-15 -80 -62.5 -129t-123.5 -49zM183 54q86 0 111 123q6 30 6 61q0 96 -74 96q-86 0 -111 -123q-6 -30 -6 -61q0 -96 74 -96z" />
    <glyph glyph-name="one.dnom" horiz-adv-x="264" 
d="M55 0l65 323h-78l24 65h140l-78 -388h-73z" />
    <glyph glyph-name="two.dnom" horiz-adv-x="353" 
d="M-28 0l1 4l204 172q43 37 61 59.5t18 51.5q0 53 -65 53q-71 0 -88 -80h-69q12 64 52 101t107 37q66 0 99.5 -28t33.5 -79q0 -39 -19.5 -68t-58.5 -61l-120 -97h156l-13 -65h-299z" />
    <glyph glyph-name="three.dnom" horiz-adv-x="370" 
d="M335 297q0 -72 -84 -97q57 -19 57 -82q0 -60 -45 -94t-117 -34q-141 0 -141 117q0 16 3 34h65q-3 -14 -3 -25q0 -69 77 -69q42 0 66.5 20t24.5 54q0 56 -79 56h-14l10 50h21q88 0 88 62q0 52 -66 52q-76 0 -92 -75h-65q11 60 54.5 96t113.5 36q61 0 93.5 -27.5
t32.5 -73.5z" />
    <glyph glyph-name="four.dnom" horiz-adv-x="377" 
d="M186 0l19 92h-231v2l230 294h130l-48 -235h58l-12 -61h-58l-18 -92h-70zM95 153h122l42 211z" />
    <glyph glyph-name="five.dnom" horiz-adv-x="371" 
d="M148 -9q-70 0 -104.5 29.5t-34.5 81.5q0 11 2 23h67q-1 -8 -1 -16q0 -61 74 -61q42 0 66 22t24 58q0 78 -112 78q-51 0 -88 -11l72 193h230l-20 -55h-163l-30 -80q14 3 36 3q74 0 111 -33.5t37 -89.5q0 -64 -46 -103t-120 -39z" />
    <glyph glyph-name="six.dnom" horiz-adv-x="413" 
d="M219 253q63 0 96.5 -32.5t33.5 -82.5q0 -64 -48.5 -105.5t-120.5 -41.5q-154 0 -154 155q0 107 56 179t151 72q64 0 99 -31t38 -84h-69q-6 60 -76 60q-49 0 -81 -36.5t-42 -94.5q47 42 117 42zM180 47q45 0 69.5 25t24.5 62q0 66 -77 66q-44 0 -70.5 -25.5t-26.5 -59.5
q0 -31 21 -49.5t59 -18.5z" />
    <glyph glyph-name="seven.dnom" horiz-adv-x="335" 
d="M9 0l211 325h-178l13 63h292l-252 -388h-86z" />
    <glyph glyph-name="eight.dnom" horiz-adv-x="387" 
d="M353 299q0 -34 -23.5 -61t-65.5 -35q61 -21 61 -89q0 -58 -46 -90.5t-118 -32.5q-74 0 -113 29.5t-39 83.5q0 43 27.5 71t75.5 35q-56 22 -56 81q0 49 43 77.5t108 28.5q70 0 108 -25.5t38 -72.5zM201 232q37 0 59.5 17t22.5 47q0 52 -78 52q-37 0 -58.5 -16t-21.5 -47
q0 -53 76 -53zM164 45q41 0 66 20t25 53q0 59 -83 59q-40 0 -65.5 -19t-25.5 -52q0 -29 21.5 -45t61.5 -16z" />
    <glyph glyph-name="nine.dnom" horiz-adv-x="413" 
d="M233 397q154 0 154 -155q0 -107 -56 -179t-151 -72q-64 0 -99 31t-38 84h69q6 -60 76 -60q49 0 81 36.5t42 94.5q-47 -42 -117 -42q-63 0 -96.5 32.5t-33.5 82.5q0 64 48.5 105.5t120.5 41.5zM216 188q44 0 70.5 25.5t26.5 59.5q0 31 -21 49.5t-59 18.5q-45 0 -69.5 -25
t-24.5 -62q0 -66 77 -66z" />
    <glyph glyph-name="zero.numr" horiz-adv-x="428" 
d="M244 309q-74 0 -109 43t-35 116q0 30 7 69q17 81 64 129.5t122 48.5q74 0 109 -43t35 -116q0 -30 -7 -69q-15 -80 -62.5 -129t-123.5 -49zM247 372q86 0 111 123q6 30 6 61q0 96 -74 96q-86 0 -111 -123q-6 -30 -6 -61q0 -96 74 -96z" />
    <glyph glyph-name="one.numr" horiz-adv-x="264" 
d="M119 318l65 323h-78l24 65h140l-78 -388h-73z" />
    <glyph glyph-name="two.numr" horiz-adv-x="353" 
d="M36 318l1 4l204 172q43 37 61 59.5t18 51.5q0 53 -65 53q-71 0 -88 -80h-69q12 64 52 101t107 37q66 0 99.5 -28t33.5 -79q0 -39 -19.5 -68t-58.5 -61l-120 -97h156l-13 -65h-299z" />
    <glyph glyph-name="three.numr" horiz-adv-x="370" 
d="M399 615q0 -72 -84 -97q57 -19 57 -82q0 -60 -45 -94t-117 -34q-141 0 -141 117q0 16 3 34h65q-3 -13 -3 -25q0 -69 77 -69q42 0 66.5 20t24.5 54q0 56 -79 56h-14l10 50h21q88 0 88 62q0 52 -66 52q-76 0 -92 -75h-65q11 60 54.5 96t113.5 36q61 0 93.5 -27.5
t32.5 -73.5z" />
    <glyph glyph-name="four.numr" horiz-adv-x="377" 
d="M250 318l19 92h-231v2l230 294h130l-48 -235h58l-12 -61h-58l-18 -92h-70zM159 471h122l42 211z" />
    <glyph glyph-name="five.numr" horiz-adv-x="371" 
d="M212 309q-70 0 -104.5 29.5t-34.5 81.5q0 11 2 23h67q-1 -8 -1 -16q0 -61 74 -61q42 0 66 22t24 58q0 78 -112 78q-51 0 -88 -11l72 193h230l-20 -55h-163l-30 -80q13 3 36 3q74 0 111 -33.5t37 -89.5q0 -64 -46 -103t-120 -39z" />
    <glyph glyph-name="six.numr" horiz-adv-x="413" 
d="M283 571q63 0 96.5 -32.5t33.5 -82.5q0 -64 -48.5 -105.5t-120.5 -41.5q-154 0 -154 155q0 107 56 179t151 72q64 0 99 -31t38 -84h-69q-6 60 -76 60q-49 0 -81 -36.5t-42 -94.5q47 42 117 42zM244 365q45 0 69.5 25t24.5 62q0 66 -77 66q-44 0 -70.5 -25.5t-26.5 -59.5
q0 -31 21 -49.5t59 -18.5z" />
    <glyph glyph-name="seven.numr" horiz-adv-x="335" 
d="M73 318l211 325h-178l13 63h292l-252 -388h-86z" />
    <glyph glyph-name="eight.numr" horiz-adv-x="387" 
d="M417 617q0 -34 -23.5 -61t-65.5 -35q61 -21 61 -89q0 -58 -46 -90.5t-118 -32.5q-74 0 -113 29.5t-39 83.5q0 43 27.5 71t75.5 35q-56 22 -56 81q0 49 43 77.5t108 28.5q70 0 108 -25.5t38 -72.5zM265 550q37 0 59.5 17t22.5 47q0 52 -78 52q-37 0 -58.5 -16t-21.5 -47
q0 -53 76 -53zM228 363q41 0 66 20t25 53q0 59 -83 59q-40 0 -65.5 -19t-25.5 -52q0 -29 21.5 -45t61.5 -16z" />
    <glyph glyph-name="nine.numr" horiz-adv-x="413" 
d="M297 715q154 0 154 -155q0 -107 -56 -179t-151 -72q-64 0 -99 31t-38 84h69q6 -60 76 -60q49 0 81 36.5t42 94.5q-47 -42 -117 -42q-63 0 -96.5 32.5t-33.5 82.5q0 64 48.5 105.5t120.5 41.5zM280 506q44 0 70.5 25.5t26.5 59.5q0 31 -21 49.5t-59 18.5q-45 0 -69.5 -25
t-24.5 -62q0 -66 77 -66z" />
    <glyph glyph-name="zero.sc" horiz-adv-x="599" 
d="M261 -14q-192 0 -192 216q0 56 12 118q24 123 95.5 199.5t179.5 76.5q193 0 193 -217q0 -48 -12 -117q-24 -123 -95.5 -199.5t-180.5 -76.5zM268 68q71 0 115 56t63 148q11 53 11 108q0 66 -24 100.5t-83 34.5q-70 0 -114.5 -56t-63.5 -148q-11 -53 -11 -108
q0 -66 24 -100.5t83 -34.5z" />
    <glyph glyph-name="one.sc" horiz-adv-x="345" 
d="M89 0l100 499h-102l34 84h173l-117 -583h-88z" />
    <glyph glyph-name="two.sc" horiz-adv-x="502" 
d="M-20 0l1 3l294 261q71 62 89 87q29 37 29 78q0 40 -23.5 64t-73.5 24q-112 0 -139 -134h-86q18 99 75 156t156 57q92 0 137.5 -43.5t45.5 -118.5q0 -56 -28.5 -98t-87.5 -91q-29 -24 -97 -79.5t-103 -84.5h256l-17 -81h-428z" />
    <glyph glyph-name="three.sc" horiz-adv-x="530" 
d="M496 450q0 -58 -35.5 -95.5t-99.5 -52.5q94 -27 94 -128q0 -86 -65.5 -137t-168.5 -51q-194 0 -194 164q0 23 5 58h86q-5 -23 -5 -42q0 -104 112 -104q65 0 102.5 32t37.5 84q0 50 -33 72.5t-101 22.5h-8l13 66h27q71 0 107 27t36 75q0 84 -98 84q-116 0 -142 -120h-83
q35 191 237 191q88 0 132 -39.5t44 -106.5z" />
    <glyph glyph-name="four.sc" horiz-adv-x="532" 
d="M505 215l-15 -76h-85l-28 -139h-87l28 139h-333v2l342 442h167l-74 -368h85zM135 215h198l66 333h-1z" />
    <glyph glyph-name="five.sc" horiz-adv-x="519" 
d="M228 -14q-195 0 -195 156q0 30 5 53h86q-4 -26 -4 -39q0 -93 109 -93q67 0 104 37.5t37 96.5q0 119 -162 119q-70 0 -122 -14l102 281h326l-34 -79h-237l-48 -129q38 7 68 7q100 0 149 -48.5t49 -131.5q0 -96 -64.5 -156t-168.5 -60z" />
    <glyph glyph-name="six.sc" horiz-adv-x="585" 
d="M338 380q87 0 133.5 -47t46.5 -124q0 -96 -69.5 -159.5t-173.5 -63.5q-205 0 -205 220q0 164 78.5 277t217.5 113q89 0 138.5 -45t52.5 -125h-87q-1 46 -29.5 72t-77.5 26q-80 0 -129.5 -60t-67.5 -156q66 72 172 72zM277 62q66 0 107.5 41t41.5 102q0 48 -27.5 77
t-84.5 29q-66 0 -108 -40.5t-42 -100.5q0 -47 28.5 -77.5t84.5 -30.5z" />
    <glyph glyph-name="seven.sc" horiz-adv-x="468" 
d="M37 0l321 499h-271l17 84h407l-366 -583h-108z" />
    <glyph glyph-name="eight.sc" horiz-adv-x="566" 
d="M534 460q0 -60 -38.5 -101t-99.5 -51q95 -30 95 -134q0 -88 -68 -138t-173 -50q-104 0 -156.5 43t-52.5 117q0 68 43.5 114t113.5 56q-42 14 -64 44.5t-22 70.5q0 77 65.5 121t163.5 44q94 0 143.5 -36t49.5 -100zM311 341q58 0 95 30t37 78q0 83 -105 83q-63 0 -100 -28
t-37 -77q0 -40 28.5 -63t81.5 -23zM256 57q64 0 104 32.5t40 84.5q0 45 -30.5 72t-89.5 27q-64 0 -105 -33.5t-41 -85.5q0 -45 31 -71t91 -26z" />
    <glyph glyph-name="nine.sc" horiz-adv-x="587" 
d="M332 596q205 0 205 -220q0 -165 -78.5 -277.5t-217.5 -112.5q-90 0 -139.5 45t-52.5 125h87q1 -46 30 -72t78 -26q79 0 129 60t67 156q-66 -72 -172 -72q-87 0 -133 46.5t-46 124.5q0 96 69 159.5t174 63.5zM293 271q65 0 107 40.5t42 100.5q0 48 -28 78t-84 30
q-67 0 -108.5 -41t-41.5 -103q0 -48 28 -76.5t85 -28.5z" />
    <glyph glyph-name="colon.case" horiz-adv-x="291" 
d="M204 474q-28 0 -45 16.5t-17 43.5q0 28 17 45t45 17q27 0 44.5 -17.5t17.5 -44.5t-17.5 -43.5t-44.5 -16.5zM133 118q-27 0 -44.5 17t-17.5 44t17.5 44.5t44.5 17.5t44.5 -17.5t17.5 -44.5t-17.5 -44t-44.5 -17z" />
    <glyph glyph-name="semicolon.case" horiz-adv-x="308" 
d="M200 474q-27 0 -44.5 16.5t-17.5 43.5q0 28 17.5 45t44.5 17t44.5 -17t17.5 -45q0 -27 -17.5 -43.5t-44.5 -16.5zM-29 -38l127 327h88l-145 -327h-70z" />
    <glyph glyph-name="exclamdown.case" horiz-adv-x="278" 
d="M222 716q28 0 45 -17t17 -43q0 -28 -17 -45t-45 -17q-27 0 -44.5 17.5t-17.5 44.5q0 26 18 43t44 17zM229 509l-91 -513h-96l114 513h73z" />
    <glyph glyph-name="questiondown.case" horiz-adv-x="495" 
d="M339 721q27 0 44.5 -17t17.5 -43q0 -28 -17.5 -45t-44.5 -17t-44.5 17t-17.5 45q0 26 17.5 43t44.5 17zM363 514q-148 -168 -189 -227q-58 -83 -58 -139q0 -91 105 -91q66 0 96.5 34.5t43.5 101.5h87q-18 -101 -73 -154.5t-158 -53.5q-96 0 -145 44t-49 119q0 47 31 106
t63 99t121 143l15 18h110z" />
    <glyph glyph-name="periodcentered.case" horiz-adv-x="278" 
d="M165 315q-27 0 -44.5 17t-17.5 44t17.5 44.5t44.5 17.5t44.5 -17.5t17.5 -44.5t-17.5 -44t-44.5 -17z" />
    <glyph glyph-name="periodcentered.loclCAT.case" horiz-adv-x="52" 
d="M-46 333q-27 0 -44.5 17t-17.5 44q0 28 17.5 45t44.5 17t44.5 -17t17.5 -45q0 -27 -17.5 -44t-44.5 -17z" />
    <glyph glyph-name="slash.case" horiz-adv-x="454" 
d="M-24 -50l462 806h96l-463 -806h-95z" />
    <glyph glyph-name="periodcentered.loclCAT" horiz-adv-x="133" 
d="M84 273q-28 0 -45 16.5t-17 43.5q0 28 17 45t45 17q27 0 44.5 -17.5t17.5 -44.5t-17.5 -43.5t-44.5 -16.5z" />
    <glyph glyph-name="parenleft.case" horiz-adv-x="392" 
d="M189 -133q-56 171 -56 332q0 334 242 641h90q-255 -304 -255 -647q0 -169 56 -326h-77z" />
    <glyph glyph-name="parenright.case" horiz-adv-x="393" 
d="M247 840q57 -169 57 -332q0 -334 -242 -641h-90q254 303 254 647q0 167 -55 326h76z" />
    <glyph glyph-name="braceleft.case" horiz-adv-x="355" 
d="M390 840h60l-13 -65h-22q-52 0 -77 -22.5t-35 -68.5l-45 -228q-11 -55 -34 -78t-72 -26q64 -11 64 -83q0 -23 -6 -53l-39 -194q-4 -15 -4 -31q0 -59 79 -59h23l-13 -65h-37q-63 0 -93.5 30.5t-30.5 84.5q0 23 4 43l39 195q6 36 6 46q0 28 -18.5 39.5t-64.5 11.5l15 75
q60 0 82.5 20.5t33.5 77.5l45 225q12 57 51 91t102 34z" />
    <glyph glyph-name="braceright.case" horiz-adv-x="356" 
d="M256 441q0 -28 18 -39.5t64 -11.5l-15 -75q-60 0 -82 -20t-34 -78l-45 -225q-12 -57 -50.5 -91t-101.5 -34h-61l13 65h23q52 0 76.5 22.5t34.5 68.5l46 228q11 55 34 78t71 26q-64 11 -64 83q0 18 7 53l39 194q3 17 3 31q0 59 -79 59h-22l13 65h37q62 0 93 -30.5
t31 -84.5q0 -18 -5 -43l-38 -195q-6 -27 -6 -46z" />
    <glyph glyph-name="bracketleft.case" horiz-adv-x="378" 
d="M79 -133l194 973h200l-14 -68h-123l-167 -837h123l-14 -68h-199z" />
    <glyph glyph-name="bracketright.case" horiz-adv-x="378" 
d="M343 840l-194 -973h-200l14 68h123l167 837h-123l14 68h199z" />
    <glyph glyph-name="hyphen.case" horiz-adv-x="387" 
d="M72 333l16 77h278l-15 -77h-279z" />
    <glyph glyph-name="uni00AD.case" horiz-adv-x="387" 
d="M72 333l16 77h278l-15 -77h-279z" />
    <glyph glyph-name="endash.case" horiz-adv-x="493" 
d="M72 334l15 76h386l-15 -76h-386z" />
    <glyph glyph-name="emdash.case" horiz-adv-x="962" 
d="M72 334l15 76h854l-15 -76h-854z" />
    <glyph glyph-name="guillemotleft.case" horiz-adv-x="491" 
d="M166 207l-119 163l181 159h100l-188 -166l115 -156h-89zM369 207l-119 163l181 159h100l-188 -166l115 -156h-89z" />
    <glyph glyph-name="guillemotright.case" horiz-adv-x="491" 
d="M172 529l119 -163l-181 -159h-100l187 166l-114 156h89zM375 529l119 -163l-181 -159h-100l188 166l-115 156h89z" />
    <glyph glyph-name="guilsinglleft.case" horiz-adv-x="288" 
d="M166 207l-119 163l181 159h100l-188 -166l115 -156h-89z" />
    <glyph glyph-name="guilsinglright.case" horiz-adv-x="288" 
d="M172 529l119 -163l-181 -159h-100l187 166l-114 156h89z" />
    <glyph glyph-name="periodcentered.loclCAT.sc" horiz-adv-x="75" 
d="M-6 285q-28 0 -45 16.5t-17 43.5q0 28 17 45t45 17q27 0 44.5 -17.5t17.5 -44.5t-17.5 -43.5t-44.5 -16.5z" />
    <glyph glyph-name="slash.sc" horiz-adv-x="433" 
d="M-17 -50l390 683h97l-392 -683h-95z" />
    <glyph glyph-name="cent.ss06" horiz-adv-x="528" 
d="M519 418h-91q1 5 1 13q0 48 -28 74.5t-77 26.5q-79 0 -125 -67t-46 -158q0 -133 113 -133q52 0 88 30.5t46 80.5h94q-18 -85 -78 -134.5t-145 -52.5l-19 -98h-67l21 103q-73 15 -108.5 69.5t-35.5 134.5q0 120 67.5 205.5t176.5 94.5l20 99h67l-20 -101q69 -11 108 -54
t39 -112q0 -13 -1 -21z" />
    <glyph glyph-name="dollar.ss06" horiz-adv-x="602" 
d="M583 488h-94q4 19 4 42q0 54 -34.5 86t-99.5 32q-67 0 -107.5 -33.5t-40.5 -86.5q0 -17 3.5 -31t14 -25.5t18.5 -19t27.5 -17t29 -14t36 -14.5t36.5 -14q92 -36 133.5 -76.5t41.5 -114.5q0 -100 -72 -158t-194 -60l-19 -93h-70l19 97q-91 14 -135 67.5t-44 135.5
q0 19 3 38h98q-3 -13 -3 -37q0 -63 37.5 -98t114.5 -35q78 0 122.5 35t44.5 95q0 23 -8.5 42t-19.5 31.5t-35.5 26t-41 20.5t-51.5 20q-9 3 -13 5q-84 32 -125.5 72.5t-41.5 111.5q0 91 66.5 146.5t175.5 57.5l18 92h70l-19 -97q78 -14 118 -63.5t40 -122.5q0 -22 -3 -43z
" />
    <glyph glyph-name="paragraph.ss07" horiz-adv-x="651" 
d="M208 -201l101 505h-35q-196 0 -196 181q0 105 59.5 163t169.5 58h418l-15 -74h-67l-167 -833h-80l167 833h-109l-166 -833h-80zM279 378h45l51 255h-72q-73 0 -110.5 -39t-37.5 -108q0 -53 29 -80.5t95 -27.5z" />
    <glyph glyph-name="caroncomb.alt" 
d="M-20 539l62 167h76l-70 -167h-68z" />
    <glyph glyph-name="uni0335.Eth" 
d="M-304 326l13 67h321l-13 -67h-321z" />
    <glyph glyph-name="uni0335.Tbar" 
d="M-391 289l13 64h350l-13 -64h-350z" />
    <glyph glyph-name="caron.alt" horiz-adv-x="205" 
d="M109 539l62 167h76l-70 -167h-68z" />
    <glyph glyph-name="uni0308.case" 
d="M-192 797q-24 0 -39.5 15t-15.5 38t15.5 38.5t39.5 15.5q23 0 39 -15.5t16 -38.5t-16 -38t-39 -15zM16 797q-24 0 -39.5 15t-15.5 38t15.5 38.5t39.5 15.5q23 0 39.5 -15.5t16.5 -38.5t-16 -38t-40 -15z" />
    <glyph glyph-name="uni0307.case" 
d="M14 792q-24 0 -39.5 14.5t-15.5 37.5t15.5 38t39.5 15q23 0 39 -15t16 -38q0 -22 -16 -37t-39 -15z" />
    <glyph glyph-name="gravecomb.case" 
d="M57 777h-84l-104 128h92z" />
    <glyph glyph-name="acutecomb.case" 
d="M-156 777l133 128h105l-141 -128h-97z" />
    <glyph glyph-name="uni030B.case" 
d="M-284 778l128 127h90l-141 -127h-77zM-135 778l128 127h89l-140 -127h-77z" />
    <glyph glyph-name="uni0302.case" 
d="M-285 777l143 128h106l92 -128h-83l-65 86l-98 -86h-95z" />
    <glyph glyph-name="uni030C.case" 
d="M82 905l-144 -128h-106l-92 128h84l64 -85l99 85h95z" />
    <glyph glyph-name="uni0306.case" 
d="M-92 772q-126 0 -126 104q0 9 2 29h62q-1 -6 -1 -16q0 -63 70 -63q75 0 102 79h66q-34 -133 -175 -133z" />
    <glyph glyph-name="uni030A.case" 
d="M-45 744q-51 0 -81.5 29t-30.5 78q0 47 30.5 76.5t81.5 29.5t82.5 -29.5t31.5 -76.5q0 -48 -31 -77.5t-83 -29.5zM-45 793q27 0 43 16t16 42q0 25 -16.5 41t-42.5 16t-42 -15.5t-16 -41.5t16 -42t42 -16z" />
    <glyph glyph-name="tildecomb.case" 
d="M-45 773q-45 0 -80 39q-2 2 -6.5 7t-7 7t-6.5 5.5t-6.5 5.5t-7 4.5t-8 3.5t-8.5 2t-10 1q-46 0 -67 -73h-58q31 133 128 133q44 0 82 -40q25 -28 40 -33q7 -2 15 -2q46 0 69 73h58q-33 -133 -127 -133z" />
    <glyph glyph-name="uni0304.case" 
d="M-229 810l12 63h293l-12 -63h-293z" />
    <glyph glyph-name="uni0337.case" 
d="M-170 323l17 79l210 125l-17 -79zM-290 265l16 77l123 73l-16 -78z" />
    <glyph glyph-name="uni0338.case" 
d="M-776 0l158 145h4l485 471l6 -2l95 92h80l-157 -145l-3 1l-487 -470l-4 1l-97 -93h-80z" />
    <glyph glyph-name="uni0308.narrow.case" 
d="M-126 790q-22 0 -36.5 14t-14.5 35q0 22 14.5 37t36.5 15q21 0 35.5 -15t14.5 -37q0 -21 -14.5 -35t-35.5 -14zM18 789q-22 0 -36.5 14t-14.5 35q0 23 14.5 37.5t36.5 14.5q21 0 35.5 -15t14.5 -37q0 -21 -14.5 -35t-35.5 -14z" />
    <glyph glyph-name="uni0302.narrow.case" 
d="M-210 777l108 128h99l60 -128h-75l-38 85l-72 -85h-82z" />
    <glyph glyph-name="uni0306.narrow.case" 
d="M-63 772q-109 0 -109 94q0 11 4 39h63q-3 -17 -3 -30q0 -48 49 -48q32 0 49 18.5t27 59.5h66q-26 -133 -146 -133z" />
    <glyph glyph-name="tildecomb.narrow.case" 
d="M-26 774q-40 0 -62 39q-11 19 -19.5 27.5t-22.5 8.5q-19 0 -30.5 -17.5t-20.5 -54.5h-53q15 67 40.5 98.5t68.5 31.5q39 0 62 -40q10 -19 17.5 -26.5t20.5 -7.5q20 0 31 17t22 55h54q-16 -69 -41 -100t-67 -31z" />
    <glyph glyph-name="uni0304.narrow.case" 
d="M-166 810l13 62h228l-12 -62h-229z" />
    <glyph glyph-name="uni0335.dh" 
d="M-303 294l12 58h313l-12 -58h-313z" />
    <glyph glyph-name="uni0307.i" 
d="M-28 593q-25 0 -41 16t-16 40q0 25 16 41t41 16q24 0 41 -16.5t17 -40.5t-17 -40t-41 -16z" />
    <glyph glyph-name="uni0308.narrow" 
d="M-156 589q-22 0 -35 13.5t-13 35.5q0 23 14 37t36 14q21 0 34 -13t13 -35q0 -23 -14 -37.5t-35 -14.5zM-22 589q-21 0 -34 13.5t-13 35.5q0 23 14 37t36 14q21 0 34 -13.5t13 -34.5q0 -23 -14 -37.5t-36 -14.5z" />
    <glyph glyph-name="gravecomb.narrow" 
d="M16 572h-73l-60 154h82z" />
    <glyph glyph-name="acutecomb.narrow" 
d="M-149 572l102 154h93l-111 -154h-84z" />
    <glyph glyph-name="uni0302.narrow" 
d="M-246 571l117 156h90l54 -156h-68l-37 109l-83 -109h-73z" />
    <glyph glyph-name="uni030C.narrow" 
d="M47 726l-117 -156h-91l-53 156h68l37 -109l83 109h73z" />
    </font>
</defs>
</svg>
